<svg width="99" height="99" viewBox="0 0 99 99" fill="none" xmlns="http://www.w3.org/2000/svg">
<circle cx="50.3277" cy="49.6377" r="48.5483" fill="#040404"/>
<circle cx="49.303" cy="48.7804" r="48.5483" fill="#FF6CFD"/>
<circle cx="49.303" cy="48.7805" r="41.4847" fill="url(#paint0_linear_33_627)"/>
<circle cx="49.3029" cy="48.7805" r="38.6547" fill="#FDFDFD"/>
<path d="M54.1531 36.9797L53.8667 37.0206C54.1122 36.9388 54.0304 36.857 53.9485 36.7752C53.9076 36.6933 53.7849 36.5297 53.8667 36.4479H53.9485L53.7849 36.0797H53.4576C52.8849 36.0388 52.2712 36.1206 51.6576 36.2433C51.5757 36.1206 51.453 36.0388 51.2075 36.0797C51.003 36.1206 50.8393 36.0797 50.7166 35.9979C51.4939 35.8751 52.2303 35.8751 53.0076 35.9569C53.1303 35.9569 53.2531 35.9979 53.3758 35.9979C53.4985 35.9979 53.6213 35.9979 53.744 36.0388C52.9667 34.7705 51.5757 34.5251 50.062 34.6887H50.0211L45.6437 35.3842C45.2755 35.466 45.0709 35.6706 45.03 36.0388L44.9482 37.0206C45.3573 37.0206 45.6028 37.0206 45.7664 36.857C45.7664 36.8161 45.7255 36.7342 45.6437 36.6524C45.48 36.4888 45.3982 36.407 45.4391 36.2842C45.48 36.2433 45.5619 36.2024 45.7664 36.1615C45.971 36.1615 46.0937 36.1206 46.2573 36.2433L46.3801 36.1615L46.5846 36.2433C46.421 36.2842 46.2983 36.2842 46.1755 36.2433C46.0528 36.2433 45.9301 36.2842 45.8892 36.3251C45.971 36.4479 46.0119 36.5297 45.971 36.5706C45.9301 36.8161 45.8892 36.857 45.9301 36.9388C45.971 37.0206 46.0528 37.0615 46.2573 37.1024C46.5846 37.0206 46.9119 36.9797 47.1983 36.9797H48.0165C48.3847 37.0206 48.6711 37.0206 48.8756 37.0206C49.162 37.0615 49.5302 37.0206 49.8984 36.9388C50.0211 37.0206 50.1439 37.0206 50.2666 37.0206C50.2666 37.0206 50.3893 37.0206 50.6348 36.9797C50.7166 36.9388 50.8393 36.9388 50.9621 36.9388C51.0848 36.9388 51.1666 36.9797 51.3303 37.0206L51.8621 36.6933C52.0667 36.8979 52.3121 36.9797 52.6803 36.9797C53.0076 36.9797 53.294 37.0206 53.5803 37.0206H53.5394C52.8849 37.0206 52.3121 37.0206 51.7803 37.0615C51.1257 37.1024 50.5121 37.1843 49.8984 37.1843L49.7757 37.1024C49.3666 37.1434 48.9574 37.1843 48.5893 37.1843C48.262 37.1843 47.9347 37.2252 47.6892 37.2252L45.7664 37.3479C46.0119 37.4706 45.9301 37.6752 45.8482 37.7979C45.7255 37.9616 45.6437 38.0843 45.8892 38.207C45.521 38.2889 45.2346 38.1661 45.1119 37.9616C45.0709 37.8797 45.2346 37.7161 45.3573 37.5934C45.4391 37.5525 45.48 37.4706 45.4391 37.4297C45.4391 37.3888 45.3164 37.3479 45.1528 37.2661H44.9073L44.3345 43.4436C44.3345 43.73 44.4164 43.9345 44.6209 44.0572C44.7846 44.2618 45.03 44.3027 45.2755 44.2209L46.871 43.73L44.9073 62.0988C44.8664 62.5488 45.2346 62.917 45.7255 62.917L51.7394 62.2216C52.1076 62.1806 52.353 61.9352 52.3939 61.5261C52.6803 56.4123 53.0485 51.2166 53.6622 46.1028C53.8667 44.18 54.1122 42.1754 54.2349 40.2116C54.2349 39.3934 54.3576 37.8797 54.1531 36.9797ZM49.8984 36.4888L49.2847 36.0797L49.1211 36.1615C48.9574 36.1206 48.7529 36.1206 48.6302 36.1615C48.5483 36.1615 48.4665 36.1615 48.3847 36.2024H48.2211C48.0165 36.2842 47.771 36.2842 47.1574 36.2433V36.1615C47.4847 36.1615 47.771 36.1206 48.0165 36.1206C48.3029 36.0797 48.5483 36.0388 48.712 36.0388C49.162 35.9979 49.5711 35.9979 50.2257 36.0797C49.8984 36.2842 49.7757 36.3251 49.8984 36.4888ZM47.771 38.207C47.6483 38.207 47.5256 38.1661 47.4438 38.1252C47.321 37.9207 47.5665 37.5115 48.0574 37.7979C47.8119 37.8797 47.6892 38.0434 47.771 38.207ZM52.5985 38.2479C52.2303 38.2889 52.1076 38.207 52.1485 38.0434L52.844 37.9207L52.5985 38.2479ZM45.8892 41.5208H46.1346V41.6435H45.8892V41.5208ZM46.2573 42.2981C46.1755 42.2981 46.0528 42.339 45.9301 42.339L46.0528 42.2572C46.0937 42.2163 46.1346 42.1754 46.1755 42.1754L46.7892 42.2572C46.7892 42.2572 46.4619 42.2572 46.2573 42.2981ZM45.3573 43.3209H45.1119V43.239H45.3573V43.3209ZM48.4665 44.5482L48.5074 44.6709L48.1801 44.63L48.4665 44.5482ZM51.5757 47.4528H51.7803V47.5756H51.5757V47.4528ZM51.1257 47.7801H51.3712V47.8619L51.4121 47.9028V47.9847H51.1257V47.7801ZM48.3438 48.4756V48.2301H48.5074L48.5483 48.4756H48.3438ZM51.6166 48.5574C51.7394 48.5574 51.8212 48.6392 51.903 48.7211L51.7803 48.8438H51.6166C51.6166 48.8438 51.5348 48.8029 51.4939 48.8029C51.4939 48.762 51.5348 48.6392 51.6166 48.5574ZM52.3121 49.212V49.1302C52.2712 49.0483 52.2712 49.0074 52.3121 48.9665C52.4349 48.9665 52.5576 49.0483 52.6803 49.1711L52.3121 49.212ZM51.8212 49.1711V49.2938C51.8212 49.3347 51.8621 49.3347 51.8621 49.3756C51.8212 49.4165 51.6985 49.4165 51.5348 49.4165V49.6211H51.2484C51.2484 49.5802 51.2484 49.5393 51.2894 49.4984V49.3347H51.4121L51.4939 49.2938L51.8212 49.1711ZM50.7166 49.2529C50.9212 49.2529 51.0439 49.3347 51.0439 49.4574L50.7166 49.4984C50.7166 49.4984 50.7166 49.4574 50.7575 49.3756C50.7984 49.3756 50.7984 49.3756 50.7984 49.3347C50.7575 49.3347 50.7166 49.3347 50.7166 49.2529ZM50.8802 49.662V49.7029L50.9212 49.7438C50.9212 49.7847 50.9212 49.7847 50.9621 49.7847H50.8393C50.8393 49.7438 50.7984 49.7438 50.7984 49.7029H50.8393V49.7438L50.8802 49.662ZM52.2712 50.1938C51.9848 50.1529 51.8212 50.1529 51.7394 50.1529V49.9484C51.8212 49.9075 51.8621 49.9075 51.9848 49.9484H52.2303C52.2712 50.112 52.3121 50.1529 52.2712 50.1938ZM50.8393 50.0711V50.1938L50.7166 50.112L50.6348 49.9484L50.8393 50.0711ZM52.0257 50.562C52.0667 50.562 52.0667 50.562 52.1076 50.6029C51.8621 50.6029 51.6576 50.562 51.453 50.4802C51.4939 50.4802 51.5757 50.4393 51.6576 50.3575C51.6985 50.3166 51.7394 50.2347 51.8212 50.1938H51.9848C51.9848 50.2347 51.9848 50.3166 52.0257 50.3575C52.0257 50.4393 51.9848 50.4802 51.903 50.5211C51.9439 50.5211 51.9848 50.562 52.0257 50.562ZM51.0848 50.6029C51.003 50.6848 50.9212 50.6848 50.8393 50.6848L50.7166 50.562C50.7984 50.4802 50.8802 50.4393 50.9212 50.4393C51.0439 50.4393 51.0848 50.4802 51.0848 50.6029ZM50.7166 50.9711V50.8075L51.3712 50.8893L50.7166 50.9711ZM49.8575 51.7075C49.7348 51.7075 49.612 51.6666 49.5302 51.6257L49.612 51.4621H49.9393L49.8575 51.7075ZM47.3619 51.5848C47.2392 51.6666 47.1165 51.7075 46.9937 51.7075L46.7892 51.5848C46.7892 51.4621 47.0756 51.4212 47.3619 51.5848ZM50.5939 51.6666C50.5939 51.6257 50.6348 51.5439 50.7575 51.503H50.7984C50.8802 51.503 50.9621 51.5439 51.0439 51.5848C51.0439 51.6666 51.003 51.7484 50.9212 51.7893H50.6348C50.6348 51.7893 50.5939 51.7484 50.5939 51.6666ZM51.3712 51.7484L51.453 51.6257C51.5757 51.6257 51.6575 51.6666 51.6985 51.6666V51.8712C51.6985 51.8712 51.4939 51.9939 51.3303 51.9121C51.2894 51.8712 51.3303 51.7894 51.3712 51.7484ZM47.2392 52.7303V52.6076L47.3619 52.4848C47.3619 52.5667 47.4847 52.6485 47.6483 52.7303H47.2392ZM52.2303 53.1394C52.2303 53.0985 52.2303 53.0985 52.1894 53.0576L52.3939 52.8939L52.6803 52.9758C52.6803 53.0985 52.5576 53.1394 52.3939 53.1394H52.2303ZM51.4121 53.0576V52.9348H51.6576V53.0576H51.4121ZM46.4619 53.0167C46.6665 53.0167 46.7892 53.0167 46.8301 53.0576C46.7483 53.0985 46.7074 53.1803 46.7074 53.2621C46.5028 53.1803 46.3801 53.1394 46.3392 53.0985C46.2574 53.0576 46.1346 53.0576 46.0937 53.0167H46.4619ZM51.6985 53.4258V53.1803H52.0257V53.3849L51.6985 53.4258ZM46.2164 53.4258C46.1346 53.4258 46.0937 53.3849 46.0937 53.344C46.0528 53.2621 46.0119 53.2212 45.971 53.2212H46.2983C46.3392 53.2212 46.421 53.2621 46.5437 53.2621C46.5437 53.303 46.3801 53.4258 46.2164 53.4258ZM51.3303 53.4667L51.4121 53.6712H51.1257C51.0439 53.6712 50.9621 53.6712 50.9212 53.6303C50.9621 53.5894 51.1257 53.5485 51.3303 53.4667ZM47.0346 53.6303H47.3619V53.7531H47.0346V53.6303ZM52.6394 53.8758C52.5985 53.8758 52.5985 53.8349 52.5985 53.8349C52.5985 53.8349 52.5985 53.794 52.5576 53.794C52.5576 53.7531 52.5985 53.7121 52.5985 53.6712C52.6803 53.6712 52.7621 53.7122 52.803 53.794C52.803 53.8349 52.7621 53.8349 52.6394 53.8758ZM52.0257 54.1213L52.0667 54.0803C52.1076 54.1213 52.1076 54.2031 52.0667 54.244C52.0257 54.2031 52.0257 54.1622 52.0257 54.1622C51.9848 54.1622 51.9848 54.1622 51.9848 54.1213H52.0257ZM51.7803 54.6122C51.7394 54.5713 51.6985 54.5304 51.6985 54.4895C51.6985 54.4076 51.7394 54.3667 51.8212 54.2849L51.9439 54.3667H52.0257V54.3258C52.0257 54.3258 52.0257 54.2849 52.0667 54.2849C52.1485 54.3258 52.2303 54.3667 52.3121 54.3667V54.6531H52.2712C52.2303 54.694 52.1485 54.7349 52.0667 54.7349C51.903 54.7349 51.8212 54.694 51.7803 54.6122ZM51.6576 54.6531L51.8212 54.7349L51.7394 54.8576L51.6166 54.8167L51.6576 54.6531ZM47.2392 54.9395C47.1574 54.9804 46.9937 55.0213 46.871 55.0622C46.8301 55.0622 46.7892 55.0213 46.7892 55.0213L46.7483 54.9804C46.7074 54.9804 46.7074 54.9395 46.6255 54.8986L47.0346 54.694H47.3619L47.6074 54.8167C47.5256 54.8167 47.4028 54.8576 47.2392 54.9395ZM51.453 54.7758C51.3303 54.9804 51.0848 55.1031 50.8802 55.1031V54.9395C50.8802 54.9395 51.1257 54.7349 51.453 54.7758ZM52.3939 55.2258V55.1031C52.3939 55.1031 52.353 55.0213 52.353 54.9395H52.6803C52.7212 55.0213 52.7212 55.0622 52.7212 55.0622C52.7621 55.1031 52.7621 55.144 52.7621 55.1849C52.7212 55.2668 52.5985 55.2668 52.3939 55.2258ZM51.5348 55.8804L51.453 55.9622H51.4121C51.4121 55.9622 51.3712 56.0031 51.3303 56.0031C51.2075 55.9213 51.1257 55.8395 51.0439 55.7168C50.9621 55.6349 50.8802 55.5122 50.7166 55.4304C50.7575 55.3486 50.9212 55.2258 51.0439 55.2668H51.0848V55.1031C51.2075 55.1031 51.2894 55.144 51.4121 55.2258L51.3712 55.5531C51.4121 55.594 51.4939 55.6349 51.6576 55.6349L51.5348 55.8804ZM51.6166 55.594L51.6985 55.3895C51.8212 55.4304 51.903 55.4304 51.9848 55.4304H52.2712C52.2712 55.5531 52.1894 55.6349 52.0667 55.6349H51.903C51.8212 55.594 51.7394 55.594 51.6166 55.594ZM46.7483 55.5531V55.5122L46.9528 55.4713L47.0346 55.5122L46.7483 55.5531ZM50.6348 55.6349H50.3484V55.5122H50.6348V55.6349ZM52.1076 55.8804H52.5576C52.4758 56.0031 52.3939 56.085 52.2712 56.1668C52.3121 56.1668 52.3121 56.2077 52.3121 56.2486L52.2303 56.2895C52.2303 56.2895 52.1894 56.2895 52.1485 56.2486L51.8212 56.2077C51.8621 56.0441 52.0667 55.9213 52.1076 55.8804ZM46.9937 56.0441H46.871C46.871 56.0441 46.9119 56.0031 47.0346 55.9622C47.1165 56.0031 47.0756 56.0441 46.9937 56.0441ZM47.6074 56.535H47.3619V56.4122H47.6074V56.535ZM52.0257 56.6168L51.9848 56.4532H52.1076C52.1894 56.4532 52.2303 56.4941 52.2712 56.535C52.2303 56.535 52.2303 56.5759 52.1894 56.5759C52.1076 56.6168 52.0667 56.6168 52.0257 56.6168ZM52.4349 56.7395C52.3939 56.7804 52.353 56.7804 52.2712 56.7804L52.3121 56.5759H52.5167C52.5167 56.6168 52.5167 56.6168 52.5576 56.6577V56.6986C52.5985 56.6986 52.5985 56.6986 52.5985 56.7395H52.4349ZM50.3484 56.9032C50.4302 56.8623 50.5121 56.8214 50.553 56.8214L50.3484 56.9032Z" fill="#040404"/>
<defs>
<linearGradient id="paint0_linear_33_627" x1="80.2282" y1="86.2638" x2="19.6958" y2="-0.428265" gradientUnits="userSpaceOnUse">
<stop stop-color="#FDFDFD"/>
<stop offset="1" stop-color="#FDFDFD" stop-opacity="0"/>
</linearGradient>
</defs>
</svg>
