<svg width="100" height="100" viewBox="0 0 100 100" fill="none" xmlns="http://www.w3.org/2000/svg">
<circle cx="50.6832" cy="50.2979" r="48.7356" fill="#040404"/>
<circle cx="49.6543" cy="49.2586" r="48.7356" fill="#DF22DC"/>
<circle cx="49.6543" cy="49.2587" r="41.6447" fill="url(#paint0_linear_33_652)"/>
<circle cx="49.6543" cy="49.2586" r="38.8038" fill="#FDFDFD"/>
<path d="M56.4984 46.8176V46.7765C57.0733 45.832 57.5661 44.7231 58.059 43.4089C59.0857 40.6984 58.8393 36.3862 54.4039 35.3185C52.3505 34.8256 50.1738 34.9488 48.1615 35.3185C46.1902 35.647 44.1778 36.263 42.3298 36.838C42.0012 36.9612 41.8369 37.1665 41.8369 37.5361L41.5905 45.257C41.5905 45.832 42.2066 46.2016 42.7405 45.9141C44.0136 45.1338 45.4099 44.2714 46.8473 43.6143C47.5455 43.3268 48.6132 42.875 49.3935 42.7518C49.7221 42.7108 49.8864 42.7518 49.9685 42.834C49.9685 42.875 49.9685 42.875 50.0096 42.875C50.0506 43.1215 49.8453 43.7785 49.8042 43.9428C49.5989 44.4767 49.4346 44.9285 49.2293 45.3391C49.3114 45.3802 49.3525 45.3802 49.3525 45.4213V45.5034L49.1882 45.5856H49.1471C48.9828 45.832 48.9007 46.0373 48.8186 46.1194C47.5865 47.9675 46.4366 49.6103 45.3278 51.0887V51.1298L42.4119 55.5652C41.7137 56.5919 41.3031 57.5365 41.0156 58.44C40.687 59.631 40.5638 60.9451 41.2209 62.0951C41.8369 63.0396 42.9047 63.4092 44.0136 63.4914C45.6563 63.5735 47.4222 63.4914 49.065 63.3271C51.6112 63.0807 54.1164 62.7111 56.6626 62.3004C57.0733 62.2593 57.2787 62.0129 57.2787 61.6022L57.6483 55.1956C57.6483 54.9492 57.5661 54.7438 57.3608 54.5795C57.1555 54.4153 56.9501 54.3742 56.7037 54.4563C56.0055 54.6206 55.3074 54.8259 54.6092 55.0313C53.1718 55.4009 51.6523 55.6062 50.9952 55.6884L54.8556 49.4049L56.4984 46.8176ZM51.3648 37.0023C51.447 37.0023 51.5291 36.9612 51.6523 36.9201C51.7755 37.0433 51.7755 37.1665 51.6523 37.3719C51.5291 37.1665 51.3648 37.0844 51.1184 37.1255L51.3648 37.0023ZM52.6379 37.2076V37.3719C52.5558 37.4129 52.5558 37.4951 52.5147 37.4951C52.4326 37.454 52.2683 37.2897 52.2683 37.2076H52.6379ZM50.7899 37.8236C50.872 37.8236 50.9541 37.7415 50.9952 37.7004C51.2827 37.7415 51.488 37.7415 51.6523 37.7826L52.3505 37.9058C52.3505 37.9468 52.3094 37.9879 52.2273 38.07C52.1451 38.1111 52.104 38.1522 52.0219 38.2343C51.9398 38.3164 51.9398 38.5218 52.1862 38.645C51.8576 38.7271 51.488 38.645 51.2416 38.5218C51.2416 38.4807 51.2416 38.4397 51.3237 38.3575L51.6112 38.1522C51.6112 37.9058 51.488 37.8236 51.2416 37.8647C50.9952 37.9058 50.7899 37.9058 50.6667 37.9058C50.6667 37.8647 50.7077 37.8236 50.7899 37.8236ZM52.5558 38.8093V38.8914H52.3915V38.8093H52.5558ZM52.0219 39.6306C52.0219 39.6306 52.0219 39.5485 52.063 39.5074C52.104 39.4664 52.1451 39.4253 52.2683 39.4253C52.3505 39.4253 52.3915 39.4253 52.4737 39.4664C52.5147 39.5074 52.6379 39.5485 52.679 39.5896L52.7611 39.9181H52.4737C52.4326 39.9592 52.3915 39.9592 52.3915 39.9592C52.1451 39.9592 52.0219 39.7538 52.0219 39.6306ZM50.3792 39.9181C50.5024 39.9592 50.5434 40.0003 50.5024 40.0413L50.3792 40.0003V39.9181ZM48.449 40.2056C48.4079 40.2056 48.4079 40.2467 48.3668 40.2877H48.2436V40.1235H48.5311L48.449 40.2056ZM51.6523 40.5341C51.6112 40.5341 51.5702 40.5341 51.5702 40.4931C51.5702 40.4109 51.6112 40.4109 51.6112 40.4109C51.6523 40.4109 51.6523 40.3699 51.6523 40.3699C51.6934 40.4109 51.6934 40.452 51.6934 40.4931C51.6934 40.5341 51.6934 40.5341 51.6523 40.5341ZM48.7775 40.452C48.8186 40.452 48.9007 40.4109 49.0239 40.4109C49.0239 40.4109 48.9828 40.452 48.9828 40.4931C48.9828 40.5752 49.0239 40.6163 49.1061 40.6573C49.065 40.6984 49.0239 40.6984 48.9828 40.6984H48.6132L48.5722 40.6573C48.6132 40.4931 48.6954 40.452 48.7775 40.452ZM51.0773 40.8627V40.9448L50.9952 41.027C50.9541 40.9859 50.9131 40.9859 50.9131 40.9448C50.872 40.9448 50.8309 40.9038 50.7899 40.9038V40.7806C50.7899 40.8216 50.8309 40.7806 50.9131 40.7395C51.0363 40.7395 51.0773 40.7806 51.0773 40.8627ZM50.9952 41.068C51.0363 41.1091 51.0773 41.1091 51.1184 41.1091C51.1595 41.1091 51.2005 41.1502 51.2005 41.1912V41.2734C51.1595 41.3144 51.1184 41.3555 51.0773 41.3555C50.9952 41.3555 50.9131 41.3966 50.872 41.4376C50.872 41.4787 50.7899 41.5198 50.7488 41.5198C50.6256 41.5198 50.5434 41.3144 50.5434 41.2734C50.7488 41.2734 50.9131 41.2323 50.9952 41.068ZM48.6954 41.3966C48.6543 41.3966 48.6132 41.3555 48.5722 41.3144C48.5722 41.2323 48.6132 41.2323 48.7364 41.2323C48.8186 41.2323 48.9007 41.2323 48.9828 41.2734L48.8596 41.4376C48.7775 41.4376 48.7364 41.3966 48.6954 41.3966ZM46.7241 41.7662L46.683 41.6019H46.7652C46.8062 41.6019 46.8473 41.5609 46.8884 41.5609C46.9294 41.6019 46.9705 41.643 46.9705 41.7251C46.9294 41.7251 46.8473 41.7662 46.7241 41.7662ZM52.063 42.0126C52.063 42.0126 52.0219 42.0126 52.0219 42.0537C51.9398 42.0126 51.8576 41.9715 51.8166 41.9305L52.0219 41.8483L52.104 41.9305C52.063 41.9715 52.063 41.9715 52.063 42.0126ZM50.9952 42.2179C50.9952 42.1769 51.0363 42.1358 51.1184 42.0947C51.2416 42.1358 51.2827 42.1769 51.2827 42.259C51.2416 42.259 51.1595 42.259 51.1184 42.3001C51.1184 42.3001 51.1184 42.259 51.0773 42.259C51.0363 42.259 50.9952 42.259 50.9952 42.2179ZM50.5024 42.2179C50.5024 42.1769 50.5434 42.1358 50.6256 42.1358C50.6667 42.1358 50.7077 42.1769 50.7899 42.2179H50.6256C50.5845 42.259 50.5434 42.259 50.5024 42.2179ZM49.2293 42.3822H49.0239C49.0239 42.3412 48.9828 42.3412 48.9828 42.3001C48.9828 42.259 49.0239 42.2179 49.065 42.1769H49.1882C49.2703 42.1769 49.3114 42.1769 49.3114 42.259C49.3114 42.3001 49.2703 42.3412 49.2293 42.3822ZM55.1842 44.2714L55.2252 44.3124L55.1842 44.4356L55.1431 44.3946L55.1842 44.2714ZM55.8823 44.7231C55.9234 44.6821 56.0055 44.641 56.0466 44.641C56.2109 44.5588 56.252 44.5178 56.252 44.5178C56.3752 44.5588 56.4573 44.5588 56.4984 44.5588C56.5805 44.5588 56.6216 44.5999 56.7448 44.5999C56.7037 44.6821 56.7037 44.7231 56.7037 44.7231C56.7037 44.641 56.7037 44.7231 56.6216 44.8874C56.4573 45.0517 56.252 45.0927 56.0877 45.0106C55.9645 45.0106 55.8002 44.9285 55.8823 44.7231ZM53.7879 45.3391V45.4213C53.7468 45.5034 53.6236 45.4624 53.6236 45.3802L53.5825 45.3391C53.6236 45.2981 53.7057 45.3391 53.7879 45.3391ZM55.8002 45.7088L55.9234 45.6677C56.0055 45.6677 56.0466 45.7088 56.0466 45.7909C56.0055 45.7909 55.9645 45.832 55.9234 45.832L55.8002 45.9141V45.7088ZM53.9932 46.2427L53.7879 46.1605V46.0784C53.7879 45.9962 53.87 45.9552 53.9932 45.9962L54.1575 46.0373L54.1985 46.1194C54.0753 46.2016 53.9932 46.2016 53.9932 46.2427ZM52.3915 46.0784C52.4737 45.9962 52.5558 45.9962 52.6379 46.0784L52.5147 46.1194L52.3915 46.0784ZM54.7735 46.448C54.6914 46.5712 54.4449 46.5712 54.4039 46.5712C54.486 46.4069 54.4449 46.2837 54.2396 46.1605C54.2396 46.1605 54.2807 46.1194 54.3217 46.1194C54.3628 46.0784 54.4039 46.0373 54.5271 46.0373L54.6914 46.0784V46.1194C54.6503 46.1194 54.6503 46.1605 54.6503 46.1605C54.6503 46.2016 54.6503 46.2427 54.6914 46.2427C54.6914 46.2837 54.6914 46.3248 54.7735 46.3659C54.8146 46.4069 54.8146 46.448 54.7735 46.448ZM56.0055 46.4069V46.5712C55.9645 46.5712 55.9234 46.5712 55.8413 46.6123C55.7591 46.6123 55.7591 46.5712 55.7591 46.448C55.8413 46.4069 55.9234 46.4069 56.0055 46.4069ZM55.677 46.7765C55.7181 46.7765 55.7181 46.7355 55.7591 46.7355C55.7591 46.7765 55.7181 46.8176 55.7181 46.8587C55.677 46.9819 55.6359 47.023 55.6359 47.023C55.5949 47.023 55.5949 47.023 55.5538 46.9819C55.5127 46.9408 55.5538 46.8587 55.677 46.7765ZM52.8843 47.4336L52.7201 47.7211L52.6379 47.7622C52.4737 47.639 52.4326 47.5568 52.4737 47.5158C52.4737 47.4747 52.5147 47.3926 52.5147 47.2694C52.5147 47.3104 52.5558 47.3515 52.6379 47.3515C52.679 47.3926 52.7611 47.3926 52.8433 47.3515C52.8843 47.3926 52.8843 47.4336 52.8843 47.4336ZM51.9808 47.8443C51.9808 47.8033 51.8987 47.8032 51.7344 47.7622L51.8576 47.5568L51.9808 47.639C51.9808 47.68 52.0219 47.7211 52.063 47.7622L51.9808 47.8443ZM53.7879 47.9265C53.7879 47.9265 53.7468 47.9265 53.7468 47.9675C53.7057 47.9675 53.6236 48.0086 53.5825 48.0497C53.3361 47.9675 53.4593 47.8032 53.7057 47.7622C53.7057 47.7622 53.7468 47.8033 53.7879 47.8033C53.8289 47.8033 53.8289 47.8443 53.8289 47.8854L53.7879 47.9265ZM54.9788 47.9675C54.9788 47.8443 55.1842 47.9265 55.2663 47.9675L55.3074 48.0086L55.2252 48.1729C55.1431 48.2139 54.9788 48.1318 54.9788 48.0497V47.9675ZM52.6379 49.0353L52.5558 48.9942C52.5147 49.0353 52.4737 48.9942 52.4326 48.9942C52.2273 48.9121 52.2273 48.6246 52.2683 48.5014C52.3094 48.4603 52.3505 48.4603 52.3505 48.4603C52.3915 48.4193 52.3915 48.3782 52.4326 48.3782C52.4326 48.3371 52.3915 48.2961 52.3094 48.1729H52.3915C52.3915 48.1318 52.4326 48.1318 52.4737 48.1729C52.5969 48.2139 52.679 48.2961 52.679 48.4603V48.6657C52.6379 48.7068 52.6379 48.7478 52.6379 48.7478C52.679 48.7889 52.7201 48.871 52.7611 48.9532C52.7611 48.9942 52.7201 49.0353 52.6379 49.0353ZM52.0219 48.83C51.9398 49.0353 51.6934 49.0353 51.6112 48.9942C51.5291 48.9942 51.447 48.7478 51.488 48.7068C51.5291 48.6246 51.6112 48.5836 51.7755 48.5425C51.9808 48.6657 52.104 48.7889 52.0219 48.83ZM53.4182 49.5281C53.3772 49.5692 53.3361 49.5692 53.3361 49.6103L53.1718 49.5692V49.4049C53.254 49.3639 53.3361 49.3639 53.4593 49.4049C53.4593 49.446 53.4593 49.4871 53.4182 49.5281ZM53.0076 49.6513L52.8433 49.5692V49.5281L53.0486 49.6103L53.0076 49.6513ZM52.1451 50.0209C52.1451 49.9799 52.1451 49.9388 52.2273 49.8567L52.3505 49.7745C52.3505 49.8156 52.3915 49.8567 52.4737 49.8977C52.4326 49.9388 52.4326 49.9799 52.4326 49.9799C52.4326 50.0209 52.3915 50.1442 52.2683 50.1442L52.1451 50.062V50.0209ZM51.8166 50.3084C51.8166 50.3495 51.7755 50.3906 51.7755 50.3906C51.6934 50.4316 51.5702 50.3906 51.5702 50.3495V50.3084C51.6112 50.3084 51.6112 50.3084 51.6112 50.2674H51.6523C51.6934 50.2674 51.6934 50.2674 51.7344 50.3084H51.8166ZM52.3505 50.5548C52.3505 50.4727 52.3094 50.3906 52.2683 50.3495H52.4737C52.5147 50.4316 52.4737 50.4727 52.3505 50.5548ZM51.2416 50.8423L51.3648 50.8834C51.3648 51.0066 51.3648 51.0887 51.4059 51.1298L51.3237 51.2119C51.2416 51.2119 50.9541 51.1298 50.9541 51.0887C51.0363 51.0066 51.0773 50.9655 51.2416 50.8423ZM50.9131 51.0887V51.1298H50.872C50.872 51.1709 50.872 51.1709 50.8309 51.1709C50.8309 51.1298 50.7488 51.1298 50.6667 51.1298C50.6667 51.0477 50.6667 50.9655 50.7077 50.9655H50.872C50.9131 51.0066 50.9131 51.0477 50.9131 51.0887ZM52.8433 51.3351C52.8022 51.3351 52.8022 51.3351 52.8433 51.2941C52.8843 51.2941 52.9254 51.253 52.9254 51.3762C52.9254 51.3762 52.8843 51.3762 52.8433 51.3351ZM51.1184 52.3618C51.1184 52.4029 51.0773 52.444 51.0363 52.4851C50.9541 52.5261 50.9131 52.5672 50.8309 52.6493H50.7077C50.6256 52.5261 50.6256 52.444 50.6667 52.3618C50.7077 52.2797 50.7488 52.1976 50.7899 52.1565C50.872 52.0333 50.872 51.9512 50.9952 51.869C51.0773 51.828 51.1184 51.7458 51.1184 51.6637V51.4994C51.2005 51.4994 51.2416 51.4583 51.2827 51.4994H51.4059V51.5405L51.2416 51.869C51.2005 51.9922 51.1595 52.1565 51.1184 52.2386V52.2797C51.1595 52.2797 51.1595 52.3208 51.1184 52.3618ZM52.0219 51.9922C51.9808 52.0333 51.9398 52.0744 51.8576 52.0744C51.7755 52.0744 51.6934 52.0333 51.6934 52.0333C51.6523 52.0333 51.6112 51.9922 51.6112 51.9922L51.5702 51.9512L51.7344 51.7458C51.7755 51.7047 51.8166 51.7047 51.8576 51.7047C51.9398 51.7458 51.9808 51.828 52.0219 51.869C52.063 51.9101 52.063 51.9512 52.0219 51.9922ZM49.9274 52.2386L50.0917 52.0744C50.1738 52.1976 50.2149 52.2386 50.2149 52.2797L50.1738 52.3208C50.1328 52.3208 50.0917 52.3618 50.1328 52.3618C50.1738 52.4029 50.2149 52.4029 50.256 52.4029C50.2149 52.444 50.2149 52.485 50.2149 52.5672L49.9274 52.444C49.9274 52.4029 49.9274 52.3618 49.8864 52.3618C49.8864 52.3208 49.8864 52.2797 49.9274 52.2386ZM49.1882 52.444H49.3114L49.4346 52.5672C49.3525 52.6083 49.2703 52.6083 49.1882 52.6083L49.1471 52.5672L49.1882 52.444ZM50.7077 52.9368H50.6256L50.7488 52.7725L50.7077 52.9368ZM49.5989 53.2653C49.5167 53.2243 49.3935 53.2654 49.3114 53.3475C49.1882 53.3064 49.1471 53.2243 49.1882 53.1011L49.2293 53.06C49.2703 53.0189 49.3114 52.9368 49.3935 52.8957C49.4346 52.8957 49.4757 52.9779 49.5167 53.06C49.5578 53.1832 49.5578 53.2243 49.5989 53.2653ZM47.7919 53.4707C47.8329 53.4707 47.874 53.4707 47.9561 53.5118L47.874 53.5528C47.874 53.5528 47.8329 53.5939 47.7508 53.5939L47.7919 53.4707ZM48.1615 53.5528L48.2436 53.5118C48.2436 53.5939 48.2436 53.635 48.2025 53.676C48.1204 53.635 48.1204 53.5939 48.1615 53.5528ZM51.6523 53.8403C51.6523 53.9224 51.6112 53.9635 51.5702 54.0046C51.447 54.0046 51.4059 53.9635 51.4059 53.8403V53.7992L51.447 53.7582H51.6112L51.6523 53.7992V53.8403ZM48.9828 54.1689C49.0239 54.1278 49.065 54.0867 49.1471 54.0867L49.3935 54.1689C49.4346 54.1689 49.4346 54.2099 49.4346 54.251V54.3742L49.3935 54.4563C49.1882 54.4974 48.8186 54.4153 48.9828 54.1689ZM48.8596 54.5385L48.9828 54.6206V54.6617L48.8596 54.6206V54.5385ZM54.486 57.1258C54.5271 57.1668 54.5271 57.2079 54.5271 57.2901L54.4039 57.249C54.4039 57.1668 54.4449 57.1258 54.486 57.1258ZM54.5271 57.5775V57.7418H54.4449C54.4449 57.7418 54.4039 57.7007 54.4039 57.5775H54.5271ZM47.6687 57.8239C47.6276 57.8239 47.6276 57.865 47.6276 57.9061C47.5044 57.865 47.3812 57.8239 47.299 57.7418C47.3401 57.6597 47.4633 57.6597 47.5044 57.6597H47.5865C47.6276 57.6597 47.6687 57.7007 47.6687 57.7418V57.8239ZM53.0076 58.2757C53.0486 58.2346 53.0897 58.1936 53.1308 58.1936L53.1718 58.2346H53.2129L53.0897 58.3989H52.8843C52.9665 58.2757 53.0076 58.2346 53.0076 58.2757ZM44.5475 58.5632H44.301C44.301 58.5221 44.3421 58.481 44.3832 58.44H44.5885C44.5885 58.481 44.5885 58.481 44.6296 58.481L44.5475 58.5632ZM50.5024 58.5221C50.4613 58.5221 50.4202 58.5632 50.4202 58.5632L50.2149 58.5221L50.256 58.44H50.3792L50.5024 58.481V58.5221ZM50.0096 58.6042C49.9685 58.6453 49.9274 58.6864 49.8042 58.7685V58.9328C49.8453 58.9739 49.8453 58.9739 49.8864 58.9739C49.9274 58.9739 49.9685 58.9739 50.0096 59.056H49.9274C49.7631 59.056 49.7221 59.0149 49.7221 58.9328C49.7221 58.8917 49.681 58.8096 49.5989 58.7274V58.6042C49.6399 58.6042 49.681 58.5632 49.7631 58.5632C49.8042 58.5632 49.8864 58.6042 50.0096 58.6042ZM56.1698 58.6864L56.2109 58.7685V58.8096L56.0877 58.8917C56.0466 58.8507 56.0055 58.8096 56.0055 58.7685C56.0055 58.7274 56.0466 58.6864 56.1698 58.6864ZM55.061 58.8507H55.102L55.061 58.9328L54.9788 58.8917L55.061 58.8507ZM45.2867 59.1792C45.2046 59.2613 45.1224 59.2613 45.0813 59.2203C44.9992 59.2203 44.9581 59.2203 44.9171 59.2613L44.7117 59.2203V59.0971C44.7528 59.0971 44.7939 59.0971 44.876 59.056C44.9581 59.0149 44.9992 59.0149 45.0403 59.0149C45.1224 59.0149 45.2046 59.056 45.2867 59.0971V59.1792ZM51.9808 59.0971V59.056H52.2683C52.3094 59.0149 52.4737 59.0971 52.5558 59.1792C52.5558 59.2203 52.5147 59.2203 52.5147 59.2613H52.3505C52.3094 59.3024 52.2683 59.3024 52.2273 59.3024C52.0219 59.3024 51.9398 59.2203 51.9398 59.1381C51.9398 59.1381 51.9398 59.0971 51.9808 59.0971ZM56.0466 59.1381C56.0466 59.1381 56.0877 59.0971 56.1287 59.0971L56.1698 59.056C56.2109 59.056 56.252 59.056 56.252 59.0971C56.293 59.0971 56.3341 59.1381 56.3752 59.1381V59.2203C56.293 59.2613 56.2109 59.2613 56.2109 59.2613C56.1287 59.2613 56.0466 59.2613 55.9645 59.1792C56.0055 59.1792 56.0055 59.1381 56.0466 59.1381ZM42.494 59.2203C42.453 59.2203 42.3708 59.2203 42.3298 59.2613C42.3298 59.2613 42.2887 59.2203 42.2887 59.1792C42.2887 59.1381 42.2887 59.0971 42.3298 59.0971H42.5762C42.5762 59.1792 42.5351 59.1792 42.494 59.2203ZM55.5127 59.1381H55.5538V59.0971C55.6359 59.0971 55.6359 59.1381 55.5949 59.2613C55.5949 59.3024 55.5949 59.3024 55.5538 59.2613C55.5127 59.2203 55.5127 59.2203 55.5127 59.1792V59.1381ZM41.6727 59.3024C41.6316 59.3435 41.5905 59.3435 41.5905 59.3435V59.2613H41.7137L41.6727 59.3024ZM47.7508 60.0827C47.7919 60.0416 47.874 59.9595 47.9561 59.9184C48.0793 59.8774 48.1204 59.8774 48.1615 59.8774C48.2025 59.8774 48.2847 59.8774 48.3258 59.9184C48.449 59.9595 48.49 59.9595 48.5722 59.9595H49.0239C49.1061 59.9184 49.1882 59.9184 49.3114 59.9184H49.5167C49.6399 59.9184 50.0096 60.0006 50.0506 60.0827H47.7508ZM53.4182 59.8774H53.5825C53.6236 59.8774 53.7057 59.8774 53.7879 59.9184C53.9521 59.9595 54.1164 60.0006 54.2807 60.0006H54.486C54.5271 60.0006 54.6092 59.9595 54.7735 59.9595C54.9378 59.9595 54.9788 59.9184 55.0199 59.9184C55.3074 59.9184 56.1698 60.0006 56.2109 60.0827H53.3361C53.3772 59.9595 53.3772 59.8774 53.4182 59.8774Z" fill="#040404"/>
<defs>
<linearGradient id="paint0_linear_33_652" x1="80.6988" y1="86.8867" x2="19.9329" y2="-0.139821" gradientUnits="userSpaceOnUse">
<stop stop-color="#FDFDFD"/>
<stop offset="1" stop-color="#FDFDFD" stop-opacity="0"/>
</linearGradient>
</defs>
</svg>
