<svg width="99" height="99" viewBox="0 0 99 99" fill="none" xmlns="http://www.w3.org/2000/svg">
<circle cx="50.2579" cy="50.2937" r="48.6981" fill="#040404"/>
<circle cx="49.2268" cy="49.2603" r="48.6981" fill="#AE00AB"/>
<circle cx="49.2267" cy="49.2605" r="41.6126" fill="url(#paint0_linear_44_1745)"/>
<circle cx="49.2267" cy="49.2605" r="38.7739" fill="#FDFDFD"/>
<path d="M57.8308 52.7483C57.8308 52.7483 57.8308 52.7073 57.7898 52.6662C57.3794 50.6144 56.1072 48.9729 54.4658 47.7418C56.1483 45.8951 57.4204 44.1306 57.7487 41.7504H57.5846C57.5435 41.6684 57.5025 41.6273 57.5025 41.5863C57.5025 41.4632 57.5846 41.4221 57.7487 41.4221H57.7898C57.7898 41.258 57.8308 41.1349 57.8308 41.0528C57.8718 39.3703 57.5846 37.6878 56.3124 36.4977C56.2714 36.4977 56.2714 36.4977 56.2714 36.4567C54.2606 34.8152 50.6083 35.2256 48.2282 35.5949L42.7703 36.5388C42.401 36.6208 42.1958 36.826 42.1547 37.2364L41.5802 44.0485C41.5392 44.3357 41.6623 44.5409 41.8675 44.7461C41.9085 44.7872 41.9496 44.7872 41.9906 44.7872V42.2018C42.0316 42.2429 42.0727 42.2839 42.1137 42.366C42.1547 42.4891 42.1547 42.5301 42.1547 42.5712V43.1457C42.1137 43.1867 42.1137 43.2688 42.1137 43.2688V43.556C42.1137 43.6381 42.1137 43.7202 42.1547 43.8023V44.8692C42.2779 44.9103 42.442 44.9103 42.6061 44.8282C43.3038 44.5409 44.1655 44.2537 45.1094 43.9254C45.8891 43.6792 46.8329 43.3509 47.6537 43.3509C47.9409 43.3509 48.1461 43.5971 48.1872 44.0485L48.2282 44.0895C48.3923 44.7872 48.1461 45.4848 47.5716 46.2234H47.5306C47.4075 46.3876 47.1612 46.5928 46.874 46.88C46.5457 47.1262 46.0943 47.4956 45.4787 47.947C45.0273 48.2753 45.1094 48.9729 45.6018 49.2191C45.6429 49.2191 45.8891 49.3422 46.2995 49.5885C46.2995 49.5474 46.2995 49.5064 46.3405 49.4653C46.3815 49.3422 46.4226 49.3012 46.4226 49.3012C46.6688 49.3833 46.6688 49.6705 46.6277 49.7526C47.0381 49.9988 47.4485 50.245 47.8999 50.5733L48.5154 51.0658C48.5565 51.0658 48.5975 51.0247 48.5975 51.0247C48.7206 51.1068 48.7206 51.1479 48.6385 51.2299C48.7206 51.353 48.8027 51.4351 48.8437 51.5582C49.2131 52.2969 49.2951 53.0355 49.0489 53.7742C48.8848 54.1846 48.6386 54.4718 48.3103 54.5539H48.2692C47.5716 54.7591 46.874 54.8822 46.2584 54.8822C45.3966 54.8822 44.5349 54.8001 43.591 54.677C43.591 54.677 43.591 54.7181 43.55 54.7181H43.4269C43.3858 54.677 43.3858 54.677 43.4269 54.636C42.8934 54.5949 42.2368 54.4718 41.4161 54.3077C40.8826 54.2256 40.4722 54.636 40.5543 55.1695L41.8264 62.2688C41.8675 62.6382 42.1137 62.8433 42.483 62.8844L46.0943 63.2127C50.0748 63.541 54.7941 62.1457 56.8049 58.4114C57.7487 56.7699 58.077 54.8412 57.8308 52.7483ZM49.0079 35.8411C49.09 35.8822 49.0489 35.9232 48.9258 35.9642C48.8437 36.0053 48.7617 36.0053 48.7206 35.9642C48.8848 35.8822 48.9668 35.8411 49.0079 35.8411ZM51.6342 36.2105L51.9215 36.3746C51.8394 36.4567 51.7984 36.4977 51.7984 36.5388C51.7573 36.6208 51.6753 36.6208 51.5522 36.6208C51.4291 36.6208 51.347 36.6208 51.2649 36.5388C51.2239 36.4567 51.1008 36.3746 51.0187 36.3336L51.6342 36.2105ZM46.2174 36.9491C46.6688 36.9491 46.9971 36.9902 47.2433 36.9902C47.5716 37.0312 47.982 37.0312 48.4334 36.9902L48.5565 37.1133L48.7206 36.9902L48.8437 37.1133C49.0079 36.9491 49.131 36.9902 49.3772 37.0312C49.5824 37.1133 49.7055 37.1543 49.9107 37.1133V37.2774H47.4895C47.2433 37.1953 46.956 37.1543 46.7098 37.1543C46.4226 37.1543 46.1353 37.1543 45.8891 37.1953C45.766 37.2364 45.6018 37.2364 45.4787 37.2774L45.0684 37.3185C44.7811 37.3595 44.4938 37.3185 44.1655 37.2774C44.9042 37.0312 45.5198 36.9491 46.2174 36.9491ZM50.3621 37.1133V37.2774L50.239 37.1133H50.3621ZM53.0705 37.1133C53.3578 37.1133 53.7682 37.1133 54.3016 37.1543C54.671 37.1953 55.0813 37.3185 55.4507 37.4416L51.1008 37.1543H51.7984C52.0036 37.1543 52.2088 37.1543 52.455 37.1133H53.0705ZM47.9409 38.2213C47.4074 38.2623 46.915 38.2623 46.4226 38.2623C45.3966 38.2623 44.4938 38.3033 43.591 38.4265C43.6731 38.2623 43.7552 38.1802 43.9193 38.1392C44.0424 38.0982 44.2066 38.0982 44.3707 38.1392H44.8632C45.0273 38.1392 45.1504 38.0571 45.2735 37.893C45.5608 38.2623 45.9712 38.2623 46.3405 38.1392C46.874 38.0571 47.1202 38.0161 47.4895 38.2213C47.9409 38.0982 48.3923 38.0571 48.9258 38.0571C49.4183 38.0982 49.9107 38.0982 50.3621 38.0571C50.6494 37.8519 50.8545 37.893 51.2649 37.975C51.5522 38.0982 51.8394 38.1802 52.1677 37.893L52.2908 38.0571L55.4507 37.893H55.4917C53.645 38.2213 51.5111 38.2213 49.4593 38.2213H47.9409ZM56.3535 41.8735H56.4766V41.9967H56.3124C56.3124 41.9556 56.3535 41.8735 56.3535 41.8735ZM54.5068 48.6036H53.9323V48.4805H54.5068V48.6036ZM46.874 49.5474C46.7919 49.5474 46.7098 49.1371 46.7098 49.055V48.7267C46.6278 48.6446 46.6277 48.5625 46.6688 48.5625C46.7098 48.5625 46.7509 48.6036 46.7919 48.6446C46.8329 48.7267 46.915 48.9729 46.956 49.0139C46.956 49.096 46.9971 49.096 46.9971 49.1371C47.0381 49.2602 47.0792 49.2602 47.1202 49.3012C47.1202 49.3422 47.1202 49.3422 47.0792 49.3833L46.956 49.5064C46.956 49.5064 46.915 49.5474 46.874 49.5474ZM49.5003 49.096C49.3772 49.096 49.131 48.9729 49.0489 48.8908C49.09 48.8498 49.131 48.8088 49.172 48.8088C49.172 48.7677 49.2131 48.7677 49.2951 48.7677H49.7055C49.9107 48.7267 50.0338 48.7267 50.0748 48.7677C49.9107 48.8088 49.7465 48.8088 49.6645 48.8088C49.5414 48.8498 49.5003 48.9319 49.5003 49.096ZM51.4291 48.9319V48.8088H51.7573V48.9319H51.4291ZM50.6494 49.0139L50.6904 48.8498C50.8135 48.8908 50.8956 48.9319 51.0187 48.9319C51.1418 48.9319 51.2649 48.9319 51.3059 48.9729L51.1418 49.096L51.2649 49.1781C51.3059 49.2602 51.347 49.2602 51.388 49.3012C51.3059 49.3012 51.2649 49.3422 51.1828 49.4653C50.9777 49.4653 50.8956 49.4243 50.9366 49.3422V49.096C50.8956 49.0139 50.7725 49.0139 50.6494 49.0139ZM48.8437 48.9319L49.09 49.0139L49.0079 49.096L48.8437 48.9729V48.9319ZM49.7055 49.3012C49.7055 49.2191 49.7465 49.1371 49.8697 49.055L50.0748 49.1371C50.1569 49.2191 50.239 49.2602 50.28 49.2602C50.1159 49.3422 49.9107 49.3422 49.7055 49.3012ZM51.347 49.7116V49.6705C51.347 49.6295 51.388 49.5885 51.4701 49.5885C51.5522 49.5885 51.5932 49.5885 51.5932 49.6295H51.6342C51.7163 49.5474 51.7573 49.4653 51.7573 49.4243C51.7573 49.3833 51.8394 49.3422 51.9625 49.2602V49.8757C51.7573 49.9167 51.4701 49.8347 51.3059 49.7526L51.347 49.7116ZM49.2131 49.7116H48.8848V49.5064C48.8848 49.4243 49.0079 49.3422 49.131 49.3422C49.131 49.4653 49.09 49.6705 49.3772 49.6705C49.3362 49.6705 49.2951 49.6705 49.2131 49.7116ZM50.3621 49.6705C50.4442 49.5885 50.4852 49.4653 50.4852 49.3422C50.5262 49.3422 50.5673 49.3422 50.6494 49.3833C50.6494 49.3833 50.6904 49.4243 50.7725 49.4243C50.7725 49.5064 50.7314 49.5885 50.5673 49.6705H50.3621ZM47.3254 49.5885H47.0792V49.5474C47.0792 49.5474 47.0792 49.5064 47.0381 49.4653H47.0792C47.1202 49.4653 47.1612 49.4653 47.1612 49.4243C47.2023 49.4243 47.2433 49.4243 47.3254 49.3833V49.5885ZM47.982 49.4243L48.1461 49.4653L48.064 49.5474H47.8999L47.982 49.4243ZM50.9366 49.7116V49.6295L51.1008 49.5885L51.1418 49.6295L50.9366 49.7116ZM49.0489 50.0809H48.7206V50.0399C48.6796 49.9988 48.6386 49.9988 48.5975 49.9167C48.5154 49.8347 48.4334 49.7936 48.4334 49.7526C48.4744 49.7526 48.5565 49.7526 48.6385 49.8347C48.7206 49.8757 48.8027 49.8347 48.9258 49.7526C48.9258 49.8347 48.9258 49.8757 48.8848 49.9167C48.8848 49.9578 48.8437 49.9988 48.8437 49.9988H49.0489V50.0809ZM50.3621 50.2861H50.1159C50.1159 50.2861 49.9517 50.0809 50.0748 49.8757H50.28C50.3211 49.9167 50.3621 49.9578 50.3621 49.9988C50.3211 50.0399 50.3211 50.0809 50.3211 50.163C50.3621 50.163 50.3621 50.204 50.3621 50.2861ZM50.8135 50.0399C50.7725 50.0809 50.7314 50.0809 50.6494 50.0809V50.0399C50.6494 50.0399 50.6494 49.9988 50.6083 49.9578C50.6083 49.9578 50.6494 49.9578 50.7314 49.9167C50.7725 49.8757 50.8135 49.8757 50.8135 49.8757C50.8956 49.9167 50.9366 49.9988 50.9366 50.0399H50.8135ZM47.7768 50.3682C47.7357 50.3682 47.6947 50.3271 47.6126 50.2861C47.5716 50.245 47.4895 50.204 47.4074 50.163L47.6537 49.9988C47.6947 49.9988 47.7357 50.0399 47.7768 50.0399H47.8999C47.8589 50.204 47.8178 50.2861 47.7768 50.3682ZM48.3923 50.4092C48.3513 50.4092 48.3513 50.3682 48.3103 50.3682C48.2282 50.3271 48.1871 50.2861 48.1461 50.2861C48.2692 50.204 48.3103 50.204 48.3923 50.204C48.5154 50.245 48.5154 50.2861 48.3923 50.4092ZM50.4031 50.5733C50.3211 50.5323 50.28 50.4092 50.28 50.3271C50.3211 50.2861 50.4031 50.2861 50.4852 50.2861C50.5262 50.2861 50.6494 50.3271 50.7725 50.3271L50.4031 50.5733ZM48.1051 50.5733H47.9409V50.4092H48.1051V50.5733ZM50.0748 51.1479C50.1979 51.1889 50.198 51.271 50.1569 51.353C50.0748 51.353 50.0338 51.312 49.9517 51.312C49.8286 51.271 49.7876 51.2299 49.7465 51.1479H50.0748ZM50.6494 51.5582H50.5673C50.5673 51.5582 50.5262 51.4351 50.5262 51.2299L50.5673 51.1479H50.6494V51.1889C50.6904 51.271 50.6904 51.312 50.6904 51.312C50.6904 51.312 50.7314 51.353 50.7314 51.4351C50.7314 51.5172 50.6904 51.5582 50.6494 51.5582ZM49.7055 51.8044H49.5824V51.5172L49.6234 51.5582H49.6645L49.7465 51.6403C49.7876 51.6813 49.8286 51.7224 49.8286 51.7634C49.7876 51.7634 49.7465 51.8044 49.7055 51.8044ZM51.5522 52.2148H51.4291C51.4291 52.0917 51.5111 52.0507 51.6342 51.9686L51.7573 52.0507C51.7573 52.0507 51.7573 52.0917 51.7984 52.0917V52.1738H51.6342C51.6342 52.1738 51.5932 52.1738 51.5522 52.2148ZM51.1828 52.6252L51.5111 52.7073V52.7893L51.1828 52.7483V52.6252ZM52.7422 53.569L52.8243 53.3638H53.0705C53.1116 53.4049 53.1116 53.4049 53.1526 53.4049V53.4459H53.1936C53.2347 53.4459 53.2347 53.4869 53.2347 53.528C53.2347 53.6511 53.1526 53.7332 53.0295 53.7332C52.8243 53.7332 52.7422 53.6511 52.7422 53.569ZM51.6342 53.4459L51.5522 53.569L51.388 53.528L51.5111 53.4049L51.6342 53.4459ZM51.7984 54.4718H52.0856C52.0856 54.4718 52.1267 54.5539 52.2088 54.5949C52.2088 54.5949 52.2088 54.636 52.1677 54.636V54.677C52.1267 54.677 52.1267 54.7181 52.1267 54.7591H51.8805C51.8394 54.7591 51.8394 54.7591 51.8394 54.7181H51.7984C51.7573 54.7181 51.7573 54.677 51.7573 54.677L51.7984 54.4718ZM53.5219 54.8001C53.4809 54.8001 53.4399 54.8412 53.3578 54.8412C53.3578 54.8001 53.3578 54.7591 53.3167 54.677C53.3167 54.636 53.3578 54.5949 53.3988 54.5539C53.4399 54.5539 53.5219 54.5949 53.5219 54.5949C53.5219 54.5949 53.604 54.5949 53.7271 54.636L53.5219 54.8001ZM52.7422 55.0874C52.7422 55.1284 52.7012 55.1284 52.7012 55.1284L52.6602 55.1695H52.6191L52.537 55.2515C52.496 55.2926 52.496 55.2926 52.455 55.2926C52.3729 55.2515 52.1267 55.1695 52.1677 55.0053C52.2498 54.9643 52.3729 54.9643 52.496 54.9643L52.5781 54.9232H52.6191C52.6602 54.8822 52.6602 54.8822 52.7422 54.8822V55.0874ZM52.537 56.2775V56.4006H52.3319C52.3319 56.4416 52.3319 56.4416 52.2908 56.4416C52.2498 56.4416 52.1677 56.4006 52.0856 56.3595H52.0036V56.3185C51.8394 56.3185 51.7573 56.2775 51.7573 56.2775C51.6342 56.2775 51.5932 56.2775 51.5111 56.2364C51.4701 56.2364 51.4291 56.2364 51.4291 56.1954V56.1543L51.388 56.1133V55.9902C51.388 55.9492 51.4291 55.9492 51.5111 55.9492C51.5522 55.9492 51.6753 55.9492 51.7984 55.9902C51.8805 56.0312 51.9215 56.0312 51.9625 56.0312L52.0036 56.0723C52.0446 56.0723 52.0856 56.0312 52.1267 55.9902L52.2088 55.9492V55.9081C52.2498 55.9081 52.2498 55.9081 52.2908 55.8671C52.496 56.0312 52.5781 56.1133 52.5781 56.1954C52.5781 56.2364 52.5781 56.2775 52.537 56.2775ZM53.3988 56.1133V56.1954H53.0705C53.1526 56.1543 53.1936 56.1133 53.1936 55.9902H53.4399C53.4399 56.0723 53.4399 56.1133 53.3988 56.1133ZM53.1526 56.2775V56.5237H52.9885V56.2775H53.1526ZM51.3059 56.9751V56.852C51.3059 56.8109 51.388 56.7289 51.5111 56.6878L51.6342 56.6057C51.7163 56.6057 51.7573 56.5647 51.7984 56.5647H52.1677V56.6878C52.1677 56.7289 52.1267 56.7699 52.0036 56.852C51.8805 56.934 51.7984 56.9751 51.7573 56.9751H51.3059ZM53.1526 57.3034L53.0295 57.3444C52.9064 57.2213 52.8653 57.1392 52.8653 57.0571C52.8653 56.934 52.9064 56.852 53.0705 56.8109C53.1936 56.893 53.3578 57.0572 53.3578 57.0982C53.3578 57.1803 53.2757 57.2623 53.1526 57.3034ZM52.2088 57.0571V57.2213C52.0856 57.2623 51.9215 57.2623 51.7984 57.2213V57.0982L51.9625 56.9751H52.0856C52.1677 56.9751 52.2088 57.0161 52.2088 57.0571ZM51.388 57.7548V57.7958C51.347 57.8368 51.3059 57.8368 51.2239 57.8368V57.6727C51.2239 57.6317 51.2649 57.5906 51.3059 57.5496C51.347 57.5906 51.388 57.5906 51.388 57.5906V57.6317C51.388 57.6727 51.4291 57.7137 51.4291 57.7548H51.388ZM50.0748 58.2472H50.1159C50.1159 58.2472 50.1159 58.2062 50.1569 58.2062C50.198 58.2062 50.28 58.2883 50.28 58.4524C50.1569 58.4524 50.0748 58.4114 49.9517 58.3703L50.0748 58.2472ZM51.7984 58.2472L52.2088 58.2062V58.2472C52.2088 58.2883 52.2498 58.3293 52.2498 58.3703L51.7984 58.2472ZM50.4852 58.8628H50.3211L50.4031 58.6165C50.5262 58.6165 50.6494 58.6576 50.7314 58.7397C50.7314 58.8217 50.6083 58.8628 50.4852 58.8628ZM49.7876 58.8628H49.6234V58.6986H49.7876V58.8628ZM41.8264 59.3142C41.9085 59.3142 41.8264 59.1911 41.7444 59.15C41.9085 58.9448 42.0316 59.0269 42.3189 59.1911C42.2779 59.2321 42.1958 59.2731 42.0727 59.2731C41.9496 59.3142 41.9085 59.3142 41.8264 59.3142ZM42.7293 59.068L42.8113 59.109C42.8524 59.109 42.8524 59.15 42.8524 59.15V59.1911C42.8524 59.1911 42.8113 59.2321 42.7703 59.2321C42.6472 59.2731 42.6472 59.2321 42.6472 59.109L42.7293 59.068ZM50.28 59.6835C50.239 59.6014 50.239 59.5604 50.239 59.5194C50.239 59.4783 50.239 59.4783 50.28 59.4783H50.5673L50.28 59.6835ZM43.0575 59.6014C43.0986 59.6014 43.1807 59.6835 43.2217 59.7656C42.9755 59.8066 42.8934 59.7656 42.8934 59.7245L42.8113 59.8066H42.7293L42.6882 59.7656L42.8113 59.6014C42.8524 59.6014 42.8934 59.6014 42.9344 59.5604C42.9755 59.5604 43.0165 59.5604 43.0575 59.6014ZM42.3189 60.1349L42.1137 60.0939V60.0118L42.3599 60.0939L42.3189 60.1349ZM43.8783 60.6273H43.8373C43.7552 60.6273 43.7141 60.5863 43.6321 60.5863L43.4269 60.5042L42.9755 60.3811C42.9344 60.3811 42.9344 60.3811 42.9344 60.4222C42.8934 60.4632 42.8113 60.4222 42.6882 60.3401C42.6472 60.2991 42.6061 60.258 42.483 60.1759V60.0939C42.6061 60.0939 42.7293 60.0528 42.8524 60.0939C43.0576 60.1349 43.1396 60.217 43.0986 60.1759C43.2217 60.217 43.3038 60.258 43.3448 60.258C43.3858 60.2991 43.4269 60.2991 43.4269 60.3401C43.4269 60.4222 43.55 60.4632 43.7141 60.4632C43.7552 60.4222 43.8372 60.4632 43.9193 60.4632V60.5863C43.8783 60.5863 43.8783 60.6273 43.8783 60.6273ZM45.3966 60.217C45.3966 60.217 45.3556 60.217 45.3556 60.258C45.1915 60.258 45.3146 60.0939 45.3556 60.0939H45.3966C45.3966 60.1349 45.3966 60.1349 45.4377 60.1349C45.4377 60.1759 45.4377 60.217 45.3966 60.217ZM44.3297 60.2991C44.3297 60.2991 44.3297 60.258 44.3707 60.217V60.1349H44.4528C44.4938 60.1759 44.4938 60.1759 44.6169 60.1759L44.5349 60.3401L44.4938 60.3811L44.3297 60.3401V60.2991ZM44.6169 60.6273H44.2476L44.2887 60.4632C44.3707 60.2991 44.4528 60.3811 44.5349 60.4632C44.5349 60.5042 44.6169 60.5042 44.658 60.5863L44.6169 60.6273ZM42.9344 60.5863V60.5453C42.8934 60.5453 42.8934 60.5453 42.8934 60.5042L42.9755 60.4632C42.9755 60.5042 42.9755 60.5453 42.9344 60.5863ZM45.2735 60.7094C45.1504 60.7094 45.0684 60.6684 45.0273 60.5863H45.3556C45.3146 60.5863 45.2735 60.6273 45.2735 60.7094ZM43.591 60.9556C43.55 60.9967 43.4679 61.0377 43.4269 61.0377C43.2217 61.0377 43.1807 61.0377 43.1807 60.8736C43.1807 60.8325 43.2217 60.7505 43.2627 60.7505H43.3038L43.591 60.8325C43.591 60.8325 43.591 60.8736 43.6321 60.8736C43.6321 60.8736 43.6321 60.9146 43.591 60.9556ZM44.0014 61.6943H43.9193L43.9604 61.6533V61.6122C43.9604 61.6122 43.9604 61.5712 44.0014 61.5712L44.0835 61.6533C44.0424 61.6533 44.0014 61.6943 44.0014 61.6943Z" fill="#040404"/>
<defs>
<linearGradient id="paint0_linear_44_1745" x1="80.2473" y1="86.8594" x2="19.5283" y2="-0.100037" gradientUnits="userSpaceOnUse">
<stop stop-color="#FDFDFD"/>
<stop offset="1" stop-color="#FDFDFD" stop-opacity="0"/>
</linearGradient>
</defs>
</svg>
