<svg width="99" height="99" viewBox="0 0 99 99" fill="none" xmlns="http://www.w3.org/2000/svg">
<circle cx="50.1238" cy="49.8816" r="48.7581" fill="#040404"/>
<circle cx="49.0865" cy="48.847" r="48.7581" fill="#950092"/>
<circle cx="49.0864" cy="48.8469" r="41.6639" fill="url(#paint0_linear_44_1685)"/>
<circle cx="49.0865" cy="48.847" r="38.8217" fill="#FDFDFD"/>
<path d="M57.9401 50.35H55.5981L56.3787 38.147C56.5431 35.9694 55.5981 34.4081 53.2561 34.5314L48.6132 34.7779C48.2845 34.7779 48.0791 34.9422 47.9558 35.1888L43.5184 44.2691C42.861 45.7071 42.1625 47.2273 41.4229 48.953C41.0121 49.9391 40.6012 50.9252 40.2725 51.8702C40.026 52.5276 39.7795 53.2261 39.6151 53.8424V54.0068C39.574 54.0479 39.574 54.0478 39.574 54.13C39.6562 54.1711 39.6973 54.1711 39.7794 54.1711V54.2944L39.7384 54.3355H39.5329C39.4508 54.9929 39.4918 55.6503 39.6151 56.3077C39.9849 57.869 41.2997 58.3209 42.7788 58.1566L48.7776 57.6225L48.6954 62.3886C48.6954 62.8405 49.0241 63.1692 49.4761 63.1692H54.4476C54.9407 63.1692 55.1872 62.9227 55.1872 62.4297L55.3926 57.1705L57.7757 57.0061C58.1866 56.9651 58.4331 56.7185 58.4742 56.2666L58.6796 51.1306C58.7207 50.7609 58.3509 50.35 57.9401 50.35ZM52.1878 38.599H52.3111C52.3111 38.6401 52.3111 38.6812 52.27 38.6812V38.8044H52.0235L51.9413 38.5579C52.0646 38.5579 52.1878 38.599 52.1878 38.599ZM51.6948 38.7223C51.8181 38.7223 51.8591 38.7223 51.9002 38.7634C51.9413 38.8455 51.9824 38.8455 52.0646 38.8866C51.8591 38.9277 51.7359 38.9688 51.6537 38.9688L51.6948 38.7223ZM47.0108 38.9688C47.093 38.9688 47.1752 38.9277 47.2984 38.8866C47.2573 38.9277 47.2163 38.9688 47.2163 39.0099C47.2163 39.051 47.2573 39.0921 47.3806 39.1331C47.3395 39.1742 47.2984 39.2153 47.2574 39.2153H46.8876L46.8054 39.1331C46.8465 39.0099 46.9286 38.9688 47.0108 38.9688ZM49.7637 39.7084H50.0924V39.8316H49.7637V39.7084ZM51.5715 39.7494H51.7359C51.9002 39.7494 51.9824 39.7905 51.9824 39.9549H51.6537C51.5304 39.9549 51.4483 39.9549 51.3661 39.996L51.325 39.7905C51.4072 39.7905 51.4893 39.7494 51.5715 39.7494ZM52.3522 40.4479H52.0646V40.2425L52.1057 40.2014V40.1603C52.2289 40.1192 52.3522 40.1192 52.5165 40.1603C52.5165 40.2836 52.4344 40.3658 52.3522 40.4479ZM51.4072 40.5301L51.5304 40.6534L51.3661 40.7355L51.2839 40.5712L51.4072 40.5301ZM51.7359 41.3929L51.6948 41.3108C51.6537 41.3108 51.6537 41.3108 51.6126 41.2697C51.6126 41.2286 51.6537 41.2286 51.6948 41.2286C51.7359 41.1875 51.7359 41.1464 51.7359 41.1053C51.8591 41.2286 51.8591 41.3108 51.7359 41.3929ZM46.0658 41.5984C45.9015 41.5162 45.7782 41.4751 45.7371 41.434L45.8604 41.3108C45.9015 41.3519 45.9426 41.3519 45.9426 41.3929C45.9836 41.3929 46.0247 41.3929 46.0658 41.434V41.5984ZM50.9141 41.3519H51.1196V41.4751H50.9141V41.3519ZM52.1878 41.7627C52.1878 41.6806 52.1878 41.5984 52.2289 41.5573L52.27 41.5162C52.3522 41.5162 52.3933 41.5162 52.3933 41.5573C52.4344 41.5573 52.4754 41.5573 52.5165 41.5984C52.4754 41.6806 52.3522 41.7627 52.1878 41.7627ZM49.1885 41.6806H49.5172V41.8038H49.1885V41.6806ZM50.6265 41.7627C50.6676 41.7216 50.7498 41.7216 50.8319 41.7216H51.0785L50.9963 41.9271C50.7909 41.8449 50.6676 41.8038 50.6265 41.7627ZM50.38 42.1325L50.0924 42.1736L49.9691 42.0503L50.38 41.9682V42.1325ZM51.6948 42.0093V42.2147H51.4072V42.0093H51.6948ZM52.0646 42.5023L51.818 42.338C51.8591 42.2969 51.8591 42.2969 51.9002 42.2969V42.2558H52.0646C52.2289 42.2558 52.3522 42.2969 52.3522 42.4201L52.0646 42.5023ZM50.6265 42.5845V42.338H50.9552V42.4201C50.9552 42.4612 50.9963 42.5023 50.9963 42.5434L50.6265 42.5845ZM51.1196 42.4612V42.338H51.3661V42.4612H51.1196ZM50.5443 42.7899H50.7087V42.9543H50.5443V42.7899ZM45.1208 43.0775C45.1208 43.0364 45.0797 43.0364 45.0797 43.0364V42.9132C45.1619 42.8721 45.1619 42.8721 45.203 42.8721H45.3262C45.3673 42.9132 45.3673 42.9132 45.4084 42.9132C45.4084 42.9132 45.4495 42.9543 45.4906 42.9543V43.0364C45.4084 43.0775 45.2852 43.1186 45.1619 43.1186L45.1208 43.0775ZM52.2289 43.2419H51.9002L51.818 43.0775C51.9002 42.9954 52.0235 42.9543 52.1467 42.9543L52.2289 43.2419ZM51.7359 44.6388V44.4745L52.3933 44.5567L51.7359 44.6388ZM51.6948 44.8443L51.8591 44.721C51.9002 44.721 51.9413 44.721 51.9824 44.7621L52.1057 44.8443C52.1057 44.9265 52.0646 44.9675 51.9413 44.9675H51.8591C51.818 44.9265 51.777 44.8854 51.6948 44.8443ZM51.9824 45.2552L52.1878 45.3373L52.1467 45.4195L51.9824 45.3784V45.2552ZM51.4483 45.666H51.7359C51.6537 45.7893 51.4894 45.7893 51.3661 45.7893C51.4483 45.7071 51.4483 45.7071 51.4483 45.666ZM52.0646 46.2002C51.9824 46.2413 51.9002 46.2413 51.777 46.2413L51.6948 46.0769C51.7359 46.0358 51.818 46.0358 51.818 46.0358C51.8591 46.0358 51.9002 45.9947 51.9002 45.9947C51.9002 45.9947 51.9002 45.9536 51.9413 45.9536L52.0235 46.0769L52.1467 45.9536H52.3933C52.3933 46.1591 52.3111 46.2002 52.1467 46.1591C52.1467 46.1591 52.1057 46.118 52.0235 46.118L52.0646 46.2002ZM55.1461 46.57C55.0229 46.57 54.9407 46.4878 54.8996 46.4467V46.4056C54.9407 46.4056 54.9407 46.4056 54.9818 46.3645H55.2283L55.3105 46.4056C55.3105 46.4467 55.2283 46.57 55.1461 46.57ZM52.0235 46.8576L51.4893 46.8986C51.4893 46.7754 51.5304 46.6521 51.5715 46.611H51.818C51.8591 46.611 51.9002 46.6521 51.9824 46.6932H52.0235V46.8576ZM48.0791 50.4322C48.5721 49.1585 48.983 48.008 49.435 46.9808H49.4761C49.4761 46.8986 49.5172 46.7754 49.5582 46.6521L49.3117 50.3911L48.0791 50.4322ZM53.7081 46.8986C53.667 46.8986 53.667 46.8987 53.667 46.9397H53.5437C53.5848 46.8987 53.6259 46.8576 53.667 46.8576C53.667 46.8165 53.7081 46.8165 53.7902 46.8165C53.7492 46.8576 53.7081 46.8576 53.7081 46.8986ZM54.3655 46.8986L54.5298 46.9808V47.0219L54.3244 46.9397L54.3655 46.8986ZM53.0917 47.0219C53.0917 47.063 53.0507 47.063 53.0507 47.0219C53.0096 46.9808 53.0096 46.9808 53.0096 46.9397C53.0096 46.9397 53.1739 46.9808 53.0917 47.0219ZM52.1878 47.1041V46.9808L52.5165 47.0219C52.4754 47.1041 52.4344 47.1452 52.3933 47.1863C52.27 47.3095 52.1878 47.1863 52.1878 47.1041ZM51.4893 47.6382C51.4072 47.556 51.3661 47.4739 51.3661 47.3917C51.4072 47.3917 51.4483 47.3917 51.4893 47.3506H51.6537L51.777 47.4739C51.6948 47.556 51.6126 47.6382 51.4893 47.6382ZM54.4065 47.8437C54.2011 47.8437 54.2011 47.6793 54.2011 47.5971C54.2011 47.556 54.2422 47.515 54.3244 47.515C54.4065 47.4739 54.5709 47.3917 54.6942 47.515L54.7763 47.5971C54.7763 47.7615 54.5298 47.8437 54.4065 47.8437ZM50.2567 48.4189V48.2134H50.5854V48.3367C50.5443 48.3778 50.5443 48.4189 50.5443 48.4189H50.2567ZM54.5709 48.4189L54.3244 48.3778C54.3244 48.3367 54.3655 48.2956 54.4065 48.2956H54.5709V48.3367C54.5709 48.3367 54.612 48.3367 54.612 48.3778L54.5709 48.4189ZM43.7238 48.5832L43.6827 48.7065H43.5595L43.4362 48.5421L43.7238 48.5832ZM50.9552 48.7887H50.7087V48.6654H50.9552V48.7887ZM49.8459 49.3639C49.7637 49.3639 49.7226 49.405 49.6815 49.405L49.6404 49.1174L49.8459 48.953C49.8869 48.9941 50.1746 49.1174 50.1746 49.1585C50.1746 49.2406 50.0924 49.2817 49.9691 49.3228C49.9691 49.3228 49.928 49.3228 49.8459 49.3639ZM52.4754 49.0763C52.3933 49.0763 52.3522 49.0763 52.3111 49.1174C52.3111 49.1174 52.3111 49.0763 52.27 49.0352C52.27 49.0352 52.27 48.9941 52.3111 48.953C52.3111 48.9941 52.3522 48.9941 52.3933 48.9941H52.5576C52.5576 49.0352 52.5165 49.0763 52.4754 49.0763ZM43.806 49.2817C43.7238 49.2406 43.6417 49.1995 43.6006 49.1585L43.806 49.0352L44.0525 49.3639C43.9704 49.3639 43.8882 49.3228 43.806 49.2817ZM51.6126 49.1995H51.5715V49.1174C51.6537 49.1174 51.6948 49.1174 51.6948 49.1585C51.6537 49.1585 51.6537 49.1585 51.6126 49.1995ZM43.6417 49.5693C43.5184 49.5693 43.3951 49.6926 43.4362 49.7337V49.7748L43.1897 49.6515C43.1486 49.5282 43.1897 49.4461 43.2719 49.3228C43.2719 49.3228 43.313 49.3228 43.3541 49.2817H43.4773C43.5184 49.2817 43.5595 49.2817 43.6006 49.3228L43.7238 49.405L43.806 49.5282C43.7649 49.5693 43.7238 49.5693 43.6417 49.5693ZM50.1335 50.2267V49.898C50.2156 49.9802 50.2567 50.0213 50.2567 49.9802C50.3389 50.0213 50.38 50.0624 50.38 50.1446C50.38 50.3089 50.2978 50.2678 50.1746 50.2678C50.1335 50.2678 50.1335 50.2678 50.1335 50.2267ZM50.4622 50.35V50.2267C50.4622 50.1035 50.5854 50.0624 50.7087 50.0624C50.7909 50.1035 50.8319 50.1856 50.8319 50.2678L50.7087 50.35H50.4622ZM49.6404 50.7198C49.435 50.7198 49.3117 50.6376 49.3117 50.5143H49.6404V50.7198ZM50.4622 50.6787H50.6265V50.8841H50.4622V50.6787ZM46.3123 50.9252C46.3534 50.8841 46.3945 50.8841 46.3945 50.8841C46.4356 50.8841 46.4767 50.9252 46.4767 50.9252H46.5178C46.4356 50.9663 46.3945 51.0074 46.3534 51.0074V50.9252H46.3123ZM41.0942 51.295C41.0532 51.2539 41.0121 51.2539 40.971 51.2539C40.9299 51.2539 40.8888 51.2128 40.8888 51.1306H41.1764C41.1764 51.1717 41.1764 51.1717 41.2175 51.1717C41.2175 51.2128 41.1764 51.2539 41.0942 51.295ZM45.7782 51.788C45.696 51.788 45.6549 51.788 45.5728 51.747V51.6648L45.696 51.5415C45.8604 51.5826 45.9836 51.6648 45.9836 51.7059C45.9426 51.788 45.8604 51.788 45.7782 51.788ZM50.5033 51.9524C50.5033 51.9113 50.5033 51.8702 50.5443 51.8291C50.5443 51.788 50.5854 51.747 50.6265 51.7059C50.7087 51.7059 50.7909 51.747 50.873 51.788C50.7909 51.8702 50.6676 51.9524 50.5033 51.9524ZM43.5184 52.8974L43.6006 52.8152V52.8563L43.6417 52.8974H43.5184ZM51.3661 53.0618C51.325 53.0618 51.2839 53.0618 51.2428 53.0207L51.2017 52.9796H51.1196C51.1606 52.9385 51.1606 52.9385 51.2017 52.9385C51.2017 52.9385 51.2428 52.8974 51.2839 52.8974C51.2839 52.8974 51.325 52.8563 51.3661 52.8563C51.4072 52.8974 51.4072 52.9385 51.4072 52.9796C51.3661 52.9796 51.3661 53.0207 51.3661 53.0618ZM47.3806 52.9796L47.2984 53.0618C47.1752 53.0618 47.1752 53.0207 47.2163 52.9385L47.3806 52.9796ZM42.0393 53.4726H41.7106C41.6695 53.4726 41.6695 53.4315 41.6695 53.3905C41.6695 53.3083 41.7516 53.2672 41.8338 53.2261C41.8749 53.2672 41.9571 53.2672 41.9982 53.2672C42.0803 53.3083 42.1214 53.3494 42.1214 53.3905C42.1214 53.3905 42.1214 53.4315 42.0393 53.4726ZM45.6549 53.4726L45.5728 53.3905L45.6549 53.3083C45.696 53.3083 45.7782 53.3494 45.8604 53.3905C45.8193 53.4315 45.7371 53.4726 45.6549 53.4726ZM46.2302 53.6781C46.1891 53.6781 46.1891 53.637 46.1891 53.5548C46.2302 53.5959 46.3123 53.5959 46.3534 53.5959C46.4356 53.5959 46.5178 53.5959 46.5589 53.637C46.4767 53.6781 46.4356 53.6781 46.3945 53.6781H46.2302ZM47.4217 54.7052H47.3395C47.1752 54.7052 47.0519 54.5409 47.0519 54.4998C47.0519 54.4176 47.0519 54.3765 47.093 54.3355C47.2573 54.4587 47.4217 54.5409 47.5861 54.5409C47.5039 54.6642 47.4628 54.7052 47.4217 54.7052ZM46.8876 54.9929C46.8465 54.9929 46.8465 54.9929 46.8465 55.0339H46.7232C46.641 55.0339 46.6 54.9929 46.5589 54.9518C46.5178 54.9518 46.4356 54.8285 46.5589 54.7874C46.6 54.7874 46.641 54.7463 46.6821 54.7463C46.7643 54.7463 46.8054 54.7463 46.8054 54.7874H46.8876V54.9107C46.9287 54.9518 46.8876 54.9518 46.8876 54.9929ZM45.4906 55.075C45.4906 55.075 45.4906 55.0339 45.5317 55.0339C45.5317 54.9518 45.5728 54.9518 45.5728 54.9518C45.5728 54.9929 45.6139 54.9929 45.6549 55.0339C45.696 55.0339 45.7371 55.0339 45.8193 55.075C45.7371 55.1161 45.6139 55.1161 45.4906 55.075ZM42.7377 55.2394C42.7377 55.2805 42.6967 55.3216 42.6967 55.3216C42.6967 55.3216 42.6556 55.2805 42.6145 55.2805C42.5734 55.2805 42.5323 55.2394 42.4912 55.2394V55.1161H42.7377V55.2394ZM51.2017 56.1022H51.1196C51.1196 56.0611 51.0785 56.0611 51.0785 56.0611V55.8968C51.2017 55.7735 51.2428 55.8146 51.2839 55.9379C51.2839 55.9379 51.325 55.9379 51.3661 56.02C51.3661 56.1022 51.325 56.1022 51.2017 56.1022ZM50.7498 56.7596C50.7498 56.924 50.7087 57.0061 50.6265 57.0061C50.38 57.0061 50.2567 56.924 50.2567 56.7596C50.2567 56.6774 50.5033 56.5953 50.5854 56.5953C50.7909 56.5953 50.7498 56.7185 50.7498 56.7596ZM48.9008 57.1705C48.9008 57.2116 48.8598 57.2527 48.8187 57.2938C48.6543 57.2938 48.6132 57.2527 48.6132 57.1705C48.6132 57.1294 48.6132 57.0883 48.6543 57.0883V57.0472H48.8598C48.8598 57.0472 48.8598 57.0883 48.9008 57.0883V57.1705Z" fill="#040404"/>
<defs>
<linearGradient id="paint0_linear_44_1685" x1="80.1453" y1="86.4922" x2="19.3513" y2="-0.57443" gradientUnits="userSpaceOnUse">
<stop stop-color="#FDFDFD"/>
<stop offset="1" stop-color="#FDFDFD" stop-opacity="0"/>
</linearGradient>
</defs>
</svg>
