<svg width="100" height="100" viewBox="0 0 100 100" fill="none" xmlns="http://www.w3.org/2000/svg">
<path fill-rule="evenodd" clip-rule="evenodd" d="M52.1971 35.0202C51.9848 34.2772 51.6663 33.5341 51.3479 32.7911C51.454 32.4726 51.5602 32.0481 51.454 31.5173C49.968 21.5393 38.9284 19.3101 31.7103 14.7457C29.2688 13.3658 26.9335 16.2318 28.2073 18.1425C28.1012 18.5671 28.1012 18.9917 28.2073 19.4163C29.0565 23.2376 30.8611 26.316 32.9841 29.5005C33.3025 29.9251 33.621 30.562 34.0456 31.1989C34.0456 31.305 34.0455 31.4112 34.1517 31.5173C33.8332 32.3665 34.0455 33.5341 35.0009 34.171C36.3808 35.1264 37.8669 35.551 39.5653 35.6571C40.2022 35.6571 40.733 35.4448 41.2637 35.0202C41.5821 35.2325 42.0067 35.2325 42.3252 35.3387C43.3867 35.6571 44.4482 35.9756 45.5097 36.294C47.1019 36.8248 47.845 37.7801 49.6495 37.7801C51.1356 37.9924 52.7278 36.6125 52.1971 35.0202Z" fill="#79BF00"/>
<path fill-rule="evenodd" clip-rule="evenodd" d="M78.3098 47.5458C78.0975 43.406 75.7622 37.8862 72.047 37.2493C70.7732 35.657 69.3933 34.914 68.0133 34.7017C66.9519 33.8525 65.678 33.5341 64.5104 33.3218C59.4152 31.6234 53.6832 35.0201 50.4987 39.2661C50.0741 39.2661 49.6495 39.3723 49.2249 39.3723C48.2696 38.5231 47.2081 37.6739 46.0404 37.1431C44.7666 35.8693 43.2805 34.914 41.9006 34.171C39.2469 34.4894 36.487 33.9587 33.8332 34.8079C31.1795 35.657 29.375 37.2493 27.1458 38.7354C27.0397 38.8415 26.9335 38.8415 26.8274 38.9477C26.4028 39.5846 25.9782 40.3276 25.6597 40.9645C25.3413 41.4953 25.0228 42.026 24.7044 42.6629C23.5367 43.2998 22.5814 44.3613 22.0507 46.0597C20.3523 51.1549 20.4584 58.373 21.8384 64.1051C21.7322 64.3174 21.7322 64.4235 21.6261 64.6358C21.7322 64.742 21.7322 64.9543 21.8384 65.0604C23.4306 69.3064 24.7044 73.4462 26.8274 77.4799C29.4811 80.3459 32.6656 82.6812 35.9562 83.1058C36.8054 83.6366 37.5485 83.955 38.2915 84.2735C39.9899 85.0165 41.476 85.335 42.9621 85.2288C43.4928 85.335 44.1297 85.335 44.6605 85.335C46.465 85.2288 48.0573 84.6981 49.4372 83.8489C50.8172 83.8489 52.3032 83.4243 53.7893 82.6812C54.2139 83.3181 54.8508 83.8489 55.3815 84.2735C55.5938 84.2735 55.8062 84.2735 56.0185 84.2735C58.6722 84.9104 61.2198 83.8489 63.8735 84.2735C64.1919 84.2735 64.4043 84.3796 64.6166 84.4858C64.8289 84.3796 64.935 84.2735 65.1473 84.1673C65.5719 83.955 65.8903 83.6366 66.2088 83.3181C67.4826 83.6366 69.0748 83.1058 69.8179 81.6197C69.924 81.5136 69.924 81.3013 70.0302 81.1951C70.2425 81.089 70.4548 80.9828 70.6671 80.7705C70.9855 80.4521 71.1978 80.2398 71.4101 79.9213C71.7286 79.4967 72.1532 79.1783 72.4716 78.7537C72.7901 78.5414 73.1085 78.2229 73.2147 78.1168C73.7454 77.5861 73.9577 76.843 73.9577 76.2061C74.8069 75.4631 75.3377 74.5077 75.4438 73.1278C75.4438 73.0216 75.5499 73.0216 75.5499 72.9155C77.5668 68.8818 78.5221 63.0436 78.2037 57.5238C78.6283 53.8086 78.416 49.7749 78.3098 47.5458Z" fill="#E1FF69"/>
<path fill-rule="evenodd" clip-rule="evenodd" d="M44.342 21.5389C41.0514 17.7175 34.7886 13.8961 29.4811 14.8515C28.7381 14.9576 28.6319 16.1253 29.375 16.3376C32.0287 16.8683 34.364 17.2929 36.2747 19.3098C38.1854 21.2205 39.9899 23.6619 41.476 25.891C43.9175 29.6063 45.0851 35.126 49.1188 37.4613C50.3925 38.2043 51.5602 37.3551 51.8786 36.0814C52.7278 30.7739 47.5265 25.148 44.342 21.5389Z" fill="#5E9400"/>
<path fill-rule="evenodd" clip-rule="evenodd" d="M35.5316 44.2551C34.7886 42.769 32.8779 42.1321 31.4979 42.8752C30.3303 43.5121 29.2688 44.3613 28.5258 45.5289C27.6766 46.9089 27.5704 48.5011 27.7827 50.1995C28.1012 51.8979 29.6934 52.6409 31.2857 52.5348C32.984 52.4286 34.2578 51.261 35.107 49.881C35.6378 49.138 35.8501 48.2888 35.8501 47.4396C36.1685 46.272 35.9562 45.1043 35.5316 44.2551Z" fill="white"/>
<path fill-rule="evenodd" clip-rule="evenodd" d="M52.4094 30.5618C53.8954 27.165 55.5938 24.299 57.3984 20.7961C57.823 19.9469 58.4599 18.3547 59.946 18.4608C60.689 18.567 61.8566 19.6284 61.8566 20.5838C61.8566 21.6453 60.7951 22.4945 60.2644 23.2375C58.7783 25.1482 57.5045 26.3158 56.3369 28.6511C56.0184 29.288 55.8061 29.8188 55.4877 30.3495C54.6385 31.9418 53.6832 33.8525 53.577 36.2939C56.3369 34.3832 60.2644 32.1541 64.935 32.4725C67.5887 32.6848 69.8179 33.6402 71.5162 34.914C72.1531 35.4447 72.3654 35.9754 73.0023 36.6123C73.7454 37.3554 74.5946 37.6738 75.1253 38.3107C78.4159 41.6014 79.0528 46.8027 79.4774 53.1716C79.6897 56.0377 79.7959 59.3283 79.4774 62.0882C78.8405 67.608 77.6729 73.34 75.3376 77.4798C73.4269 80.7705 70.8794 84.1673 66.8457 85.1226C66.4211 85.2288 65.9965 85.1226 65.5719 85.2287C65.1473 85.3349 64.8288 85.5472 64.5104 85.5472C60.7951 86.0779 57.3984 85.5472 54.5323 84.698C54.5323 85.441 55.8061 87.0333 54.6385 87.3517C53.6832 87.6702 53.3647 86.7148 52.9401 85.9718C54.1077 88.7317 50.7109 89.2624 51.1355 86.1841C50.6048 86.3964 50.4987 87.7763 49.5433 87.6702C48.1634 87.564 49.0126 85.6534 49.6495 85.0165C47.9511 85.5472 46.6773 86.3964 44.6605 86.6087C36.1685 87.4579 30.118 82.3627 26.7212 77.6922C26.2966 77.1614 26.0843 76.5245 25.6597 75.8876C22.7937 71.5355 20.6707 64.6358 20.1399 58.0545C19.3969 49.2441 21.626 41.6014 26.5089 38.0984C27.1458 37.6738 27.995 37.2492 28.6319 36.8246C30.3303 35.7632 32.1348 34.5955 34.6824 34.1709C34.3639 33.4279 33.5148 32.8971 32.984 32.1541C30.0118 28.3327 29.6934 21.3268 27.3581 17.2932C27.1458 16.8686 26.615 16.2317 26.1904 15.7009C25.7658 15.064 24.0675 13.5779 25.6597 13.0472C25.9781 12.941 26.2966 13.0472 26.5089 13.0472C28.1012 13.1533 29.6934 13.5779 31.2856 13.7902C32.8779 13.8964 34.1517 14.5333 35.4255 15.064C39.0345 16.5501 42.4313 18.7792 45.4035 21.2207C48.1634 23.9806 51.0294 26.7404 52.4094 30.5618ZM33.1963 17.6116C33.0902 17.0809 32.8779 16.6563 32.6656 16.1255C32.1348 16.1255 31.3918 15.7009 30.861 15.9132C31.7102 16.5501 32.3471 17.187 33.1963 17.6116ZM31.9225 25.9974C32.3471 27.3773 32.7717 28.9696 33.6209 30.3495C34.3639 31.5172 35.5316 33.0033 36.4869 33.534C37.3361 33.9586 38.6099 33.7463 39.7776 33.8525C42.0067 33.9586 44.2358 34.8078 45.9342 35.3385C43.4928 31.8356 41.476 28.1204 38.5038 25.1482C37.0177 23.6621 35.5316 22.176 34.0455 20.7961C32.5594 19.31 30.6487 18.4608 28.9503 16.9747C28.9503 16.8686 28.9503 16.8686 28.8442 16.8686C30.3303 19.31 31.0733 22.6006 31.9225 25.9974ZM35.3193 19.0977C35.2131 18.3546 35.0009 17.8239 34.8947 17.0809C34.6824 16.8686 34.364 16.7624 34.0455 16.7624C34.364 17.6116 34.364 18.7792 35.3193 19.0977ZM36.3808 20.1592C36.8054 20.4776 37.5484 21.433 37.8669 21.2207C37.7607 20.1592 37.6546 19.2039 37.5484 18.2485C37.0177 18.0362 36.5931 17.7177 36.0624 17.5054C36.0624 18.4608 36.3808 19.2038 36.3808 20.1592ZM39.9899 23.556C40.096 22.2822 39.8837 21.2207 39.8837 19.9469C39.5653 19.5223 38.9284 19.31 38.5038 18.9915C38.8222 20.6899 38.5038 23.3437 39.9899 23.556ZM40.8391 24.6175C41.3698 25.2544 41.9006 25.9974 42.5375 26.6343C42.5375 24.9359 42.6436 23.1314 42.4313 21.5391C41.9006 21.2207 41.3698 20.7961 40.8391 20.5838C40.8391 21.8576 40.8391 23.2375 40.8391 24.6175ZM43.4928 28.0142C43.9174 28.6511 44.2358 29.5003 44.8727 30.0311C45.1912 28.2265 45.2974 26.1035 45.1912 23.8744C44.6605 23.3437 44.1297 22.9191 43.599 22.4945C43.4928 24.4052 43.599 26.3159 43.4928 28.0142ZM45.5096 31.0926C45.8281 31.5172 46.0404 31.9418 46.3588 32.3664C46.9957 30.4557 47.5265 28.545 47.3142 25.9974C46.9957 25.4667 46.5711 25.0421 46.0404 24.6175C46.2527 27.1651 45.9342 29.1819 45.5096 31.0926ZM48.2695 28.7573C48.1634 30.5618 46.9957 32.4725 47.1019 33.4279C47.208 34.1709 48.0572 34.8078 48.4818 35.4447C48.588 34.5955 49.0126 33.534 49.2249 32.4725C49.7556 30.0311 49.8618 28.3327 48.3757 27.2712C48.2695 27.802 48.3757 28.2265 48.2695 28.7573ZM49.0126 37.0369C49.4372 37.3554 49.9679 37.5677 50.4987 37.78C51.2417 35.657 51.9848 32.6848 50.4987 30.8803C50.1802 33.1094 49.5433 35.0201 49.0126 37.0369ZM53.2585 39.2661C52.8339 39.7968 52.6217 40.9645 51.9848 41.1768C50.3925 41.7075 50.1802 39.903 49.5433 39.4784C48.9064 39.0538 47.9511 38.7353 47.1019 38.2046C46.3588 37.6738 45.6158 37.0369 44.8727 36.7185C40.6268 35.1263 35.3193 35.4447 31.3918 37.2492C30.5426 37.6738 29.6934 38.3107 28.7381 38.8415C27.7827 39.3722 26.8273 40.0091 26.1904 40.646C23.8552 42.9813 22.0506 47.4396 21.8383 51.5794C21.2014 60.0714 23.1121 66.7588 25.6597 72.8093C26.615 74.9323 28.2073 76.7368 29.4811 78.4352C30.861 80.3459 32.6656 81.7258 34.6824 82.7873C37.0177 84.0611 41.5821 85.5472 45.2973 84.698C45.9342 84.5919 46.7834 84.1673 47.5265 83.8488C48.2695 83.5304 49.0126 83.3181 49.6495 82.9996C50.2864 82.6812 51.1355 81.4074 52.197 81.4074C53.2585 81.4074 53.8955 82.6812 54.7447 82.9996C56.1246 83.5304 57.823 83.8488 58.7783 83.8488C62.4935 84.1673 66.8457 83.6365 69.2871 81.9381C70.667 80.9828 71.9408 78.9659 73.1085 77.2676C74.17 75.6753 75.2315 73.34 75.7622 71.4293C76.6114 68.2449 77.5668 63.9989 77.779 60.0714C77.9913 57.3115 77.4606 54.2331 77.2483 51.1548C77.036 48.0765 76.7176 45.1043 75.8684 42.9813C75.0192 40.646 73.5331 39.5845 71.9408 38.2046C71.1978 37.5677 70.6671 36.6123 70.0302 36.1877C68.5441 35.0201 65.678 34.2771 63.9796 34.2771C59.0968 34.4894 55.4877 36.5062 53.2585 39.2661Z" fill="#212121"/>
<path fill-rule="evenodd" clip-rule="evenodd" d="M51.348 20.9021C50.6049 19.9467 52.5156 18.2483 52.8341 19.2037C52.9402 19.7344 52.091 20.7959 51.348 20.9021Z" fill="#212121"/>
<path fill-rule="evenodd" clip-rule="evenodd" d="M79.6897 43.4056C78.7344 43.2994 78.8405 42.1318 78.7343 41.4949C78.2036 39.478 77.2483 37.1428 76.0806 35.6567C75.7622 35.2321 75.3376 34.8075 74.913 34.489C74.4884 34.1706 73.8515 34.2767 73.4269 33.8521C73.533 32.4722 75.0191 33.4275 75.4437 33.6398C77.2483 34.7013 78.0975 36.7182 79.0528 38.9473C79.3713 39.5842 79.5835 40.3272 79.7958 41.0703C79.7958 41.8133 80.2205 42.7687 79.6897 43.4056Z" fill="#212121"/>
<path fill-rule="evenodd" clip-rule="evenodd" d="M34.2579 86.6084C33.7272 87.3515 32.878 86.7146 32.2411 86.5023C30.3304 85.8654 27.9951 85.1223 27.4644 83.1055C28.2074 82.4686 28.632 83.6363 29.2689 84.167C29.9058 84.6977 30.8611 85.1223 31.7103 85.4408C32.6657 85.7592 33.8333 85.6531 34.2579 86.6084Z" fill="#212121"/>
</svg>
