<svg width="100" height="100" viewBox="0 0 100 100" fill="none" xmlns="http://www.w3.org/2000/svg">
<path d="M75.8396 19.1561C75.654 17.4863 74.2934 16.3731 73.3039 15.0743C71.634 12.9097 68.5417 12.5386 65.8205 12.3531C54.6882 11.6109 43.494 11.2398 32.2998 11.178C31.0629 11.178 29.6405 10.9924 28.4654 11.3635C27.2903 11.7346 26.3626 12.4767 26.3008 14.3321L26.2389 16.3112L26.1771 14.5795C24.3217 35.7928 22.59 56.9442 20.9202 78.1574C20.7965 80.0128 20.6728 82.1774 21.9097 83.5999C22.8992 84.7749 24.4454 85.146 26.0534 85.0842L59.0174 87.3725C61.5531 87.7436 64.1506 87.8054 66.7482 87.6817C67.4285 87.6199 68.2325 87.558 68.7273 87.0014C69.0984 86.5685 69.1602 86.0119 69.222 85.4553C70.6445 74.1992 72.7473 62.9432 74.1697 51.7491C75.5303 41.1115 77.2002 29.7937 75.8396 19.1561Z" fill="white"/>
<path d="M72.2526 16.4349C72.067 14.8269 71.7578 13.0952 70.7064 11.7964C68.9747 9.63179 65.9442 9.26072 63.1612 9.07518C51.9051 8.33302 40.6491 7.9001 29.3931 7.83825C28.1562 7.83825 26.7337 7.65272 25.4968 8.02379C24.2599 8.39487 23.3322 9.13702 23.3322 10.9306L23.2704 12.9096L23.2085 11.1779C21.415 32.2057 19.6833 53.2334 18.0134 74.2611C17.8897 76.1165 17.766 78.2192 19.003 79.6417C19.9925 80.8168 21.5387 81.126 23.1467 81.126L56.3581 83.4761C58.9556 83.8472 61.5531 83.9091 64.1507 83.7854C64.8928 83.7235 65.635 83.6617 66.1298 83.1051C66.5008 82.6722 66.5627 82.1155 66.6245 81.5589C68.047 70.4266 69.4695 59.2324 70.8919 48.1001C72.2525 37.6481 73.6132 27.0106 72.2526 16.4349Z" fill="#0087D4"/>
<path d="M22.2808 11.178C21.8479 16.5586 21.3532 21.8774 20.9203 27.258C20.4873 32.5768 20.0544 37.9574 19.5596 43.2762C19.1267 48.595 18.6938 53.9756 18.2608 59.2944C18.0753 61.9538 17.8279 64.675 17.6424 67.3344C17.4568 69.9319 17.1476 72.5294 17.0239 75.127C16.9002 77.3534 17.2095 79.6418 19.0649 81.0642C20.611 82.3011 22.8375 82.4867 24.7547 82.4248C25.2495 82.4248 25.8061 82.363 26.3008 82.363C26.8575 82.3012 27.1667 81.6827 27.1049 81.1879C26.9812 80.6313 26.4864 80.3839 25.9298 80.3839C25.7442 80.3839 25.4969 80.3839 25.3113 80.4458C25.4969 80.4458 25.2495 80.4458 25.1876 80.4458C25.0639 80.4458 24.9403 80.4458 24.8166 80.4458C24.3218 80.4458 23.827 80.4458 23.3322 80.3839C23.0849 80.3839 22.8993 80.3221 22.6519 80.3221C22.5283 80.3221 22.4045 80.2602 22.2808 80.2602C22.219 80.2602 22.1572 80.2602 22.1572 80.2602C22.1572 80.2602 21.9098 80.1984 21.9716 80.1984C22.0335 80.1984 21.7861 80.1365 21.7243 80.1365C21.6006 80.1365 21.5387 80.0747 21.415 80.0747C21.1676 80.0128 20.9821 79.8891 20.7347 79.8273C20.6728 79.8273 20.6729 79.7655 20.611 79.7655C20.7347 79.8273 20.611 79.7655 20.611 79.7655C20.4873 79.7036 20.4255 79.6418 20.3636 79.5799C20.3018 79.5181 20.1781 79.4562 20.1162 79.3944C20.1162 79.3944 19.9926 79.2707 20.0544 79.3325C20.1162 79.3944 19.9926 79.2707 19.9926 79.2707C19.8689 79.147 19.6215 78.8996 19.6215 78.7759C19.6833 78.8378 19.5596 78.7141 19.5596 78.7141C19.4978 78.6522 19.4978 78.5904 19.4359 78.5285C19.3741 78.4048 19.3123 78.2811 19.2504 78.1575C19.2504 78.0956 19.1885 77.9101 19.1885 78.0338C19.1267 77.9101 19.1267 77.7864 19.1267 77.6627C19.0649 77.4153 19.003 77.1679 19.003 76.9205C19.003 76.7968 19.003 76.6731 18.9412 76.5495C18.9412 76.4258 18.9412 76.5495 18.9412 76.5495C18.9412 76.4876 18.9412 76.4258 18.9412 76.3639C18.9412 76.1165 18.9412 75.8073 18.9412 75.5599C19.003 74.3848 19.1267 73.1479 19.1885 71.9728C19.3122 70.6741 19.3741 69.3753 19.4978 68.0765C19.6833 65.479 19.9307 62.8814 20.1162 60.2221C20.5492 55.027 20.9821 49.7701 21.415 44.575C21.8479 39.3799 22.2809 34.123 22.7138 28.9279C23.1467 23.7328 23.5796 18.4759 24.0744 13.2808C24.1362 12.6623 24.1981 11.982 24.2599 11.3636C24.3218 10.807 23.8889 10.3122 23.3941 10.3122C22.7756 10.2503 22.2808 10.6833 22.2808 11.178Z" fill="#362D2A"/>
<path d="M24.3218 11.1162C24.3218 10.9306 24.3218 10.7451 24.3836 10.5595C24.3836 10.4977 24.3836 10.4358 24.4455 10.374C24.3836 10.4977 24.4455 10.374 24.4455 10.3122C24.5073 10.1885 24.5073 10.0648 24.5692 9.94108C24.631 9.81738 24.4455 10.1266 24.5692 9.87923C24.631 9.81738 24.6929 9.75554 24.6929 9.69369C24.6929 9.63184 24.8166 9.57 24.6929 9.69369C24.7547 9.63184 24.7547 9.63185 24.8166 9.57C24.8784 9.50815 25.1876 9.32261 25.0021 9.4463C25.2495 9.32261 25.4969 9.19892 25.7443 9.13707C25.9298 9.07523 25.435 9.19892 25.8061 9.13707C25.8679 9.13707 25.9917 9.07523 26.0535 9.07523C26.239 9.01338 26.3627 9.01338 26.5483 9.01338C26.9193 8.95154 27.3523 8.95154 27.7234 8.95154C28.5892 8.95154 29.3932 9.01338 30.259 9.01338C33.9698 9.01338 37.7424 9.07523 41.4532 9.19892C48.8129 9.38446 56.1726 9.69369 63.5323 10.2503C64.9547 10.374 66.2535 10.4977 67.5523 10.9925C68.7274 11.4254 69.7169 12.1057 70.3354 13.2808C71.0157 14.5795 71.1394 16.1257 71.3249 17.61C71.5105 19.3417 71.6341 21.0734 71.7578 22.8051C72.0052 30.0411 71.3249 37.2152 70.3972 44.3276C69.4695 51.6873 68.5418 59.047 67.6141 66.3448C67.1194 70.0556 66.6864 73.7663 66.1917 77.4771C66.068 78.4048 65.9443 79.3325 65.8206 80.2602C65.7587 80.6931 65.6969 81.126 65.6351 81.559C65.5732 81.9919 65.5732 82.2393 65.3877 82.6104C65.3258 82.734 65.2021 82.7959 64.9547 82.9196C65.0784 82.8577 64.8929 82.9196 64.8929 82.9196C64.8311 82.9196 64.7073 82.9814 64.6455 82.9814C64.46 82.9814 64.2744 83.0433 64.0889 83.0433C63.5941 83.1051 64.2744 83.0433 64.0889 83.0433C64.0271 83.0433 63.9652 83.0433 63.9034 83.0433C61.6769 83.0433 59.4504 82.8577 57.2858 82.734C53.5751 82.5485 49.8024 82.3011 46.0916 82.0537C42.2572 81.8064 38.4227 81.559 34.6501 81.2497C32.1763 81.0642 29.7024 80.8787 27.2286 80.6931C26.9812 80.6931 26.7338 80.6313 26.5483 80.6313C25.9916 80.5694 25.4969 81.0023 25.4969 81.4971C25.435 82.0537 25.868 82.4867 26.3627 82.5485C28.3418 82.7959 30.3827 82.9196 32.3618 83.0433C36.0726 83.2907 39.8452 83.5999 43.6178 83.8473C47.576 84.0947 51.5341 84.342 55.4923 84.5894C58.0898 84.7131 60.6874 84.8987 63.2849 84.9605C63.656 84.9605 63.9652 84.9605 64.3363 84.9605C64.9547 84.8987 65.635 84.8368 66.1917 84.5276C67.0575 84.0328 67.4286 83.2907 67.6141 82.363C67.7997 81.4971 67.8615 80.5694 67.9852 79.6417C68.1089 78.714 68.2326 77.7245 68.3563 76.7968C68.6037 74.8796 68.8511 73.0242 69.0984 71.107C70.088 63.5617 71.0157 55.9546 72.0052 48.4094C72.9329 41.1116 73.8606 33.7519 73.8606 26.3922C73.8606 22.7432 73.7369 19.0943 73.1184 15.5072C72.8711 13.9611 72.3763 12.2912 71.3249 11.1162C70.3354 10.0029 68.9748 9.26077 67.4904 8.88969C66.0061 8.51861 64.5218 8.33308 62.9757 8.27123C61.0585 8.14754 59.2031 8.02384 57.2858 7.90015C53.5132 7.71461 49.6787 7.52907 45.9061 7.40538C42.1335 7.28169 38.2991 7.158 34.5264 7.09615C32.6711 7.09615 30.8157 7.09615 28.9603 7.03431C27.4141 6.97246 25.7443 6.91061 24.3836 7.65277C23.1467 8.39492 22.5283 9.63185 22.4664 11.0543C22.4664 11.6109 22.8375 12.0438 23.3323 12.1057C23.7652 12.0438 24.3218 11.6109 24.3218 11.1162Z" fill="#362D2A"/>
<path d="M18.7556 81.2499C19.1267 82.3013 19.6833 83.3526 20.4873 84.0948C21.6006 85.1462 22.9612 85.7028 24.3836 86.0739C25.435 86.3213 26.4864 86.3831 27.5996 86.3831C28.0944 86.3831 28.651 86.0739 28.651 85.5173C28.651 85.0225 28.2799 84.4659 27.7852 84.4659C26.8575 84.4659 25.9298 84.404 25.0021 84.2185C24.8784 84.2185 24.8165 84.1566 24.6929 84.1566C24.631 84.1566 24.3218 84.0948 24.5073 84.0948C24.6929 84.1566 24.3836 84.0948 24.3218 84.033C24.2599 84.033 24.1362 83.9711 24.0744 83.9711C23.7652 83.8474 23.4559 83.7856 23.1467 83.6C23.0849 83.6 23.023 83.5382 22.9612 83.4763C22.8993 83.4763 22.8993 83.4145 22.8375 83.4145C22.8375 83.4145 23.0849 83.5382 22.9612 83.4763C22.8375 83.4145 22.7138 83.3526 22.5901 83.229C22.4045 83.1053 22.219 82.9197 21.9716 82.7342C22.219 82.9197 22.0335 82.796 21.9716 82.7342C21.9098 82.6723 21.9098 82.6723 21.8479 82.6105C21.7861 82.4868 21.6624 82.425 21.6005 82.3013C21.5387 82.1776 21.4769 82.1157 21.415 81.992C21.3532 81.9302 21.3532 81.8683 21.2913 81.8683C21.2295 81.7446 21.415 82.1157 21.3531 81.992C21.3531 81.9302 21.2913 81.9302 21.2913 81.8683C20.9821 81.3736 20.7965 80.8788 20.5492 80.3222C20.3636 79.8274 19.6833 79.6419 19.2504 79.8274C18.7556 80.1985 18.5701 80.7551 18.7556 81.2499Z" fill="#362D2A"/>
<path d="M70.2735 12.9715C71.5723 14.3322 73.0566 15.5691 74.2935 17.0534C74.4172 17.1771 74.479 17.3008 74.6027 17.4245C74.6646 17.4863 74.6646 17.5482 74.7264 17.61C74.8501 17.7956 74.6027 17.4245 74.7264 17.6719C74.8501 17.9192 75.0356 18.2285 75.0975 18.4759C75.0975 18.5377 75.1593 18.5996 75.1593 18.6614C75.2212 18.7851 75.0975 18.4759 75.1593 18.6614C75.2212 18.8469 75.2212 18.9706 75.283 19.1562C75.3449 19.5272 75.4067 19.8983 75.4067 20.2694C75.4067 20.3931 75.4067 20.4549 75.4067 20.5786C75.4067 20.6405 75.4067 20.7023 75.4067 20.7023C75.4067 20.6405 75.4067 20.4549 75.4067 20.7023C75.4067 20.9497 75.4067 21.1971 75.4067 21.4445C75.4067 22.0011 75.4067 22.5577 75.4067 23.1143C75.3449 24.2894 75.283 25.4645 75.2212 26.6396C75.0975 29.0516 74.9119 31.4636 74.7882 33.8756C74.4172 39.2562 73.9224 44.6368 73.3039 49.9556C72.7473 55.4599 72.067 60.9642 71.3249 66.4685C70.6446 71.5399 69.8406 76.6113 68.9129 81.6827C68.7273 82.7959 68.4799 83.8473 68.2944 84.9605C68.2326 85.1461 68.1707 85.3934 68.1707 85.579C68.1707 85.6408 68.2944 85.2698 68.1707 85.4553C68.1707 85.5171 68.1707 85.5171 68.1089 85.579C68.1089 85.6408 68.047 85.6408 68.047 85.7027C67.9852 85.8264 68.1089 85.579 68.1089 85.579L68.047 85.7027C67.9852 85.7645 67.9852 85.8264 67.9233 85.8264C67.8615 85.9501 68.1089 85.7027 67.9233 85.8264C67.8615 85.8882 67.7996 85.9501 67.7378 85.9501C67.6141 86.0737 67.7378 85.9501 67.7996 85.9501C67.7378 86.0119 67.676 86.0119 67.6141 86.0738C67.4904 86.1356 67.4286 86.1356 67.3049 86.1974C67.243 86.1974 67.1193 86.2593 67.3049 86.1974C67.243 86.1974 67.1812 86.2593 67.1193 86.2593C66.8101 86.3211 66.5008 86.383 66.1916 86.383C65.9442 86.383 65.5732 86.383 65.2021 86.383C62.7282 86.3211 60.3162 86.1974 57.8424 86.0738C54.1935 85.8882 50.6064 85.7027 46.9575 85.5171C43.3085 85.3316 39.6596 85.1461 35.9489 84.8987C33.475 84.775 31.063 84.6513 28.5891 84.4657C28.2799 84.4657 28.0325 84.4039 27.7233 84.4039C27.1667 84.342 26.6719 84.775 26.6719 85.2697C26.6101 85.7645 27.043 86.3211 27.5377 86.3211C29.5787 86.4448 31.5578 86.5685 33.5987 86.6922C37.1239 86.8778 40.6491 87.0633 44.2362 87.2488C48.0088 87.4344 51.7815 87.6817 55.6159 87.8673C58.399 87.991 61.2439 88.1147 64.027 88.2384C65.0784 88.3002 66.1916 88.3621 67.243 88.1147C68.1707 87.9291 69.0984 87.4962 69.5932 86.6922C69.9024 86.2593 69.9642 85.7645 70.0261 85.2697C71.0156 80.3839 71.7578 75.498 72.4999 70.5504C73.3039 65.046 74.0461 59.5417 74.6645 53.9756C75.283 48.4713 75.8396 42.9669 76.2726 37.4626C76.6436 32.5768 77.0766 27.6291 77.2003 22.6814C77.2621 20.9497 77.2621 19.0325 76.5818 17.4245C76.0252 16.0639 74.9119 15.0125 73.8606 13.9611C73.0566 13.1571 72.2526 12.4149 71.5104 11.6109C71.1393 11.2399 70.5827 11.1162 70.1498 11.4872C70.0261 11.9202 69.9024 12.6005 70.2735 12.9715Z" fill="#362D2A"/>
<path d="M72.6284 21.4086L76.5121 22.7792" stroke="#362D2A" stroke-width="2"/>
<path d="M73.0852 25.749L76.0551 26.3201" stroke="#362D2A" stroke-width="2"/>
<path d="M63.6559 55.3981C65.1403 44.0802 65.3876 32.5768 65.6969 21.1353C65.6969 20.0221 65.7587 18.9088 65.2639 17.9193C64.2125 15.9402 61.5532 15.5691 59.3267 15.5073C49.3695 15.0744 39.3504 14.6415 29.3931 14.1467C28.5273 14.0848 27.2285 14.5178 27.5377 15.3836V15.8165C26.6101 33.5664 25.3731 50.3267 24.4454 68.0766C24.3836 69.6227 24.3217 71.2926 25.0639 72.6532C25.8061 74.0138 28.2799 74.6941 30.0116 74.5704C34.5882 75.0033 46.339 76.1166 48.5036 75.9929C51.967 76.3021 56.3581 76.6113 58.4608 76.6113C62.2335 76.6113 61.9243 73.6427 61.9243 73.6427L63.6559 55.3981Z" fill="#362D2A"/>
<path d="M56.1108 45.8118C56.1727 45.5026 56.049 45.1933 55.8634 44.8841C53.4514 41.8537 50.6683 39.0706 47.7616 36.5349C47.3286 36.102 46.7102 36.0401 46.2154 36.473C46.1536 36.5349 46.0917 36.5967 46.0299 36.7204C45.9062 36.8441 45.8443 36.9678 45.7825 37.1533C45.6588 37.7718 45.4733 38.3903 45.3496 38.9469C42.6284 38.6995 39.9071 38.3903 37.1859 38.1429C36.8767 38.081 36.5674 38.2666 36.3819 38.4521C36.0108 38.6377 35.7634 39.0087 35.7634 39.3798C35.8253 40.926 35.7634 42.4721 35.5779 44.0183C35.516 44.3894 35.516 44.7604 35.4542 45.1315C35.4542 45.317 35.3923 45.5026 35.3923 45.75C35.3923 45.75 35.3305 46.121 35.3923 45.8737C35.3923 45.9974 35.3305 46.0592 35.3305 46.1829C35.2068 46.925 35.0213 47.6672 34.8357 48.4093C34.7739 48.5949 34.5883 48.7804 34.6502 48.966C34.5265 49.1515 34.6502 49.3989 34.5883 49.6463C34.5265 50.2647 35.0831 50.7595 35.6397 50.7595C38.6702 51.0069 41.7007 51.1924 44.7311 51.3161C44.5456 52.3057 44.4837 52.8623 44.2982 53.9137C44.2982 54.0374 44.2982 54.161 44.36 54.2847C44.36 54.4703 44.3601 54.6558 44.4219 54.7795C44.5456 55.0887 44.7311 55.2743 45.0404 55.398C45.4114 55.769 46.0917 55.769 46.5246 55.398C47.2668 54.7177 48.3182 54.2847 49.0604 53.6044C51.7197 51.3161 53.9462 49.2133 55.9871 46.3684C56.1108 46.2447 56.1727 46.0592 56.1108 45.8118Z" fill="white"/>
<path d="M72.9711 29.1759L76.0551 30.0897M72.2858 34.2017L75.484 34.7728" stroke="#362D2A" stroke-width="2"/>
<path d="M71.8289 39.5702H74.9129V44.3676L71.1436 43.6822V48.708H74.1134" stroke="#362D2A" stroke-width="2"/>
<path d="M65.8893 83.2033L68.1736 86.63M66.9172 79.2054L70.3439 81.6041" stroke="#362D2A" stroke-width="2"/>
<path d="M67.9452 76.4642L70.4581 77.6065M67.9452 72.4664L71.6004 73.0375" stroke="#362D2A" stroke-width="2"/>
<path d="M67.9452 69.0397L71.4861 70.0677" stroke="#362D2A" stroke-width="2"/>
<path d="M72.2858 66.2984L68.7449 65.042" stroke="#362D2A" stroke-width="2"/>
<path d="M69.3159 60.9297L72.7427 61.8435" stroke="#362D2A" stroke-width="2"/>
<path d="M73.0852 59.1022L69.4302 56.7035" stroke="#362D2A" stroke-width="2"/>
<path d="M70.915 51.1066L74.5702 52.0204" stroke="#362D2A" stroke-width="2"/>
<path d="M75.3616 85.9913C75.329 86.1864 75.264 86.3491 75.1989 86.5442C75.1664 86.6093 75.1989 86.5117 75.1989 86.5117C75.1989 86.5442 75.1664 86.5443 75.1664 86.5768C75.1339 86.6093 75.1339 86.6744 75.1013 86.7069C75.0688 86.8045 75.0037 86.8696 74.9712 86.9671C74.8736 87.1298 74.776 87.2599 74.6784 87.4226C74.6459 87.4551 74.6459 87.4551 74.6134 87.4876C74.6134 87.4876 74.5483 87.5527 74.6134 87.4876C74.6459 87.4551 74.5808 87.5202 74.5483 87.5527C74.4833 87.6177 74.4182 87.7153 74.3531 87.7804C73.8977 88.3334 73.3773 88.8213 72.8568 89.2767C72.7267 89.4069 72.5965 89.5044 72.4339 89.602C72.4014 89.6346 72.4664 89.5695 72.4664 89.5695C72.4339 89.602 72.4339 89.602 72.4014 89.602C72.3688 89.6346 72.3363 89.6346 72.3038 89.6671C72.2387 89.7322 72.1411 89.7647 72.0761 89.8298C71.7833 90.0249 71.4905 90.2201 71.1652 90.4153C70.8725 90.6104 70.5472 90.7731 70.2219 90.9032C70.0592 90.9683 69.8966 91.0659 69.7339 91.1309C69.7014 91.1309 69.5713 91.196 69.6364 91.1635C69.7014 91.1309 69.6038 91.196 69.5713 91.196C69.4737 91.2285 69.4086 91.2611 69.3111 91.2936C68.9532 91.4237 68.5629 91.5538 68.1725 91.6839C67.9773 91.749 67.7822 91.7815 67.587 91.8466C67.5545 91.8466 67.4894 91.8791 67.4569 91.8791C67.4243 91.8791 67.3268 91.8791 67.3268 91.9116C67.3268 91.9116 67.4569 91.9116 67.3918 91.9116C67.3593 91.9116 67.3593 91.9116 67.4243 91.9116C67.4569 91.9116 67.4894 91.9117 67.5219 91.9442C67.5219 92.0743 67.5219 92.2044 67.5219 92.3345C67.6195 92.5622 67.6195 92.6923 67.4569 92.7249C67.4243 92.7574 67.3593 92.7574 67.2942 92.7574C67.1641 92.7574 67.1316 92.7574 67.1966 92.7574C67.1316 92.7249 67.034 92.6598 66.9689 92.6273C66.9364 92.5948 66.9364 92.5622 66.9039 92.5297C66.8713 92.4321 66.8713 92.3671 66.8388 92.2695C66.8388 92.2369 66.8388 92.2044 66.8388 92.1719C66.7412 92.4321 66.9364 92.7574 67.1966 92.8225C67.4894 92.8875 67.7496 92.7249 67.8472 92.4646C68.0099 92.0418 67.5545 91.6514 67.1316 91.7815C66.7737 91.8791 66.546 92.302 66.7412 92.6598C67.0665 93.1803 67.7496 92.9526 68.2376 92.8225C69.0508 92.5948 69.8641 92.302 70.6448 91.9442C72.1737 91.2285 73.5724 90.1876 74.711 88.9189C75.3941 88.1707 76.1098 87.325 76.2724 86.3165C76.3375 86.0563 76.2073 85.731 75.9146 85.666C75.7519 85.5684 75.4266 85.731 75.3616 85.9913Z" fill="#362D2A"/>
<path d="M76.4271 9.60656C76.622 9.64112 76.7839 9.70787 76.9784 9.77496C77.0431 9.80816 76.9459 9.77462 76.9459 9.77462C76.9784 9.77496 76.9781 9.80748 77.0106 9.80782C77.0428 9.84068 77.1078 9.84136 77.14 9.87423C77.2373 9.90778 77.3017 9.9735 77.3989 10.007C77.5605 10.1063 77.6896 10.2053 77.8512 10.3045C77.8834 10.3374 77.8834 10.3374 77.9156 10.3703C77.9156 10.3703 77.98 10.436 77.9156 10.3703C77.8834 10.3374 77.9478 10.4032 77.98 10.436C78.0444 10.5018 78.1413 10.5678 78.2057 10.6335C78.7539 11.0947 79.2364 11.6202 79.6863 12.1454C79.8151 12.2769 79.9113 12.408 80.0072 12.5717C80.0394 12.6045 79.975 12.5388 79.975 12.5388C80.0072 12.5717 80.0072 12.5717 80.0069 12.6042C80.0391 12.6371 80.0387 12.6696 80.0709 12.7025C80.1353 12.7682 80.1668 12.8661 80.2312 12.9318C80.4233 13.2266 80.6154 13.5214 80.8072 13.8487C80.9993 14.1435 81.1586 14.4705 81.2853 14.7971C81.3486 14.9604 81.4446 15.1241 81.5079 15.2874C81.5076 15.3199 81.5713 15.4507 81.5394 15.3853C81.5076 15.3199 81.5716 15.4182 81.5713 15.4507C81.6028 15.5486 81.6346 15.614 81.6662 15.712C81.7925 16.0711 81.9186 16.4628 82.0446 16.8545C82.1076 17.0503 82.1381 17.2458 82.2012 17.4417C82.2008 17.4742 82.2327 17.5396 82.2323 17.5722C82.232 17.6047 82.231 17.7023 82.2635 17.7026C82.2635 17.7026 82.2648 17.5725 82.2642 17.6375C82.2638 17.6701 82.2638 17.6701 82.2645 17.605C82.2648 17.5725 82.2652 17.54 82.2981 17.5078C82.4282 17.5091 82.5583 17.5105 82.6884 17.5118C82.9171 17.4166 83.0472 17.418 83.078 17.581C83.1102 17.6138 83.1096 17.6789 83.1089 17.7439C83.1075 17.8741 83.1072 17.9066 83.1079 17.8415C83.0747 17.9062 83.0086 18.0031 82.9754 18.0679C82.9425 18.1001 82.91 18.0997 82.8771 18.1319C82.7792 18.1634 82.7142 18.1627 82.6162 18.1942C82.5837 18.1939 82.5512 18.1936 82.5186 18.1932C82.7778 18.2935 83.1052 18.1017 83.1729 17.8422C83.241 17.5501 83.0811 17.2882 82.8219 17.1879C82.4007 17.0209 82.0057 17.4722 82.1314 17.8964C82.2252 18.2552 82.6457 18.4873 83.0055 18.2959C83.5294 17.976 83.3088 17.2906 83.1838 16.8013C82.9645 15.9857 82.6803 15.1695 82.3306 14.3851C81.6309 12.8488 80.6046 11.4393 79.3479 10.2876C78.6068 9.59673 77.7686 8.8723 76.7619 8.69915C76.5024 8.63138 76.1757 8.75812 76.1076 9.05019C76.0083 9.21181 76.1676 9.53879 76.4271 9.60656Z" fill="#362D2A"/>
</svg>
