<svg width="48" height="28" viewBox="0 0 48 28" fill="none" xmlns="http://www.w3.org/2000/svg">
<path d="M0 0H0.541138V14.3683H0V0ZM1.08228 0H1.62341V14.3683H1.08228V0ZM4.3314 0H4.87253V14.3683H4.3314V0ZM14.8646 0H15.4058V14.3683H14.8646V0ZM18.386 0H18.9272V14.3683H18.386V0ZM21.8006 0H22.3417V14.3683H21.8006V0ZM22.6807 0H23.2218V14.3683H22.6807V0ZM23.5619 0H24.103V14.3683H23.5619V0ZM24.5522 0H25.0934V14.3683H24.5522V0ZM25.5426 0H26.0837V14.3683H25.5426V0ZM28.2954 0H28.8365V14.3683H28.2954V0ZM35.1211 0H35.6622V14.3683H35.1211V0ZM42.2409 0H42.782V14.3683H42.2409V0ZM44.1883 0H44.7294V14.3683H44.1883V0ZM45.5957 0H46.1369V14.3683H45.5957V0ZM46.462 0H47.0031V14.3683H46.462V0ZM7.90451 0H8.44565V14.3683H7.90451V0ZM2.48969 0H3.46397V14.3683H2.48969V0ZM8.92015 0H9.89443V14.3683H8.92015V0ZM13.4354 0H14.4097V14.3683H13.4354V0ZM15.747 0H16.7213V14.3683H15.747V0ZM19.3798 0H20.3541V14.3683H19.3798V0ZM29.7373 0H31.2527V14.3683H29.7373V0ZM31.7169 0H32.9083V14.3683H31.7169V0ZM33.8056 0H34.7799V14.3683H33.8056V0ZM36.5676 0H38.1921V14.3683H36.5676V0ZM39.7489 0H41.3735V14.3683H39.7489V0ZM5.41367 0H7.36223V14.3683H5.41367V0ZM10.4643 0H11.9797V14.3683H10.4643V0Z" fill="#010101"/>
<path d="M0.700867 27.1256V18.9016H3.78684C4.3025 18.8817 4.81684 18.9666 5.29881 19.151C5.66829 19.3089 5.97976 19.5774 6.19037 19.9196C6.39904 20.2434 6.51104 20.6201 6.51321 21.0053C6.51324 21.3565 6.41408 21.7006 6.22713 21.998C6.01666 22.3257 5.71688 22.5864 5.36315 22.7493C5.81721 22.8659 6.2207 23.1278 6.51206 23.495C6.78171 23.8534 6.92295 24.292 6.91303 24.7404C6.91614 25.1125 6.83276 25.4803 6.66946 25.8146C6.53133 26.1145 6.32379 26.3772 6.06399 26.581C5.79356 26.7747 5.48741 26.913 5.16324 26.9877C4.72856 27.0875 4.28331 27.1338 3.8374 27.1256H0.700867ZM1.79003 22.3576H3.56855C3.91591 22.3712 4.26356 22.3392 4.60257 22.2622C4.85065 22.1993 5.07061 22.0553 5.22758 21.8532C5.37371 21.643 5.4475 21.391 5.43783 21.1351C5.4429 20.8811 5.37469 20.631 5.24137 20.4148C5.11411 20.2095 4.91643 20.0575 4.68529 19.9874C4.27529 19.8931 3.85445 19.8544 3.43413 19.8725H1.79003V22.3576ZM1.79003 26.1559H3.8374C4.08506 26.1624 4.33284 26.1493 4.57844 26.1168C4.80061 26.0808 5.01389 26.0028 5.2069 25.887C5.38323 25.7731 5.52631 25.6145 5.62166 25.4275C5.73293 25.215 5.78903 24.9779 5.7848 24.7381C5.79249 24.452 5.7101 24.1707 5.54928 23.9339C5.39063 23.7065 5.16053 23.5387 4.89554 23.4571C4.50374 23.3511 4.09825 23.3047 3.69263 23.3192H1.79003V26.1559ZM8.50313 23.1204C8.43432 21.9487 8.82926 20.7968 9.60264 19.9138C9.9671 19.5311 10.4086 19.23 10.8979 19.0304C11.3873 18.8307 11.9134 18.7371 12.4416 18.7557C13.1629 18.7458 13.8731 18.9342 14.4947 19.3003C15.0989 19.6575 15.5839 20.1856 15.8883 20.818C16.2167 21.5067 16.3807 22.2622 16.3674 23.0251C16.3809 23.8007 16.2079 24.5683 15.8631 25.2632C15.5504 25.8957 15.0511 26.417 14.4327 26.7568C13.8214 27.0938 13.1339 27.2686 12.4359 27.2646C11.7054 27.2767 10.9863 27.0827 10.3609 26.7051C9.75917 26.3403 9.27716 25.8075 8.97418 25.1724C8.66207 24.5335 8.5009 23.8315 8.50313 23.1204V23.1204ZM9.62561 23.1377C9.57884 23.9934 9.86732 24.8337 10.4299 25.4803C10.6835 25.7582 10.9939 25.9784 11.3399 26.126C11.686 26.2737 12.0597 26.3454 12.4359 26.3363C12.8143 26.3459 13.1903 26.2735 13.5381 26.1242C13.8859 25.9749 14.1974 25.7521 14.451 25.4711C15.0185 24.7849 15.3025 23.9079 15.2449 23.0193C15.26 22.4178 15.146 21.8199 14.9106 21.2661C14.7031 20.7885 14.3574 20.384 13.9179 20.1046C13.4788 19.8286 12.9694 19.6854 12.4508 19.6921C12.0833 19.6865 11.7183 19.7538 11.377 19.8901C11.0356 20.0263 10.7247 20.2289 10.462 20.486C10.1513 20.8487 9.917 21.2704 9.77327 21.7259C9.62954 22.1814 9.57932 22.6612 9.62561 23.1365V23.1377ZM18.1517 27.1256V18.9016H19.2397V26.1547H23.2896V27.1256H18.1517ZM25.0337 27.1256V18.9016H30.9804V19.8725H26.1217V22.3909H30.6714V23.356H26.1217V26.1547H31.1712V27.1256H25.0337ZM35.1924 27.1256V19.8725H32.4821V18.9016H39.001V19.8725H36.2804V27.1256H35.1924ZM40.004 23.1204C39.9358 21.9483 40.3316 20.7965 41.1058 19.9138C41.4703 19.5311 41.9117 19.23 42.4011 19.0304C42.8905 18.8307 43.4166 18.7371 43.9448 18.7557C44.6661 18.7458 45.3763 18.9342 45.9979 19.3003C46.6021 19.6575 47.087 20.1856 47.3915 20.818C47.7199 21.5067 47.8839 22.2622 47.8706 23.0251C47.884 23.8007 47.7111 24.5683 47.3662 25.2632C47.0525 25.8968 46.5515 26.4186 45.9312 26.7579C45.3199 27.0949 44.6325 27.2698 43.9344 27.2657C43.2035 27.2777 42.4839 27.0834 41.8583 26.7051C41.2579 26.3397 40.7771 25.8071 40.475 25.1724C40.1629 24.5335 40.0018 23.8315 40.004 23.1204V23.1204ZM41.1265 23.1377C41.0797 23.9934 41.3682 24.8337 41.9307 25.4803C42.1844 25.7582 42.4947 25.9784 42.8408 26.126C43.1869 26.2737 43.5606 26.3454 43.9367 26.3363C44.3162 26.347 44.6935 26.2753 45.0426 26.1262C45.3917 25.977 45.7043 25.7539 45.9588 25.4723C46.5263 24.7861 46.8103 23.9091 46.7527 23.0205C46.7645 22.4182 46.647 21.8203 46.408 21.2673C46.2005 20.7897 45.8548 20.3851 45.4154 20.1057C44.9763 19.8298 44.4668 19.6865 43.9482 19.6932C43.5807 19.6877 43.2157 19.755 42.8744 19.8912C42.5331 20.0275 42.2221 20.23 41.9594 20.4871C41.6492 20.8499 41.4155 21.2715 41.2721 21.7268C41.1288 22.182 41.0789 22.6615 41.1253 23.1365L41.1265 23.1377Z" fill="black"/>
</svg>
