<svg width="254" height="75" viewBox="0 0 254 75" fill="none" xmlns="http://www.w3.org/2000/svg">
<g clip-path="url(#clip0_145_10)">
<path d="M193.346 68.9041C180.991 71.1218 168.929 72.6011 157.159 73.3419C145.389 74.0828 133.952 74.3067 122.847 74.0137C111.741 73.7207 100.874 72.9736 90.2437 71.7723C79.6291 70.6597 69.4025 69.3402 59.5639 67.8139C53.0048 66.7963 46.2711 64.3986 39.363 62.6206C32.4707 60.9312 27.0087 59.0123 21.0665 56.6951C15.1243 54.378 9.0466 51.872 6.23322 48.6576C3.9811 46.0845 1.41706 42.1217 0.937505 40.0467C0.457955 37.9717 -0.256084 34.1312 0.937515 30.7612C2.40281 26.624 4.09624 24.6356 7.611 21.7183C11.1258 18.8011 15.5278 16.0904 20.8171 13.5862C26.3283 11.1337 32.6635 9.1277 39.8228 7.56825C41.6601 7.147 43.4974 6.72574 45.3347 6.30449C47.3938 5.93488 49.35 5.58375 51.2032 5.25109C61.7049 3.36606 71.9851 2.02376 82.0439 1.2242C92.1027 0.424645 102.011 -0.0278558 111.769 -0.133296C121.543 -0.150138 131.048 0.109961 140.284 0.647C149.536 1.27264 158.701 2.00535 167.779 2.84515C173.419 3.47894 179.154 4.04995 184.984 4.55818C190.83 5.155 196.589 5.85891 202.261 6.6699C203.591 6.97972 203.305 7.40043 203.4 7.93203C203.495 8.46362 204.06 7.99902 203.094 8.53823C202.35 9.12907 201.36 9.53538 200.125 9.75715C199.507 9.86806 198.565 9.94576 197.297 9.99036C186.493 9.00323 175.371 7.07463 163.916 6.02121C152.684 5.01943 141.08 4.31307 129.103 3.90214C117.349 3.54284 105.254 3.65615 92.819 4.24209C80.6056 4.87967 68.0126 6.36275 55.0401 8.69132C52.9809 9.06093 50.9218 9.43055 48.8626 9.80017C47.0094 10.1329 44.9662 10.5911 42.7329 11.1748C37.4269 12.4016 32.8101 13.9162 28.8827 15.7187C25.1612 17.4841 21.5958 18.6834 17.51 21.5499C14.3399 23.7739 10.7608 25.6063 9.04661 29.0787C7.5522 32.1058 7.25317 22.2433 7.611 25.2871C8.20692 30.356 19.3607 13.6824 22.2453 15.7187C24.4113 17.2478 31.5313 7.75357 37.3315 9.80017C44.063 12.1754 44.9924 6.12245 51.2032 7.56825C57.6359 9.06575 63.8277 3.34249 69.5154 4.24209C78.2609 5.59879 78.5941 1.85045 88.3373 2.84515C98.2861 3.80285 108.222 3.48139 118.677 3.70799C129.149 4.02329 140.284 2.84515 154.42 5.25109C165.35 4.56949 177.344 7.56825 185.879 8.69132C192.88 7.43462 192.361 10.5975 198.395 8.69132C204.635 6.74812 221.322 15.8572 225.55 13.3607C230 10.9158 240.565 22.6677 244.228 22.6677C246.769 19.1361 247.525 37.2031 247.178 32.8666C246.78 27.9123 244.273 25.5686 240.565 22.6677C236.871 19.8553 227.669 17.0959 222.551 14.6309C222.075 14.3504 221.579 14.0011 221.486 13.3607C221.411 12.8402 221.621 12.5301 221.881 12.0733C222.211 11.4952 222.529 11.2227 223.103 10.8852C224.399 10.1224 225.622 10.7075 226.953 11.0173C234.146 13.2013 240.303 16.1202 245.422 19.774C250.557 23.5163 252.567 27.5655 253.346 31.9069C254.078 35.9825 252.971 39.8849 250.027 43.6142C247.099 47.4321 243.796 50.0246 238.206 53.2228C232.616 56.4211 225.894 60.1809 218.054 62.6856C210.436 65.2419 202.2 67.3148 193.346 68.9041Z" fill="#FDFDFD"/>
<path d="M193.346 68.9041C180.991 71.1218 168.929 72.6011 157.159 73.3419C145.389 74.0828 133.952 74.3067 122.847 74.0137C111.741 73.7207 100.874 72.9736 90.2437 71.7723C79.6291 70.6597 69.4025 69.3402 59.5639 67.8139C53.0048 66.7963 46.2711 64.3986 39.363 62.6206C32.4707 60.9312 27.0087 59.0123 21.0665 56.6951C15.1243 54.378 9.0466 51.872 6.23322 48.6576C3.9811 46.0845 1.41706 42.1217 0.937505 40.0467C0.457955 37.9717 -0.256084 34.1312 0.937515 30.7612C2.40281 26.624 4.09624 24.6356 7.611 21.7183C11.1258 18.8011 15.5278 16.0904 20.8171 13.5862C26.3283 11.1337 32.6635 9.1277 39.8228 7.56825C41.6601 7.147 43.4974 6.72574 45.3347 6.30449C47.3938 5.93488 49.35 5.58375 51.2032 5.25109C61.7049 3.36606 71.9851 2.02376 82.0439 1.2242C92.1027 0.424645 102.011 -0.0278558 111.769 -0.133296C121.543 -0.150138 131.048 0.109961 140.284 0.647C149.536 1.27264 158.701 2.00535 167.779 2.84515C173.419 3.47894 179.154 4.04995 184.984 4.55818C190.83 5.155 196.589 5.85891 202.261 6.6699C203.591 6.97972 203.305 7.40043 203.4 7.93203C203.495 8.46362 204.06 7.99902 203.094 8.53823C202.35 9.12907 201.36 9.53538 200.125 9.75715C199.507 9.86806 198.565 9.94576 197.297 9.99036C186.493 9.00323 175.371 7.07463 163.916 6.02121C152.684 5.01943 141.08 4.31307 129.103 3.90214C117.349 3.54284 105.254 3.65615 92.819 4.24209C80.6056 4.87967 68.0126 6.36275 55.0401 8.69132C52.9809 9.06093 50.9218 9.43055 48.8626 9.80017C47.0094 10.1329 44.9662 10.5911 42.7329 11.1748C37.4269 12.4016 32.8101 13.9162 28.8827 15.7187C25.1612 17.4841 21.5958 18.6834 17.51 21.5499C14.3399 23.7739 10.7608 25.6063 9.04661 29.0787C7.5522 32.1058 7.67318 34.6194 8.03101 37.6632C8.62693 42.7321 15.305 46.95 18.1896 48.9863C20.3556 50.5154 27.0054 52.8073 32.8056 54.8539C39.5371 57.2291 44.1112 58.6319 50.322 60.0777C56.7547 61.5752 62.815 62.7738 68.5027 63.6734C77.2482 65.0301 86.4925 66.2058 96.2357 67.2005C106.184 68.1582 116.387 68.7505 126.842 68.9771C137.314 69.2924 148.015 69.1092 158.945 68.4276C169.875 67.746 180.797 66.4257 191.71 64.4668C198.711 63.2101 205.229 61.6286 211.263 59.7224C217.503 57.7792 222.737 55.5593 226.965 53.0628C231.415 50.6179 238.72 48.7695 242.793 43.1075C245.334 39.5759 247.525 37.2031 247.178 32.8666C246.78 27.9123 244.273 25.5686 240.565 22.6677C236.871 19.8553 227.669 17.0959 222.551 14.6309C222.075 14.3504 221.579 14.0011 221.486 13.3607C221.411 12.8402 221.621 12.5301 221.881 12.0733C222.211 11.4952 222.529 11.2227 223.103 10.8852C224.399 10.1224 225.622 10.7075 226.953 11.0173C234.146 13.2013 240.303 16.1202 245.422 19.774C250.557 23.5163 252.567 27.5655 253.346 31.9069C254.078 35.9825 252.971 39.8849 250.027 43.6142C247.099 47.4321 243.796 50.0246 238.206 53.2228C232.616 56.4211 225.894 60.1809 218.054 62.6856C210.436 65.2419 202.2 67.3148 193.346 68.9041Z" fill="#A0009E"/>
</g>
<defs>
<clipPath id="clip0_145_10">
<rect width="254" height="75" fill="white"/>
</clipPath>
</defs>
</svg>
