<svg width="254" height="75" viewBox="0 0 254 75" fill="none" xmlns="http://www.w3.org/2000/svg">
<path d="M193.63 69.0423C181.275 71.26 169.213 72.7393 157.443 73.4801C145.673 74.221 134.236 74.4449 123.131 74.1519C112.025 73.8589 101.158 73.1118 90.5272 71.9105C79.9126 70.7979 69.686 69.4784 59.8474 67.9521C53.2883 66.9345 46.5546 64.5368 39.6465 62.7588C32.7542 61.0694 27.2922 59.1505 21.35 56.8333C15.4078 54.5162 9.33011 52.0102 6.51673 48.7958C4.26461 46.2227 1.70057 42.2599 1.22101 40.1849C0.74146 38.1099 0.027421 34.2694 1.22102 30.8994C2.68632 26.7622 4.37975 24.7738 7.89451 21.8565C11.4093 18.9393 15.8113 16.2286 21.1006 13.7244C26.6118 11.2719 32.947 9.26594 40.1063 7.70649C41.9436 7.28524 43.7809 6.86398 45.6182 6.44273C47.6773 6.07312 49.6335 5.72199 51.4867 5.38933C61.9884 3.5043 72.2686 2.162 82.3274 1.36244C92.3862 0.562882 102.295 0.110381 112.053 0.00494131C121.827 -0.0119007 131.332 0.248198 140.568 0.785237C149.82 1.41088 158.985 2.14359 168.063 2.98339C173.703 3.61718 179.438 4.18819 185.268 4.69642C191.114 5.29324 196.873 5.99715 202.545 6.80814C203.875 7.11796 203.589 7.53867 203.684 8.07027C203.779 8.60186 204.344 8.13726 203.378 8.67647C202.634 9.26731 201.644 9.67362 200.409 9.89539C199.791 10.0063 198.849 10.084 197.581 10.1286C186.777 9.14147 175.655 7.21287 164.2 6.15945C152.968 5.15767 141.364 4.45131 129.387 4.04038C117.633 3.68108 105.538 3.79439 93.1025 4.38033C80.8891 5.01791 68.2961 6.50099 55.3236 8.82956C53.2644 9.19917 51.2053 9.56879 49.1461 9.93841C47.2929 10.2711 45.2497 10.7293 43.0164 11.313C37.7104 12.5398 33.0936 14.0544 29.1662 15.8569C25.4447 17.6223 21.8793 18.8216 17.7935 21.6881C14.6234 23.9121 11.0443 25.7445 9.33011 29.2169C7.8357 32.244 7.95669 34.7576 8.31452 37.8014C8.91044 42.8703 15.5885 47.0882 18.4731 49.1245C20.6391 50.6536 27.2889 52.9455 33.0891 54.9921C39.8206 57.3673 44.3947 58.7701 50.6055 60.2159C57.0382 61.7134 63.0985 62.912 68.7862 63.8116C77.5317 65.1683 86.776 66.344 96.5192 67.3387C106.468 68.2964 116.671 68.8887 127.126 69.1153C137.598 69.4306 148.299 69.2474 159.229 68.5658C170.159 67.8842 181.081 66.5639 191.994 64.605C198.995 63.3483 205.513 61.7668 211.547 59.8606C217.787 57.9174 223.021 55.6975 227.249 53.201C231.699 50.7561 239.004 48.9077 243.077 43.2457C245.618 39.7141 247.809 37.3413 247.462 33.0048C247.064 28.0505 244.557 25.7068 240.849 22.8059C237.155 19.9935 227.953 17.2341 222.835 14.7691C222.359 14.4886 221.863 14.1393 221.77 13.4989C221.695 12.9784 221.905 12.6683 222.165 12.2115C222.495 11.6334 222.813 11.3609 223.387 11.0234C224.683 10.2606 225.906 10.8457 227.237 11.1555C234.43 13.3395 240.587 16.2584 245.706 19.9122C250.841 23.6545 252.851 27.7037 253.63 32.0451C254.362 36.1207 253.255 40.0231 250.311 43.7524C247.383 47.5703 244.08 50.1628 238.49 53.361C232.9 56.5593 226.178 60.3191 218.338 62.8238C210.72 65.3801 202.484 67.453 193.63 69.0423Z" fill="#A0009E"/>
</svg>
