<svg width="100" height="100" viewBox="0 0 100 100" fill="none" xmlns="http://www.w3.org/2000/svg">
<path fill-rule="evenodd" clip-rule="evenodd" d="M71.4343 54.1158C71.1207 52.757 70.7025 51.2935 70.1799 50.0392C70.1799 49.9347 70.1799 49.9346 70.0754 49.8301C69.5527 45.2308 69.3437 40.8406 69.4482 36.4503C67.9848 29.8649 67.8803 20.9799 72.166 18.0531C72.375 17.2168 72.6886 16.2761 72.8977 15.4398C73.7339 12.6175 71.0161 10.945 68.9255 11.5722C68.9255 11.2586 68.821 10.945 68.821 10.6314C68.2984 7.49556 64.1172 7.18197 62.5492 9.58615C61.2949 8.85444 59.7269 8.95899 58.6816 9.89976C57.4273 8.33181 54.814 8.43632 53.6642 10.0043C52.2008 9.27256 50.3193 9.79523 49.483 11.4677C48.5423 10.8405 47.1834 10.8405 46.1381 11.3632C46.1381 11.2586 46.1381 11.1541 46.1381 11.0496C45.6154 8.0182 40.7025 8.33181 40.807 11.4677C40.807 11.8858 40.807 12.4085 40.9116 12.8266C40.4934 12.7221 39.9708 12.7221 39.3436 12.9311C38.0893 13.2447 37.253 13.6628 36.6259 14.29C36.2077 13.9764 35.7896 13.5583 35.267 13.2447C33.0718 11.7813 30.145 14.3945 31.5039 16.6942C34.1171 21.5026 34.5353 26.6245 35.267 31.9555C33.9081 34.5688 33.1764 37.7047 32.7583 40.9451C32.3401 41.9904 32.0266 43.0357 31.713 44.1855C30.7722 45.2308 29.9359 46.3806 29.2042 47.7395C23.7687 52.966 21.5736 64.9869 24.9185 71.8859C25.0231 76.6943 27.4272 83.4887 31.2948 84.2204C31.6084 84.8476 32.1311 85.3702 32.9673 85.4748C33.1764 85.4748 33.49 85.4748 33.699 85.3702C34.0126 86.1019 34.4307 86.7291 35.0579 87.0427C35.7896 87.4608 36.5213 87.3563 37.1485 86.9382C37.4621 87.6699 37.7757 88.4016 38.0893 89.1333C38.821 90.8058 40.1799 90.4922 41.1206 89.656C42.2705 91.2239 44.5701 90.5967 44.8837 89.1333C45.5109 90.3877 46.9743 90.3877 47.8105 89.656C48.1241 89.656 48.3332 89.656 48.6468 89.5514C49.3785 91.0148 51.4691 91.5375 52.828 90.8058C53.1416 91.0149 53.4551 91.1194 53.8733 91.1194H53.9778C53.9778 91.3284 53.8733 91.5375 53.8733 91.642C54.7095 91.433 55.6503 91.3284 56.4865 91.2239C56.9046 91.9556 57.7409 92.4782 58.5771 92.0601C58.8907 91.8511 59.2043 91.642 59.4133 91.3284C60.2496 91.433 61.0858 91.7465 61.8175 92.0601C62.0266 91.9556 62.1311 91.9556 62.3402 91.8511C63.2809 92.4783 64.6398 92.4783 65.3715 91.1194C66.1032 89.7605 66.7304 88.2971 67.3576 86.9382C68.2984 85.2657 69.1346 83.3842 69.7618 81.6072C72.166 77.426 72.8977 72.7221 73.1067 68.0183C73.7339 64.0462 73.7339 60.1786 72.7931 56.1019C72.7931 55.1611 72.166 54.534 71.4343 54.1158Z" fill="#FFD9B5"/>
<path fill-rule="evenodd" clip-rule="evenodd" d="M71.9568 52.9659C71.6432 51.816 71.225 50.6662 70.5979 49.6209C69.9707 48.3666 68.5073 47.6348 67.1484 47.9484C65.4759 48.262 63.908 48.7847 62.34 49.3073C53.7686 51.1888 45.4062 47.1122 36.7302 47.3213C35.5804 46.485 34.4306 45.6488 33.2808 44.8125C32.1309 43.9763 30.0403 44.6035 29.7267 46.0669C29.7267 46.3805 29.6222 46.6941 29.5177 47.0077C29.3086 47.2167 29.2041 47.4258 28.995 47.7394C28.8905 47.9484 28.786 48.1575 28.6814 48.4711C28.3678 49.2028 28.0543 49.83 27.9497 50.6662C27.4271 52.5478 29.2041 54.0112 30.772 53.593C30.9811 53.9066 31.2947 54.2202 31.6083 54.5338C31.8173 54.9519 32.1309 55.2655 32.549 55.5791C34.8487 57.2516 37.1484 58.4014 39.7616 59.1331C40.8069 59.6557 41.7477 60.1784 42.6884 60.8056C43.9428 62.4781 45.1971 64.1506 46.556 65.823C47.7059 67.391 50.6327 66.9729 51.3644 65.1958C51.887 64.6732 52.2006 64.046 52.3052 63.2098C53.1414 62.7917 53.9776 62.3735 54.8139 61.8509C55.4411 61.5373 56.0682 61.3282 56.6954 61.0147C57.6362 61.4328 58.786 61.3282 59.7268 60.3875C60.2494 59.9694 60.7721 59.5512 61.2947 59.1331C61.3992 59.1331 61.3993 59.0286 61.5038 59.0286C61.8174 58.9241 62.1309 58.715 62.34 58.5059C64.3261 57.4607 66.5212 56.8335 68.6118 56.7289C70.5979 56.7289 72.5839 55.161 71.9568 52.9659Z" fill="white"/>
<path fill-rule="evenodd" clip-rule="evenodd" d="M67.9848 47.3214C63.9082 48.6803 59.936 50.5618 55.4412 50.2482C51.3646 49.9346 47.3925 49.0984 43.2113 48.8893C43.1067 48.8893 43.0022 48.8893 42.8977 48.8893C41.6433 48.3667 40.389 47.7395 39.2391 47.4259C36.6259 46.6942 34.1172 46.067 31.6085 45.1263C30.145 44.4991 29.2043 46.6942 30.4586 47.5305C32.7583 49.2029 35.5806 49.7256 38.2984 50.3527C39.3436 50.5618 40.2844 50.8754 41.3297 51.189C41.4343 52.0252 42.0614 52.7569 43.1067 52.7569C44.7792 52.8615 46.4517 53.2796 48.1242 53.3841C48.3332 53.3841 48.4377 53.3841 48.5423 53.3841C50.9465 53.8022 53.4552 54.2203 55.7548 53.9067C60.4587 53.2796 64.8489 52.7569 69.3437 51.0845C71.5388 50.4573 70.1799 46.4851 67.9848 47.3214Z" fill="#3FC4FF"/>
<path fill-rule="evenodd" clip-rule="evenodd" d="M29.0996 34.6733C28.5769 32.7918 27.9497 30.283 26.5909 28.8196C26.3818 28.297 26.1727 27.6698 25.7546 27.1472C25.5456 26.9381 25.1274 27.0426 25.0229 27.2517C24.9184 27.7743 24.8139 28.297 24.6048 28.9242C23.664 28.506 22.6187 28.1925 21.678 27.8789C19.901 27.2517 16.8696 26.7291 15.9288 25.0566C15.3017 24.0113 13.7337 23.6977 13.002 24.952C12.3748 25.9973 11.7476 27.2517 11.225 28.4015C9.97063 29.0287 9.65704 30.8057 10.3887 32.1646C10.3887 32.2691 10.3887 32.3736 10.3887 32.5827C10.4933 33.5235 11.7476 34.3597 12.3748 33.7325C15.3017 34.7778 18.333 35.1959 21.2599 36.3458C21.0508 36.8684 20.8417 37.4956 20.7372 37.9137C20.4236 38.75 19.6919 41.1541 21.4689 41.0496C22.0961 40.9451 22.5142 40.527 22.8278 40.0043C23.5595 40.0043 24.2912 39.6907 24.8139 39.4817C25.8592 38.959 26.9044 38.2273 27.8452 37.4956C28.0543 37.2866 28.1588 37.0775 28.2633 36.8684C28.8905 36.3458 29.4132 35.6141 29.0996 34.6733Z" fill="#FFA3DB"/>
<path fill-rule="evenodd" clip-rule="evenodd" d="M82.5142 37.2865C82.6187 37.391 82.6187 37.4956 82.7232 37.6001C83.7685 37.4956 84.9184 37.6001 86.0682 37.8092C86.6954 37.8092 87.4271 37.8092 88.0543 37.6001C89.9358 36.9729 90.772 34.1506 89.0996 33.1053C89.0996 33.1053 89.0995 32.8963 88.995 32.5827C88.995 32.2691 88.8905 32.06 88.786 31.851C89.5177 30.074 88.3678 27.6698 86.1727 28.4015C83.3504 29.3422 80.4236 30.283 78.0194 32.06C78.0194 31.851 77.9149 31.5374 77.9149 31.3283C77.7058 30.3876 76.8696 29.8649 76.1379 29.8649C75.7198 31.851 74.4654 33.7325 73.4201 35.3005C73.1065 35.8231 72.5839 36.1367 72.1657 36.2412C72.0612 36.6593 72.1657 36.9729 72.2703 37.391C74.0473 38.0182 75.7197 39.2726 77.2877 40.4224C77.7058 40.736 78.0194 41.0496 78.4375 41.2587C78.7511 41.0496 78.9602 40.736 78.9602 40.4224C78.7511 40.2133 78.6466 39.8998 78.6466 39.5862C78.6466 39.2726 78.6466 38.8545 78.6466 38.5409C78.6466 38.5409 78.6466 38.5409 78.6466 38.4363C78.6466 38.4363 78.6466 38.4363 78.7511 38.3318C78.8556 37.7046 79.1692 37.2865 79.7964 36.8684C80.5281 36.3457 81.887 36.5548 82.5142 37.2865Z" fill="#FFA3DB"/>
<path fill-rule="evenodd" clip-rule="evenodd" d="M72.5839 57.1471C70.0752 56.9381 67.9846 57.7743 66.1031 58.4015C64.3261 59.0287 62.5491 60.074 60.7721 61.0147C58.3679 62.1646 55.6501 64.0461 53.455 65.7186C52.7233 66.3458 51.678 66.8684 51.3644 67.4956C50.6327 68.7499 50.3191 70.736 49.901 72.6175C49.1693 76.2761 48.333 79.621 48.333 84.0113C48.333 84.8475 48.333 86.1019 48.333 87.2517C48.333 88.088 48.5421 89.5514 47.4968 89.5514C46.1379 89.6559 46.4515 87.4608 46.4515 85.9973C46.4515 80.3527 46.9742 75.5444 48.2285 71.2586C47.3923 69.0635 45.7198 67.182 44.0473 65.614C39.239 60.8057 33.8034 56.2063 26.7999 53.384C25.6501 55.3701 25.0229 57.0426 24.5003 59.0287C23.3504 63.837 24.5003 70.2134 25.6501 74.1855C26.5909 77.635 27.8452 80.0392 29.8313 82.966C30.563 84.0113 31.8173 84.5339 31.6083 85.3702C31.2947 86.52 29.9358 86.1019 29.2041 85.2656C28.6815 84.743 27.9498 83.4886 27.5316 82.966C24.7093 78.7848 22.6187 73.1402 22.2006 66.5548C21.5734 57.8788 24.6048 52.9659 27.5316 47.844C29.2041 44.8126 30.9811 42.4084 32.1309 38.7499C32.8626 36.4502 33.1762 33.9415 32.9672 30.5966C32.8626 26.6244 32.34 23.175 31.2947 20.2481C31.0856 19.621 31.0856 18.8892 30.772 18.3666C30.4585 17.7394 29.2041 17.2167 29.5177 16.276C29.8313 15.3352 30.9811 15.7533 31.6083 16.276C32.34 16.9032 32.5491 17.8439 32.7581 18.3666C33.2808 20.1436 33.8034 21.8161 34.117 23.5931C34.6396 26.5199 35.1623 32.06 34.7442 35.9276C34.4306 38.8544 33.0717 40.945 32.2355 43.6628C34.4306 45.2307 37.3574 46.276 40.1797 47.5304C41.1205 47.9485 42.2703 48.3666 43.2111 48.5757C44.2564 48.7848 45.5107 48.6802 46.6606 48.8893C49.6919 49.4119 53.8731 49.7255 57.2181 49.5165C61.8174 49.2029 65.4759 47.844 68.5073 46.276C67.1484 39.8997 66.6257 32.1645 68.0892 24.8474C68.6118 22.1297 69.3435 19.5164 70.3888 16.9032C70.807 15.9624 71.1205 14.8126 71.4341 14.499C74.4655 13.7673 71.9568 17.8439 71.4341 19.7255C69.8662 24.6384 68.7163 30.3875 69.1345 37.1819C69.239 38.5408 69.5526 39.7952 69.7616 41.1541C69.9707 43.3492 70.1798 45.5443 70.5979 47.4259C71.4341 50.9799 73.4202 53.8022 74.2564 57.0426C74.9881 59.7604 74.9881 63.628 74.8836 67.2865C74.6745 72.6175 72.793 76.4851 71.4341 80.6663C70.807 82.6524 70.1798 84.743 69.1345 86.7291C68.7163 87.5653 68.2982 88.5061 67.6711 89.5514C67.1484 90.5967 66.7303 91.851 65.7895 91.7465C63.908 91.5374 66.2076 88.297 66.4167 87.6698C67.2529 86.1019 68.0892 84.9521 68.5073 83.5932C69.3435 81.2935 69.9707 78.5757 70.9115 75.9625C71.8522 73.4538 72.6885 70.527 72.793 67.9137C73.3157 64.0461 73.2111 60.074 72.5839 57.1471ZM30.4585 46.5896C30.6675 47.0077 30.9811 47.4259 31.6083 47.5304C31.7128 46.7987 32.0264 46.3806 32.2355 45.7534C31.9219 45.6489 31.7128 45.4398 31.3992 45.2307C31.0856 45.7534 30.772 46.1715 30.4585 46.5896ZM33.0717 46.3806C32.9672 47.0077 32.6536 47.4259 32.4445 48.0531C32.9672 48.2621 33.3853 48.5757 33.9079 48.6802C34.0125 48.053 34.3261 47.6349 34.4306 46.9032C33.9079 46.7987 33.6989 46.276 33.0717 46.3806ZM34.7442 48.9938C35.2668 49.0983 35.7895 49.3074 36.3121 49.5165C36.2076 48.8893 36.5212 48.5757 36.5212 47.9485C36.1031 47.844 35.7895 47.5304 35.3714 47.3213C35.2668 48.053 35.0578 48.5757 34.7442 48.9938ZM61.7129 53.2795C61.2947 53.3841 60.8766 53.5931 60.4585 53.6977C60.1449 53.8022 59.7268 53.6977 59.3087 53.6977C57.9498 53.9067 56.5909 54.3248 55.232 54.3248C50.7372 54.5339 45.8243 54.1158 42.5839 52.8614C39.0299 51.5025 35.0578 50.1436 32.1309 48.7847C31.2947 48.3666 30.4585 48.3666 30.0403 47.7394C30.0403 47.6349 29.9358 47.6349 29.8313 47.7394C29.0996 48.9938 28.3679 50.2482 27.7407 51.6071C31.3992 52.9659 34.6396 55.2656 37.7755 57.4607C40.8069 59.6559 43.9428 62.06 46.2425 64.8823C47.1832 66.0321 48.0195 67.4956 49.1693 68.2273C49.7965 65.614 52.2007 64.1506 54.1867 62.6872C59.2041 59.0287 65.4759 56.3109 71.9568 54.8475C71.3296 53.5931 70.8069 52.3388 70.2843 50.8753C67.5665 52.0252 64.6397 52.6524 61.7129 53.2795ZM67.8801 48.6802C67.8801 49.4119 68.0892 49.83 68.1937 50.4572C68.8209 50.2482 69.5526 50.2482 69.7616 49.621C69.6571 49.0984 69.3435 48.6802 69.239 48.1576C68.6118 48.2621 68.2982 48.5757 67.8801 48.6802ZM37.1484 49.83C37.462 49.9346 37.7755 50.0391 38.0891 50.1436C38.1937 49.621 38.2982 49.2029 38.2982 48.5757C37.9846 48.5757 37.7755 48.3666 37.462 48.3666C37.462 48.9938 37.3574 49.3074 37.1484 49.83ZM39.1344 50.5618C39.9707 50.6663 40.3888 51.0844 41.1205 51.1889C41.4341 50.6663 40.8069 50.3527 41.016 49.621C40.4933 49.4119 39.8661 49.2029 39.3435 48.9938C39.239 49.5165 39.1344 50.0391 39.1344 50.5618ZM65.5805 49.7255C65.5805 50.2482 65.7895 50.7708 65.894 51.2935C66.4167 51.1889 66.8348 51.0844 67.2529 50.8753C67.1484 50.2482 67.1484 49.5165 66.7303 49.0984C66.4167 49.4119 65.9986 49.621 65.5805 49.7255ZM42.0613 51.5025C42.4794 51.6071 42.6884 51.8161 43.1066 51.9206C43.3156 51.5025 43.4202 50.9799 43.6292 50.4572C43.3156 50.2482 42.793 50.3527 42.4794 50.1436C42.4794 50.7708 42.2703 51.0844 42.0613 51.5025ZM63.4899 50.4572C63.4899 50.8753 63.4899 51.398 63.4899 51.8161C64.0125 51.8161 64.3261 51.6071 64.7442 51.5025C64.8487 50.8753 64.5352 50.6663 64.5352 50.1436C64.2216 50.2482 63.8035 50.3527 63.4899 50.4572ZM44.1519 52.3387C44.4654 52.5478 44.8836 52.7569 45.4062 52.7569C45.4062 51.9207 45.7198 51.398 45.8243 50.6663C44.2564 50.0391 44.57 51.607 44.1519 52.3387ZM46.347 52.9659C46.7651 53.0705 47.0787 53.0705 47.6013 53.0705C47.7059 52.4433 47.9149 51.8161 47.9149 50.9799C47.6013 50.8753 47.1832 50.8753 46.7651 50.7708C46.6606 51.607 46.4515 52.2342 46.347 52.9659ZM60.9812 51.1889C60.9812 51.6071 60.9812 51.9206 60.9812 52.3387C61.6083 52.4433 62.0265 52.2342 62.5491 52.1297C62.5491 51.7116 62.5491 51.1889 62.5491 50.7708C61.9219 50.8753 61.2947 50.8754 60.9812 51.1889ZM48.6466 53.2795C49.0648 53.2795 49.4829 53.2795 49.901 53.2795C50.0055 52.6524 50.0055 51.8161 50.0055 51.0844C49.5874 51.0844 49.1693 51.0844 48.9602 50.9799C48.9602 51.8161 48.6466 52.4433 48.6466 53.2795ZM50.9463 53.2795C51.4689 53.2795 52.0961 53.3841 52.5142 53.175C52.5142 52.5478 52.5142 51.9206 52.5142 51.398C52.0961 51.2935 51.5735 51.1889 51.0508 51.1889C51.0508 51.9207 50.9463 52.5478 50.9463 53.2795ZM58.577 51.2935C58.4724 51.9206 58.6815 52.2342 58.6815 52.8614C59.0996 52.7569 59.6223 52.7569 60.0404 52.5478C60.0404 52.1297 60.0404 51.6071 60.0404 51.1889C59.4132 51.0844 58.9951 51.1889 58.577 51.2935ZM53.455 53.175C53.8731 53.175 54.3958 53.175 54.8139 53.175C54.8139 52.5478 54.8139 51.9206 54.8139 51.398C53.3505 50.9799 53.3505 52.0252 53.455 53.175ZM55.8592 53.0705C56.4864 53.0705 57.1135 53.0705 57.6362 52.9659C57.7407 52.3388 57.5317 51.9206 57.5317 51.2935C57.009 51.2935 56.4864 51.2935 55.8592 51.2935C55.8592 51.9206 55.8592 52.5478 55.8592 53.0705Z" fill="#212121"/>
<path fill-rule="evenodd" clip-rule="evenodd" d="M27.4272 17.3214C27.4272 17.3214 27.5317 17.3214 27.4272 17.3214C29.0997 18.1576 29.8314 20.7709 30.6676 22.757C30.8767 23.1751 31.2948 24.0113 30.6676 24.2204C29.9359 24.4294 29.5178 22.4434 29.2042 21.8162C28.7861 20.8754 28.2634 19.7256 27.9498 19.203C27.6362 18.6803 26.3819 17.8441 27.4272 17.3214Z" fill="#212121"/>
<path fill-rule="evenodd" clip-rule="evenodd" d="M74.9882 19.2028C75.3018 19.83 74.6746 20.2481 74.4655 20.7707C74.0474 21.7115 73.8383 22.8613 73.4202 23.8021C73.1066 24.7429 73.0021 26.1018 72.0613 26.6244C71.3296 25.6837 72.1659 24.2202 72.6885 22.9659C73.2112 21.5025 73.6293 20.039 74.361 19.0983C74.57 19.2028 74.8836 19.0983 74.9882 19.2028Z" fill="#212121"/>
<path fill-rule="evenodd" clip-rule="evenodd" d="M24.0823 28.297C25.0231 27.4608 24.7095 25.3702 25.8594 24.743C26.9046 25.0566 26.9047 26.311 27.2182 27.2517C27.7409 29.0287 28.5771 30.5967 29.0998 32.7918C29.3088 33.7326 29.8315 35.196 29.727 35.8232C29.6224 36.2413 29.2043 36.4503 29.2043 36.8685C27.4273 38.0183 25.0231 39.4817 22.7235 40.7361C21.6782 41.3633 20.5283 42.6176 19.6921 41.3632C20.0057 39.5862 20.6329 38.1228 20.9465 36.3458C18.5423 36.1368 16.5562 35.3005 14.4656 34.5688C13.0022 33.9416 11.0161 34.1507 10.2844 32.7918C11.0161 32.4782 12.2705 32.7918 13.3158 33.1054C15.1973 33.628 17.1834 34.6733 18.8559 35.196C20.0057 35.3005 21.3646 35.196 21.8872 35.8232C21.7827 37.6002 21.1555 38.9591 20.8419 40.527C23.3506 39.2727 26.1729 37.4957 28.5771 35.9277C27.95 32.4782 26.6956 29.6559 25.6503 26.52C25.2322 27.5653 24.9186 28.8197 24.1869 29.4468C22.3053 28.7151 20.4238 28.088 18.8559 27.0427C17.2879 25.9974 15.5109 25.2657 13.943 24.2204C13.943 24.0113 14.0475 24.0113 14.0475 23.8022C15.8245 23.3841 18.5423 25.8928 20.3193 26.7291C21.7827 27.3562 23.0371 27.6698 24.0823 28.297Z" fill="#212121"/>
<path fill-rule="evenodd" clip-rule="evenodd" d="M88.0547 27.9833C87.8456 29.0286 86.4867 29.1331 85.755 29.4467C83.978 30.0739 82.201 30.7011 80.3195 31.3283C79.4832 31.6419 78.647 32.3736 77.6017 32.269C77.1836 31.5373 76.9745 30.7011 76.5564 30.0739C74.8839 31.8509 74.3613 34.7778 72.6888 36.5548C74.0477 38.4363 76.7655 39.0635 78.4379 40.7359C78.7515 39.5861 78.4379 37.7046 79.0651 36.8683C81.4693 36.6593 85.4414 36.9729 88.0547 36.7638C88.6819 36.7638 89.6226 36.3457 89.7272 37.0774C89.7272 37.7046 88.5773 37.8091 88.1592 37.8091C85.9641 38.0182 82.201 37.6 79.7968 37.9136C79.4832 39.377 80.0059 41.5722 78.5425 41.9903C76.2428 40.3178 73.7341 38.8544 71.4344 37.1819C71.8526 35.614 72.7933 34.5687 73.7341 32.6871C74.0477 32.06 75.5111 28.506 76.3473 28.506C77.3926 28.506 77.6017 30.492 78.2289 31.1192C80.7376 29.8648 84.6052 28.9241 87.1139 27.8788C87.323 27.7742 87.7411 27.4607 88.0547 27.9833Z" fill="#212121"/>
<path fill-rule="evenodd" clip-rule="evenodd" d="M66.2078 29.8649C66.3123 31.4328 65.4761 33.5235 65.3716 35.7186C65.267 37.6001 65.7897 39.6907 64.7444 41.0496C63.8036 40.8405 64.2217 39.8998 64.2217 39.2726C64.3263 36.2412 64.3263 31.9555 65.4761 29.9694C65.6852 29.6558 65.9988 29.7604 66.2078 29.8649Z" fill="#212121"/>
<path fill-rule="evenodd" clip-rule="evenodd" d="M35.5804 40.4224C34.8487 40.1088 35.4759 39.2726 35.685 38.7499C36.4167 36.5548 36.9393 33.3144 36.8348 30.3876C36.9393 30.283 36.9393 30.1785 37.1484 30.074C38.0892 29.8649 37.8801 32.2691 37.7756 33.1053C37.671 34.3597 37.462 35.8231 37.1484 37.2865C36.7303 38.6454 36.5212 40.4224 35.5804 40.4224Z" fill="#212121"/>
<path fill-rule="evenodd" clip-rule="evenodd" d="M51.9917 38.4363C52.2007 39.7952 52.8279 43.0356 51.1554 42.9311C49.692 42.9311 49.5875 36.7638 51.9917 38.4363Z" fill="#212121"/>
<path fill-rule="evenodd" clip-rule="evenodd" d="M22.8279 52.3388C22.6189 53.6976 21.6781 54.952 21.26 56.729C20.6328 59.7604 20.3192 63.8371 20.6328 67.8092C20.7373 69.0635 21.3645 70.736 20.6328 71.4677C19.5875 70.8405 19.692 68.959 19.5875 67.4956C19.2739 62.2691 19.9011 54.952 21.9917 52.4433C22.0962 52.1297 22.4098 51.9206 22.8279 52.3388Z" fill="#212121"/>
<path fill-rule="evenodd" clip-rule="evenodd" d="M74.7791 52.3388C75.9289 51.7117 76.5561 54.743 76.8696 56.311C77.3923 58.1925 77.6014 59.9695 77.6014 61.2239C77.6014 62.3737 77.9149 64.9869 76.9742 64.9869C76.2425 64.8824 76.5561 63.6281 76.5561 63.21C76.5561 61.0148 76.2425 58.5061 75.7198 56.4155C75.5108 54.8476 74.8836 53.5932 74.7791 52.3388Z" fill="#212121"/>
</svg>
