<svg width="100" height="100" viewBox="0 0 100 100" fill="none" xmlns="http://www.w3.org/2000/svg">
<path d="M8.53601 76.2202C8.53601 76.8563 9.03074 77.5631 9.38415 78.0578C9.80823 78.694 10.303 79.3301 10.7271 79.9662C10.9391 80.249 11.0805 80.5317 11.2925 80.7438C11.6459 81.1678 12.1407 81.4505 12.6355 81.5919C13.7664 82.016 15.0387 81.9453 16.1696 82.016C22.1068 82.3694 27.9733 82.6521 33.9105 82.9348C39.8477 83.2176 45.7849 83.4296 51.7221 83.571C57.6593 83.7124 63.5258 83.783 69.463 83.6417C75.4002 83.571 81.2668 83.2883 87.204 82.8642C87.9815 82.7935 88.6883 82.7228 89.4658 82.7228C89.9605 82.6521 90.2433 82.3694 90.2433 81.9453C91.0207 72.9688 91.5155 63.9216 91.7275 54.8745C91.9396 45.8273 91.9396 36.7802 91.6569 27.733C91.5862 26.5314 91.5862 25.2591 91.5155 24.0576C91.5155 23.4214 91.4448 22.7853 91.4448 22.1492C91.4448 21.7958 91.4448 21.4423 91.3741 21.1596C91.3035 20.9476 91.2328 20.7355 91.1621 20.5942C90.8087 19.8167 90.3846 19.0392 89.8899 18.2617C89.4658 17.6963 89.0417 16.9188 88.3349 16.6361C87.9108 16.424 87.4867 16.4947 87.204 16.9188C86.9919 17.2722 87.0626 17.8376 87.4867 18.0497C87.5574 18.0497 87.7694 18.191 87.6281 18.1203C87.6987 18.191 87.8401 18.2617 87.9108 18.4031C88.1228 18.6858 88.3349 18.8978 88.5469 19.1806C88.971 19.8167 89.3244 20.5235 89.6778 21.2303C89.8192 21.513 89.8192 21.8664 89.8192 22.2198C89.8192 22.7853 89.8899 23.4214 89.8899 23.9869C89.9605 25.1178 89.9605 26.178 90.0312 27.3089C90.1726 31.7618 90.2432 36.2147 90.3139 40.5969C90.3846 49.432 90.1726 58.2672 89.6778 67.0316C89.3951 72.05 89.0417 76.9977 88.6176 82.016C88.9003 81.7333 89.183 81.4505 89.3951 81.2385C83.5992 81.6626 77.8034 81.9453 72.0076 82.0867C66.2117 82.228 60.4159 82.228 54.5493 82.0867C48.7535 82.016 42.887 81.804 37.0911 81.5212C31.2953 81.2385 25.4994 80.9558 19.7743 80.6024C18.29 80.5317 16.8763 80.461 15.392 80.3903C14.4732 80.3197 13.2716 80.3903 12.4941 79.8249C12.2821 79.6835 12.2114 79.4715 12.0701 79.2594C11.858 78.9767 11.7166 78.7647 11.5046 78.482C11.0805 77.8458 10.5858 77.2097 10.1617 76.5029C10.091 76.3615 10.0203 76.2202 9.94963 76.1495C9.87895 76.0081 9.94963 76.2909 9.94963 76.1495C9.87895 75.9374 9.94963 76.2908 9.94963 76.2202C10.1617 75.1599 8.53601 75.1599 8.53601 76.2202Z" fill="#362D2A"/>
<path d="M87.9109 17.2015C69.3925 18.5444 29.5991 15.5758 11.2927 17.2722L10.8686 17.9083C10.1618 36.6388 9.52566 55.4399 8.81885 74.1704C8.81885 74.7358 8.81884 75.3013 9.03088 75.7961C9.52565 76.7149 10.7979 76.8563 11.7875 76.927C36.7379 78.3406 61.759 79.7542 86.6387 77.7751C88.4764 57.7017 88.8298 37.4163 87.9109 17.2015Z" fill="#EDD7C4"/>
<path d="M10.0911 17.9084C9.73765 27.0262 9.45495 36.0734 9.10154 45.1913C8.74814 54.2384 8.4654 63.2856 8.11199 72.3328C8.04131 73.393 7.89995 74.5239 8.11199 75.5134C8.32403 76.4323 8.96016 77.0684 9.87902 77.4218C10.6565 77.7045 11.5754 77.7752 12.4236 77.7752C13.5545 77.8459 14.6853 77.9166 15.8162 77.9873C20.3398 78.27 24.7927 78.482 29.3163 78.6941C38.3635 79.1182 47.34 79.4716 56.3871 79.5423C65.4343 79.6129 74.4108 79.4716 83.458 78.8354C84.5889 78.7648 85.6491 78.6941 86.78 78.6234C87.2747 78.5527 87.5575 78.27 87.5575 77.8459C88.1936 70.0003 88.6884 62.084 88.9711 54.2385C89.2538 46.3222 89.3245 38.4766 89.1831 30.5603C89.1125 26.1074 88.9711 21.6545 88.7591 17.2722C88.7591 16.8482 88.4056 16.4241 87.9815 16.4948C83.67 16.7775 79.3585 16.8482 74.9763 16.8482C69.6752 16.8482 64.3741 16.7775 59.073 16.6361C53.4186 16.4948 47.8347 16.3534 42.1803 16.212C36.8085 16.0707 31.4367 16 26.065 16C21.6121 16 17.1592 16.0707 12.7063 16.4241C12.2822 16.4241 11.7874 16.4948 11.3633 16.5654C10.9393 16.6361 10.5858 16.9189 10.5858 17.343C10.5858 17.767 10.9393 18.1911 11.3633 18.1204C15.6749 17.767 19.9864 17.6257 24.2273 17.6257C29.5283 17.555 34.8294 17.6963 40.1305 17.767C45.785 17.9084 51.3688 18.0498 57.0233 18.1911C62.395 18.3325 67.7668 18.4032 73.2092 18.4738C77.6621 18.4738 82.1857 18.4739 86.6386 18.1911C87.0627 18.1911 87.5575 18.1204 87.9815 18.1204C87.6988 17.8377 87.4161 17.555 87.2041 17.343C87.5575 25.2592 87.7695 33.1048 87.6989 41.0211C87.6989 48.9374 87.4161 56.783 86.992 64.6992C86.7093 69.1521 86.4266 73.5344 86.0732 77.9873C86.3559 77.7045 86.6386 77.4218 86.8507 77.2098C78.0155 77.9166 69.1097 78.1993 60.2039 78.1993C51.2981 78.1993 42.3923 77.9166 33.4865 77.4925C29.0336 77.2804 24.5807 77.0684 20.1278 76.7857C17.866 76.6443 15.6042 76.503 13.4131 76.4323C12.5649 76.3616 11.646 76.4323 10.7979 76.2202C10.0911 76.0082 9.80833 75.6548 9.73765 74.948C9.73765 73.8878 9.80834 72.7568 9.87902 71.6966C9.9497 70.5657 9.94971 69.4348 10.0204 68.304C10.0911 66.1128 10.1617 63.9218 10.2324 61.66C10.3738 57.2071 10.5858 52.7542 10.7272 48.2306C11.0806 39.3248 11.3633 30.3483 11.7167 21.4424C11.7874 20.3116 11.7874 19.2513 11.8581 18.1204C11.7167 16.9189 10.0911 16.9189 10.0911 17.9084Z" fill="#362D2A"/>
<path d="M66.5652 22.2199C65.293 22.5734 64.3741 23.7749 64.2328 25.0472C64.1621 25.6833 64.1621 26.3902 64.4448 27.0263C64.7275 27.6624 65.1516 28.1572 65.717 28.5106C66.8479 29.1467 68.3322 29.076 69.3925 28.3692C70.594 27.5917 71.2302 26.1781 70.8061 24.8352C70.382 23.3509 68.8977 22.0079 67.272 22.1493C66.8479 22.1493 66.4239 22.5027 66.4946 22.9268C66.4946 23.3508 66.8479 23.775 67.272 23.7043C67.4134 23.7043 67.4841 23.7043 67.6254 23.7043C67.8375 23.7043 67.4841 23.6336 67.6254 23.7043C67.6961 23.7043 67.7668 23.7043 67.8375 23.7749C67.9081 23.7749 67.9788 23.8456 67.9788 23.8456C68.1909 23.9163 67.8375 23.775 67.9788 23.8456C68.1202 23.9163 68.1909 23.987 68.3322 24.0577C68.3322 24.0577 68.4029 24.0577 68.4029 24.1283C68.5443 24.199 68.3322 24.1284 68.3322 24.0577C68.3322 24.0577 68.4736 24.1284 68.4736 24.1991C68.5443 24.2697 68.6856 24.4111 68.7563 24.4818C68.827 24.5524 68.7563 24.5524 68.7563 24.4111L68.827 24.4818C68.827 24.5524 68.8977 24.5524 68.8977 24.6231C68.8977 24.6938 68.9684 24.7645 68.9684 24.7645C68.9684 24.8352 69.0391 24.9058 69.0391 24.9765C69.0391 24.9765 68.9684 24.8352 69.0391 24.9059V24.9765C69.0391 25.0472 69.1097 25.1179 69.1097 25.1179C69.1097 25.1886 69.1097 25.2593 69.1804 25.3299V25.4006C69.1804 25.542 69.1804 25.2593 69.1804 25.3299C69.1804 25.4713 69.1804 25.542 69.1804 25.6833C69.1804 25.754 69.1804 25.8954 69.1804 25.754C69.1804 25.6126 69.1804 25.754 69.1804 25.754C69.1804 25.8247 69.1804 25.8247 69.1804 25.8954C69.1804 25.9661 69.1804 26.0367 69.1097 26.1074V26.1781C69.1097 26.2488 69.1804 26.0367 69.1097 26.1074C69.039 26.1781 69.0391 26.3195 68.9684 26.3901C68.9684 26.3901 68.9684 26.4608 68.8977 26.4608C68.827 26.5315 69.0391 26.3195 68.9684 26.3901C68.9684 26.4608 68.8977 26.4608 68.8977 26.5315C68.827 26.6022 68.6857 26.6729 68.615 26.7436C68.7563 26.6022 68.7563 26.6729 68.6856 26.6729C68.6856 26.6729 68.615 26.6729 68.615 26.7436C68.5443 26.7436 68.5443 26.8142 68.4736 26.8142C68.4029 26.8849 68.2616 26.8849 68.1909 26.9556C68.1909 26.9556 68.4029 26.8849 68.2616 26.9556H68.1909C68.1202 26.9556 68.0495 27.0263 68.0495 27.0263C67.9081 27.0263 67.8375 27.097 67.6961 27.097C67.4841 27.1676 67.9081 27.097 67.6961 27.097C67.6254 27.097 67.6254 27.097 67.5548 27.097C67.4134 27.097 67.3427 27.097 67.2014 27.097H67.1307C66.9893 27.097 67.2014 27.097 67.2014 27.097C67.1307 27.097 67.06 27.097 67.06 27.097C66.9186 27.097 66.8479 27.0263 66.7066 27.0263H66.6359C66.6359 27.0263 66.7773 27.097 66.7066 27.097C66.6359 27.097 66.6359 27.0263 66.5652 27.0263C66.4945 27.0263 66.4945 26.9556 66.4238 26.9556C66.4238 26.9556 66.3532 26.9556 66.3532 26.8849C66.2118 26.8142 66.4945 26.9556 66.4238 26.8849C66.3532 26.8142 66.2825 26.7436 66.2118 26.6729L66.1411 26.6022C66.0705 26.5315 66.1411 26.5315 66.2118 26.6729C66.2118 26.6022 66.1411 26.6022 66.1411 26.5315C66.1411 26.4608 66.0704 26.4608 66.0704 26.3901C66.0704 26.3901 65.9998 26.1781 66.0704 26.3195C66.1411 26.4608 66.0704 26.2488 66.0704 26.2488C66.0704 26.1781 65.9998 26.1074 65.9998 26.0367C65.9998 25.9661 65.9998 25.9661 65.9998 25.8954C65.9291 25.6833 65.9998 26.0367 65.9998 25.8954C65.9998 25.754 65.9998 25.6126 65.9998 25.542C65.9998 25.4713 65.9998 25.4006 65.9998 25.3299C65.9998 25.3299 65.9998 25.1886 65.9998 25.3299C65.9998 25.4713 65.9998 25.3299 65.9998 25.3299C65.9998 25.1886 66.0704 25.0472 66.0704 24.9059C66.0704 24.8352 66.1411 24.7645 66.1411 24.6938C66.1411 24.6231 66.0704 24.7645 66.0704 24.7645C66.0704 24.6938 66.1411 24.6938 66.1411 24.6231C66.2118 24.4818 66.2825 24.4111 66.3532 24.2697C66.4239 24.199 66.5652 24.0577 66.3532 24.2697C66.4239 24.199 66.4239 24.199 66.4946 24.1283C66.5652 24.0577 66.7066 23.987 66.7773 23.8456C66.7773 23.8456 66.6359 23.987 66.7066 23.9163L66.7773 23.8456C66.8479 23.775 66.9186 23.7749 66.9186 23.7749H66.9893C67.1306 23.7043 66.9893 23.7749 66.9186 23.7749C66.9893 23.7749 67.06 23.7043 67.1307 23.7043C67.5547 23.5629 67.8375 23.1388 67.6961 22.7147C67.4841 22.3613 67.06 22.0786 66.5652 22.2199Z" fill="#362D2A"/>
<path d="M77.1674 21.9372C75.7538 21.8665 74.6936 23.1388 74.2695 24.3404C73.7747 25.6126 73.9868 27.0263 75.047 27.9451C76.1779 28.864 77.8035 29.0053 79.1465 28.3692C80.5601 27.6624 81.2669 25.8953 80.9842 24.3404C80.6308 22.5733 78.581 21.3718 76.8847 21.9372C76.4606 22.0786 76.1779 22.5026 76.3192 22.9267C76.4606 23.3508 76.8847 23.6336 77.3088 23.4922C77.3795 23.4922 77.4501 23.4215 77.5208 23.4215H77.5915C77.5915 23.4215 77.3794 23.4215 77.5208 23.4215C77.6622 23.4215 77.8035 23.4215 77.9449 23.4215C78.0862 23.4215 77.8742 23.4215 77.8742 23.4215H77.9449C78.0156 23.4215 78.0863 23.4215 78.157 23.4922C78.2276 23.4922 78.2983 23.5629 78.2983 23.5629C78.369 23.5629 78.4396 23.5629 78.2983 23.5629C78.1569 23.5629 78.2983 23.5629 78.369 23.5629C78.5103 23.6336 78.581 23.7042 78.7224 23.7749C78.8638 23.9163 78.581 23.7042 78.7931 23.7749C78.8637 23.8456 78.9344 23.8456 78.9344 23.9163C79.0051 23.987 79.0051 24.0577 79.0758 24.0577C79.0758 24.0577 78.9344 23.9163 79.0758 23.9869C79.0758 23.9869 79.0758 24.0577 79.1465 24.0577C79.2171 24.1283 79.2172 24.199 79.2878 24.2697C79.2878 24.2697 79.2878 24.3404 79.3585 24.3404C79.3585 24.3404 79.3585 24.3404 79.3585 24.4111C79.3585 24.4817 79.3585 24.411 79.3585 24.3404C79.4292 24.3404 79.4292 24.6938 79.4999 24.7645C79.4999 24.8351 79.4999 24.8352 79.4999 24.9058C79.4999 25.0472 79.4999 24.7644 79.4999 24.8351C79.4999 24.9058 79.4999 24.9765 79.4999 25.0472C79.4999 25.1178 79.4999 25.1886 79.4999 25.2592C79.4999 25.3299 79.4999 25.3299 79.4999 25.4006C79.4999 25.5419 79.4999 25.2592 79.4999 25.3299C79.4999 25.4713 79.4292 25.6126 79.3585 25.754C79.3585 25.8247 79.2878 25.8954 79.2878 25.9661C79.2172 26.0367 79.3585 25.8247 79.2878 25.8953C79.2878 25.8953 79.2878 25.9661 79.2172 25.9661C79.1465 26.1074 79.0758 26.2488 79.0051 26.3901C78.9344 26.5315 79.0758 26.2488 79.0051 26.3901C78.9344 26.4608 78.9344 26.5315 78.8638 26.5315C78.7931 26.6022 78.7931 26.6022 78.7224 26.6729L78.6517 26.7435C78.6517 26.6728 78.793 26.6728 78.6517 26.7435C78.581 26.8142 78.4397 26.8849 78.369 26.9556C78.369 26.9556 78.2983 26.9556 78.2983 27.0263C78.369 26.9556 78.4397 26.9556 78.369 27.0263C78.2983 27.0263 78.2276 27.0969 78.157 27.0969C78.0156 27.0969 77.9449 27.1676 77.8035 27.1676C77.6622 27.1676 77.8742 27.1676 77.8742 27.1676H77.8035C77.7329 27.1676 77.6622 27.1676 77.5915 27.1676C77.4501 27.1676 77.3794 27.1676 77.2381 27.1676C77.0967 27.1676 77.3088 27.1676 77.3088 27.1676H77.2381C77.1674 27.1676 77.0967 27.1676 77.026 27.0969C76.8847 27.0969 76.814 27.0262 76.6726 26.9556C76.5313 26.8849 76.7433 26.9556 76.7433 26.9556C76.7433 26.9556 76.6726 26.9556 76.6726 26.8849C76.6019 26.8849 76.5313 26.8142 76.4606 26.8142C76.3899 26.8142 76.3899 26.7435 76.3192 26.7435L76.2486 26.6729C76.3899 26.7435 76.3899 26.7435 76.3192 26.7435C76.2485 26.6728 76.1072 26.6021 76.0365 26.4608L75.9658 26.3901C76.1072 26.4608 76.0365 26.5315 76.0365 26.4608C76.0365 26.3901 75.9658 26.3901 75.9658 26.3195C75.9658 26.2488 75.8952 26.1781 75.8952 26.1781C75.8952 26.1781 75.9658 26.3901 75.8952 26.2488V26.1781C75.8952 26.1074 75.8244 25.966 75.8244 25.8247C75.8244 25.8247 75.8244 26.0367 75.8244 25.8953V25.8247C75.8244 25.754 75.8244 25.6833 75.8244 25.6833C75.8244 25.6126 75.8244 25.5419 75.8244 25.5419C75.8244 25.4713 75.8951 25.2592 75.8244 25.5419C75.8244 25.4006 75.8952 25.3299 75.8952 25.1885C75.8952 25.0472 75.9658 24.9058 76.0365 24.7645C76.0365 24.6938 76.1072 24.6231 76.0365 24.8351C76.0365 24.8351 76.0365 24.7644 76.1072 24.6938C76.1072 24.6231 76.1778 24.5524 76.1778 24.4817C76.2485 24.3404 76.3192 24.2697 76.3899 24.1283L76.4606 24.0577C76.4606 24.1283 76.3192 24.199 76.4606 24.1283C76.5313 24.0576 76.5313 24.0576 76.602 23.9869C76.6726 23.9163 76.6727 23.9163 76.7433 23.8456L76.814 23.7749C76.8847 23.7042 76.9554 23.7042 76.814 23.7749C76.8847 23.7042 77.0261 23.6336 77.0967 23.5629C77.2381 23.4922 76.8847 23.6336 77.0967 23.5629C77.1674 23.5629 77.2381 23.5629 77.2381 23.4922C77.3794 23.4215 77.026 23.4922 77.2381 23.4922C77.3087 23.4922 77.3795 23.4922 77.4501 23.4922C77.8742 23.4922 78.2983 23.0681 78.2276 22.7147C77.9449 22.2906 77.5915 22.0079 77.1674 21.9372Z" fill="#362D2A"/>
<path d="M80.9135 35.4372C80.6308 35.0838 79.9947 35.0131 79.4999 35.0838C58.437 36.0027 37.374 35.5786 16.3111 33.9529H16.099C16.5231 45.898 15.1802 58.1965 15.5336 70.1416C35.5363 72.05 59.7092 72.2621 79.7826 71.4139L79.6413 71.2725C80.4188 59.6808 80.9135 48.0891 81.1256 36.4974C81.1256 36.144 81.1256 35.72 80.9135 35.4372Z" fill="#362D2A"/>
<path d="M16.311 34.7305C22.955 35.2253 29.599 35.6494 36.243 35.8614C42.8164 36.1441 49.4604 36.2855 56.0337 36.2855C62.6777 36.2855 69.2511 36.2148 75.8951 35.9321C76.7433 35.9321 77.5208 35.8614 78.369 35.8614C78.793 35.8614 79.1465 35.7907 79.5705 35.7907C79.7119 35.7907 79.8533 35.7907 79.924 35.7907C79.9946 35.7907 80.136 35.7907 80.2067 35.8614C80.2067 35.8614 80.2067 35.8614 80.2774 35.9321C80.348 36.0734 80.348 36.1441 80.348 36.2855C80.348 36.7096 80.348 37.063 80.348 37.4871C80.348 38.3352 80.348 39.1834 80.2774 40.0316C80.2067 43.3536 80.136 46.6756 79.9946 49.9976C79.7826 56.6416 79.4292 63.215 79.0051 69.859C79.0051 70.2831 78.9344 70.6365 78.9344 71.0606C78.9344 71.4846 79.0051 71.7673 79.2878 72.0501C79.4999 71.5553 79.6412 71.1312 79.8532 70.6364C75.8244 70.7778 71.7249 70.9192 67.6961 70.9899C63.4552 71.0605 59.2144 71.1312 54.9735 71.1312C50.662 71.1312 46.3504 71.0605 42.0389 70.9192C37.798 70.7778 33.5572 70.6365 29.3163 70.4244C25.2168 70.2124 21.188 69.9296 17.0885 69.5762C16.5937 69.5056 16.099 69.5056 15.6042 69.4349C15.8869 69.7176 16.1697 70.0003 16.3817 70.2124C16.2403 65.4767 16.311 60.8118 16.5231 56.0762C16.6644 51.3405 16.9472 46.6756 17.0178 41.94C17.0885 39.3248 17.0885 36.6389 16.9471 34.0237C16.9471 32.9635 15.3215 32.9635 15.3215 34.0237C15.4628 38.7593 15.3922 43.4243 15.1801 48.1599C15.0387 52.8955 14.756 57.5605 14.6853 62.2961C14.6147 64.9113 14.6147 67.5972 14.756 70.2124C14.756 70.7071 15.1094 70.9899 15.5335 70.9899C19.5623 71.3433 23.5912 71.6967 27.62 71.9087C31.8609 72.1915 36.1017 72.3328 40.3426 72.4742C44.6541 72.6155 48.9657 72.6862 53.2772 72.6862C57.5181 72.6862 61.7589 72.6862 66.0704 72.6155C70.1699 72.5449 74.1988 72.4035 78.2983 72.2621C78.793 72.2621 79.2878 72.1914 79.7826 72.1914C80.4187 72.1914 80.9135 71.2726 80.348 70.7778C80.2773 70.7071 80.2773 70.7071 80.2067 70.6364C80.2773 70.8485 80.348 70.9899 80.4187 71.2019C80.8428 64.5579 81.1962 57.8432 81.4789 51.1285C81.6203 47.8065 81.691 44.4845 81.7616 41.1625C81.8323 39.5368 81.903 37.9112 81.8323 36.2855C81.8323 35.4373 81.5496 34.7305 80.7014 34.3771C79.9946 34.0944 79.2171 34.2357 78.5103 34.2357C71.8663 34.5184 65.1516 34.6598 58.5076 34.6598C51.8636 34.6598 45.2196 34.5892 38.5756 34.3064C31.9315 34.0944 25.2875 33.741 18.6435 33.2462C17.7953 33.1755 17.0178 33.1049 16.1697 33.0342C15.7456 33.0342 15.3921 33.4582 15.3921 33.8117C15.5335 34.3771 15.8869 34.7305 16.311 34.7305Z" fill="#362D2A"/>
<path d="M67.9081 40.8798C67.6961 40.5971 67.3426 40.597 66.9892 40.597C53.5598 41.2332 40.0598 40.9505 26.6304 39.7489H26.489C26.7717 48.584 25.9942 57.3485 26.277 66.1836C39.0702 67.5972 54.408 68.092 67.2013 67.4558L67.1306 67.3852C67.6254 58.8328 67.9081 50.2097 68.0494 41.6573C68.0494 41.4452 68.0495 41.1625 67.9081 40.8798Z" fill="#FFF9F5"/>
<path d="M26.6304 40.597C31.0833 41.0211 35.5362 41.3039 40.0598 41.5159C44.5127 41.728 48.9656 41.7986 53.4892 41.7986C57.9421 41.7986 62.395 41.6573 66.9186 41.4452C67.0599 41.4452 67.1306 41.4452 67.272 41.4452C67.3427 41.4452 67.3427 41.4452 67.4134 41.4452C67.6254 41.4452 67.272 41.3745 67.4134 41.4452C67.484 41.4452 67.5547 41.5159 67.3427 41.4452C67.484 41.5159 67.272 41.3745 67.3427 41.4452C67.4133 41.5159 67.2013 41.3039 67.272 41.3039C67.272 41.3039 67.3427 41.4453 67.3427 41.5159V41.4452C67.3427 41.5159 67.3427 41.5159 67.3427 41.5866C67.3427 41.6573 67.3427 41.6573 67.3427 41.728C67.3427 41.8693 67.3427 42.0107 67.3427 42.152C67.3427 42.4348 67.3427 42.7175 67.3427 43.0002C67.3427 44.1311 67.272 45.262 67.272 46.3929C67.2013 48.6547 67.1306 50.8458 67.06 53.1076C66.9186 57.5605 66.7065 62.0841 66.4238 66.537C66.4238 66.8197 66.4238 67.1025 66.3531 67.3852C66.3531 67.6679 66.3531 67.8799 66.5652 68.092L66.6358 68.1626C66.8479 67.6679 66.9893 67.2438 67.2013 66.749C64.5861 66.8904 62.0416 66.9611 59.4264 66.9611C56.7405 67.0318 54.0547 67.0318 51.2981 66.9611C48.5415 66.8904 45.785 66.8197 43.0284 66.749C40.3425 66.6077 37.586 66.4663 34.9001 66.2543C32.2849 66.0423 29.7404 65.8302 27.1252 65.5475C26.8425 65.5475 26.4891 65.4768 26.2063 65.4768C26.4891 65.7595 26.7718 66.0423 26.9838 66.2543C26.9131 62.7909 26.9131 59.3982 27.0545 55.9348C27.1252 52.4715 27.2666 49.0788 27.2666 45.6154C27.2666 43.707 27.2665 41.728 27.1958 39.8196C27.1958 39.3955 26.8425 38.9714 26.4184 39.0421C25.9943 39.0421 25.5702 39.3955 25.6409 39.8196C25.7115 43.2829 25.7116 46.6756 25.5702 50.139C25.4995 53.6024 25.3582 56.9951 25.3582 60.4584C25.3582 62.3668 25.3581 64.3459 25.4288 66.2543C25.4288 66.7491 25.7822 67.0318 26.2063 67.0318C28.7509 67.3145 31.366 67.5265 33.9105 67.7386C36.5964 67.9506 39.2823 68.092 41.9682 68.2334C44.7248 68.3747 47.4813 68.4454 50.2379 68.5161C52.9238 68.5867 55.6803 68.5867 58.3662 68.5161C60.9814 68.5161 63.5966 68.4454 66.1411 68.304C66.4238 68.304 66.7772 68.304 67.06 68.2334C67.7668 68.2334 68.1202 67.3852 67.6254 66.8197L67.5547 66.749C67.6254 66.9611 67.6961 67.1025 67.7668 67.3145C68.0495 62.7909 68.2615 58.2673 68.4029 53.7437C68.4736 51.482 68.5443 49.2202 68.6149 47.029C68.6149 45.8982 68.6856 44.7673 68.6856 43.6364C68.6856 43.0709 68.6856 42.5055 68.6856 41.94C68.6856 41.3039 68.6856 40.7384 68.3322 40.2436C67.9788 39.8196 67.4134 39.6782 66.8479 39.7489C66.2825 39.7489 65.717 39.8196 65.1516 39.8196C64.0207 39.8903 62.8898 39.8903 61.7589 39.9609C59.4971 40.0316 57.306 40.1023 55.0442 40.1023C50.5206 40.173 45.997 40.1023 41.5441 39.8902C37.0912 39.7489 32.5676 39.4662 28.1147 39.0421C27.5492 38.9714 26.9838 38.9714 26.489 38.9007C26.0649 38.83 25.6409 39.3248 25.7116 39.6782C25.8529 40.3143 26.1356 40.597 26.6304 40.597Z" fill="#FFF9F5"/>
<path d="M59.4265 22.4319C59.2144 22.3612 58.861 22.3612 58.5076 22.3612C44.3007 22.5732 30.0939 22.4319 15.9577 22.1492H15.8163C16.099 24.5523 15.9576 26.9555 16.1697 29.3586C29.5991 29.712 45.2196 29.7827 58.7197 29.6413L59.0731 29.5707C59.5678 27.2382 59.4972 24.9764 59.6385 22.6439C59.5678 22.5733 59.5678 22.5026 59.4265 22.4319Z" fill="#FFC055"/>
<path d="M15.9576 22.9975C19.2796 23.0682 22.6016 23.1389 25.9236 23.2095C29.2456 23.2802 32.5677 23.2802 35.819 23.2802C39.141 23.2802 42.463 23.2802 45.785 23.2802C49.107 23.2802 52.429 23.2802 55.6803 23.2095C56.5285 23.2095 57.306 23.2095 58.1542 23.2095C58.3662 23.2095 58.5076 23.2095 58.7196 23.2095C58.7903 23.2095 58.861 23.2095 59.0023 23.2095H59.0731C59.2144 23.2095 58.861 23.2095 59.0731 23.2095C59.1437 23.2095 59.0731 23.2802 59.0731 23.2095C59.0731 23.2095 59.073 23.2095 59.0023 23.2095C58.9317 22.9975 58.7903 22.8561 58.7196 22.6441C58.7196 22.7148 58.7196 22.8561 58.7196 22.8561C58.7196 23.0682 58.7196 23.2802 58.7196 23.4923C58.7196 24.2698 58.6489 25.1179 58.6489 25.8954C58.6489 26.3195 58.5783 26.6729 58.5783 27.097C58.5783 27.309 58.5782 27.5211 58.5076 27.6624C58.5076 27.7331 58.5076 27.8745 58.5076 27.9452C58.5076 28.0159 58.5076 28.0159 58.5076 28.0865C58.5076 28.0865 58.5076 28.2986 58.5076 28.1572C58.4369 28.5813 58.3662 28.9347 58.2955 29.3588C58.5783 29.1468 58.7903 28.9347 59.0731 28.7934C58.5783 28.864 58.1542 28.864 57.6594 28.864C56.9526 28.864 56.2458 28.864 55.6097 28.864C54.196 28.864 52.7824 28.864 51.4395 28.864C48.6122 28.864 45.7143 28.864 42.8871 28.864C39.9892 28.864 37.0912 28.864 34.1933 28.7934C31.2954 28.7934 28.4682 28.7227 25.5702 28.652C22.8137 28.5813 20.0571 28.5106 17.2299 28.44C16.8765 28.44 16.5231 28.44 16.2403 28.44C16.5231 28.7227 16.8058 29.0054 17.0178 29.2174C16.7351 26.8143 16.8765 24.4111 16.6644 22.008C16.5938 21.5839 16.311 21.1598 15.8869 21.2305C15.4628 21.2305 15.0388 21.5839 15.1094 22.008C15.3922 24.4111 15.2508 26.8143 15.4629 29.2174C15.5335 29.6415 15.8162 29.9949 16.2403 29.9949C18.9969 30.0656 21.7534 30.1363 24.5807 30.207C27.4079 30.2777 30.3059 30.2776 33.1331 30.3483C36.031 30.3483 38.9289 30.419 41.8269 30.419C44.7248 30.419 47.552 30.419 50.45 30.419C51.8636 30.419 53.2772 30.419 54.6908 30.419C56.0338 30.419 57.4474 30.419 58.7903 30.3483C58.9317 30.3483 59.073 30.3483 59.2144 30.2776C59.5678 30.207 59.9212 30.0656 59.9919 29.7122C60.3453 28.0159 60.416 26.3195 60.4867 24.6232C60.4867 24.1991 60.4867 23.775 60.5573 23.4216C60.5573 22.9975 60.6987 22.5734 60.4867 22.1493C60.1333 21.3012 58.861 21.4425 58.0835 21.4425C54.6908 21.5132 51.2981 21.5132 47.9054 21.5132C44.5127 21.5132 41.1201 21.5132 37.7274 21.5132C34.3347 21.5132 30.942 21.4425 27.5493 21.4425C24.1566 21.3718 20.7639 21.3718 17.3712 21.2305C16.9472 21.2305 16.523 21.2305 16.099 21.2305C15.6749 21.2305 15.2508 21.5839 15.3215 22.008C15.1801 22.6441 15.5335 22.9975 15.9576 22.9975Z" fill="#362D2A"/>
<path d="M41.0494 45.9689C41.3321 50.9165 40.7667 56.0056 41.0494 61.0239L41.1201 61.236C46.1384 59.0448 51.7929 56.2176 56.3165 53.1076C51.3688 50.3511 46.2798 47.9479 41.0494 45.9689Z" fill="#F6504F"/>
<path d="M41.8268 60.9532C41.6148 57.0657 41.8975 53.1076 41.8975 49.2201C41.8975 48.0892 41.8975 47.029 41.8268 45.8981C41.4734 46.1808 41.12 46.3929 40.7666 46.6756C41.8268 47.0997 42.8164 47.4531 43.8059 47.8772C44.0886 47.9479 44.3007 48.0892 44.5834 48.1599C44.6541 48.1599 44.6541 48.2306 44.7247 48.2306C44.5834 48.1599 44.7954 48.2306 44.7954 48.2306C44.9368 48.3013 45.0781 48.3719 45.2195 48.3719C45.7143 48.584 46.2091 48.796 46.7038 49.0081C48.6829 49.9269 50.6619 50.8458 52.641 51.8353C53.7012 52.4008 54.8322 52.9662 55.8924 53.6023C55.8924 53.1076 55.8924 52.6835 55.8924 52.1887C52.1463 54.7332 48.1881 56.8537 44.0886 58.762C42.9577 59.3275 41.8268 59.8223 40.6959 60.317C40.2719 60.4584 40.2012 61.0945 40.4132 61.4479C40.6959 61.872 41.12 61.9427 41.5441 61.7307C45.6436 59.8929 49.7431 57.9139 53.6306 55.5814C54.6908 54.9453 55.751 54.3091 56.8112 53.6023C57.306 53.2489 57.3767 52.5421 56.8112 52.1887C52.9238 49.9976 48.8949 48.0892 44.7954 46.3929C43.6645 45.8981 42.4629 45.474 41.3321 44.9792C40.8373 44.7672 40.2718 45.262 40.2718 45.7568C40.4839 49.6442 40.2012 53.6023 40.2012 57.4898C40.2012 58.6207 40.2012 59.6809 40.2718 60.8118C40.2718 61.2359 40.6253 61.66 41.0494 61.5893C41.4734 61.8013 41.8975 61.4479 41.8268 60.9532Z" fill="#362D2A"/>
<path d="M14.544 77.5633C15.1801 78.6942 15.8162 79.7544 16.523 80.8146C16.7351 81.168 17.2298 81.3801 17.6539 81.0974C18.0073 80.8853 18.2194 80.3905 17.9367 79.9664C17.2298 78.9062 16.5937 77.846 15.9576 76.7151C15.7455 76.3617 15.1801 76.2203 14.8267 76.4324C14.4733 76.7151 14.3319 77.1392 14.544 77.5633Z" fill="#362D2A"/>
<path d="M20.9053 78.5527C21.1174 78.7647 21.3294 79.0475 21.5414 79.3302C21.6121 79.4009 21.6121 79.4715 21.6828 79.5422L21.7535 79.6129C21.7535 79.6129 21.8948 79.7543 21.8242 79.6836C21.7535 79.6129 21.8242 79.6836 21.8242 79.6836L21.8948 79.7543C21.9655 79.8249 21.9655 79.8956 22.0362 79.9663C22.4603 80.5317 22.8137 81.0972 23.1671 81.6626C23.3791 82.0161 23.9446 82.1574 24.298 81.9453C24.6514 81.7333 24.7927 81.2386 24.5807 80.8145C23.8739 79.6129 23.0257 78.4113 22.0362 77.3511C21.7535 77.0684 21.188 77.0684 20.9053 77.3511C20.5519 77.7045 20.5519 78.1993 20.9053 78.5527Z" fill="#362D2A"/>
<path d="M27.0543 78.694C27.6905 79.6836 28.3266 80.6731 28.9627 81.5919C29.1748 81.9453 29.6696 82.1574 30.0937 81.8747C30.4471 81.6626 30.6591 81.1679 30.3764 80.7438C29.7402 79.7543 29.1041 78.7647 28.468 77.8458C28.2559 77.4924 27.7612 77.2804 27.3371 77.5631C26.9837 77.8459 26.7716 78.3406 27.0543 78.694Z" fill="#362D2A"/>
<path d="M34.4053 78.8354C35.1121 79.8956 35.8189 80.8851 36.5257 81.9454C36.7378 82.2988 37.2325 82.5108 37.6566 82.2281C38.01 82.0161 38.2221 81.5213 37.9394 81.0972C37.2325 80.037 36.5257 79.0475 35.8189 77.9872C35.6069 77.6338 35.1121 77.4218 34.688 77.7045C34.3346 77.9872 34.1226 78.482 34.4053 78.8354Z" fill="#362D2A"/>
<path d="M40.5546 79.1889C41.3321 80.3198 42.0389 81.4507 42.8164 82.5816C43.0284 82.935 43.5232 83.1471 43.9473 82.8644C44.3007 82.6523 44.5127 82.1575 44.23 81.7334C43.4525 80.6025 42.7457 79.4716 41.9682 78.3408C41.7562 77.9873 41.2614 77.7753 40.8373 78.058C40.4839 78.2701 40.2719 78.8355 40.5546 79.1889Z" fill="#362D2A"/>
<path d="M47.6934 79.6836C48.3295 80.6731 49.0363 81.5919 49.6724 82.5815C49.8845 82.9349 50.3793 83.1469 50.8034 82.8642C51.1568 82.6522 51.3688 82.1574 51.0861 81.7333C50.4499 80.7438 49.7431 79.8249 49.107 78.8354C48.895 78.482 48.4002 78.2699 47.9761 78.5526C47.6227 78.7647 47.4107 79.3302 47.6934 79.6836Z" fill="#362D2A"/>
<path d="M55.0441 79.6836C55.6096 80.6024 56.175 81.4506 56.7404 82.3694C56.9525 82.7228 57.4473 82.9349 57.8713 82.6521C58.2248 82.4401 58.4368 81.9453 58.154 81.5213C57.5886 80.6024 57.0232 79.7542 56.4577 78.8354C56.2457 78.482 55.7509 78.2699 55.3268 78.5526C54.9734 78.7647 54.7614 79.2595 55.0441 79.6836Z" fill="#362D2A"/>
<path d="M60.5573 79.3302C61.1934 80.3197 61.7589 81.3799 62.3243 82.4401C62.5363 82.7935 63.1018 82.9349 63.4552 82.7228C63.8793 82.4401 63.95 82.016 63.7379 81.5919C63.2432 80.5317 62.607 79.4715 61.9709 78.482C61.7589 78.1286 61.2641 77.9165 60.84 78.1992C60.4866 78.482 60.2746 78.9768 60.5573 79.3302Z" fill="#362D2A"/>
<path d="M66.8478 79.8249C66.9185 79.9662 67.0598 80.0369 67.1305 80.1783C67.2012 80.249 67.1305 80.1783 67.1305 80.1783L67.2012 80.249C67.2719 80.3197 67.2719 80.3903 67.3425 80.461C67.5546 80.7437 67.696 80.9558 67.908 81.2385C68.2614 81.8039 68.5441 82.2987 68.8269 82.9349C69.0389 83.2883 69.6043 83.4296 69.9577 83.2176C70.3818 82.9349 70.4525 82.5108 70.2405 82.0867C69.6044 80.8851 68.8975 79.6835 67.9787 78.694C67.696 78.3406 67.1305 78.4113 66.8478 78.694C66.4944 78.9767 66.5651 79.4715 66.8478 79.8249Z" fill="#362D2A"/>
<path d="M73.492 79.6836C74.0574 80.6024 74.6229 81.5212 75.259 82.4401C75.471 82.7935 75.9658 83.0056 76.3899 82.7228C76.7433 82.5108 76.9553 82.016 76.6726 81.5919C76.1072 80.6731 75.5417 79.7542 74.9056 78.8354C74.6935 78.482 74.1988 78.2699 73.7747 78.5526C73.4213 78.7647 73.2799 79.2595 73.492 79.6836Z" fill="#362D2A"/>
<path d="M78.8636 78.9769C79.5704 80.0371 80.2065 81.168 80.9133 82.2282C81.1253 82.5816 81.6201 82.7937 82.0442 82.5109C82.3976 82.2989 82.6096 81.8041 82.3269 81.38C81.6201 80.3198 80.984 79.1889 80.2772 78.1287C80.0651 77.7753 79.5703 77.5633 79.1462 77.846C78.7928 78.1287 78.6515 78.6235 78.8636 78.9769Z" fill="#362D2A"/>
<path d="M84.8008 78.9061C85.649 80.1783 86.4265 81.3799 87.2746 82.6521C87.4867 83.0056 87.9815 83.2176 88.4056 82.9349C88.759 82.7228 88.971 82.2281 88.6883 81.804C87.8401 80.5318 87.0626 79.3301 86.2144 78.0579C86.0024 77.7045 85.5076 77.4925 85.0835 77.7752C84.7301 77.9872 84.5181 78.5527 84.8008 78.9061Z" fill="#362D2A"/>
<path d="M87.5574 74.3119C87.6281 74.3119 87.6281 74.3826 87.5574 74.3119L87.4867 74.2412C87.9815 74.8774 88.4056 75.5842 88.6883 76.291C88.759 76.4323 88.971 76.6444 89.1831 76.6444C89.3951 76.7151 89.6072 76.6444 89.8192 76.5737C89.9606 76.4323 90.1726 76.291 90.1726 76.0789C90.1726 76.0083 90.1726 75.9376 90.1726 75.8669C90.1726 75.7255 90.1019 75.5842 90.0312 75.4428C89.6778 74.5947 89.1831 73.8878 88.6176 73.181C88.4763 73.0397 88.1935 72.969 88.0522 72.969C87.8401 72.969 87.6281 73.0397 87.4867 73.181C87.3453 73.3224 87.204 73.5344 87.2747 73.7465C87.2747 73.8171 87.2747 73.8878 87.2747 73.9585C87.416 74.0999 87.4867 74.2412 87.5574 74.3119Z" fill="#362D2A"/>
<path d="M87.8401 68.5866C88.4762 69.5055 89.1124 70.4243 89.7485 71.4139C89.9606 71.7673 90.4553 71.9793 90.8794 71.6966C91.2328 71.4845 91.4449 70.9898 91.1621 70.5657C90.526 69.6468 89.8899 68.728 89.2537 67.7385C89.0417 67.3851 88.5469 67.173 88.1229 67.4557C87.7695 67.7384 87.5574 68.2332 87.8401 68.5866Z" fill="#362D2A"/>
<path d="M87.5574 61.8013C88.2642 62.6495 89.0417 63.5683 89.7485 64.4165C89.8898 64.5579 90.1019 64.6285 90.3139 64.6285C90.526 64.6285 90.738 64.5579 90.8794 64.4165C91.0208 64.2751 91.1621 64.0631 91.0914 63.8511C91.0914 63.639 91.0208 63.427 90.8794 63.2856C90.1726 62.4374 89.3951 61.5186 88.6883 60.6704C88.5469 60.529 88.3349 60.4584 88.1228 60.4584C87.9108 60.4584 87.6987 60.529 87.5574 60.6704C87.416 60.8118 87.2747 61.0238 87.3453 61.2358C87.3453 61.5186 87.416 61.6599 87.5574 61.8013Z" fill="#362D2A"/>
<path d="M87.5574 56.5001C88.0522 56.9949 88.4762 57.4897 88.9003 58.0551C88.9003 58.0551 88.971 58.1965 88.9003 58.0551C88.8296 57.9845 88.9003 58.0552 88.9003 58.1258C88.971 58.1965 89.0417 58.2672 89.0417 58.3379C89.1124 58.4792 89.2538 58.6206 89.3244 58.762C89.5365 59.0447 89.7485 59.3274 89.8899 59.6101C90.1019 59.9635 90.5967 60.1756 91.0208 59.8929C91.3742 59.6808 91.5862 59.186 91.3035 58.762C90.526 57.5604 89.6072 56.3588 88.6176 55.2986C88.3349 55.0159 87.7694 54.9452 87.4867 55.2986C87.2747 55.652 87.2747 56.1467 87.5574 56.5001Z" fill="#362D2A"/>
<path d="M87.8401 49.5029C88.0521 49.7149 88.2642 49.9976 88.4762 50.2097C88.6176 50.351 88.6883 50.4924 88.759 50.5631C88.8297 50.6338 88.8296 50.7044 88.9003 50.7751C88.8296 50.7751 88.8296 50.6338 88.9003 50.7751C88.9003 50.8458 88.971 50.8458 88.971 50.9165C89.3951 51.4819 89.7485 51.9767 90.1019 52.6128C90.3139 52.9662 90.8087 53.1783 91.2328 52.8956C91.5862 52.6835 91.7276 52.1888 91.5155 51.7647C90.8087 50.5631 89.9606 49.3615 88.971 48.372C88.6883 48.0892 88.1228 48.0892 87.8401 48.372C87.5574 48.7254 87.5574 49.1495 87.8401 49.5029Z" fill="#362D2A"/>
<path d="M87.9108 44.2724C88.1228 44.4844 88.3349 44.6965 88.4762 44.9085C88.5469 45.0499 88.6883 45.1206 88.759 45.2619C88.8297 45.3326 88.8296 45.4033 88.9003 45.4033L88.971 45.474L88.9003 45.4033C88.9003 45.4033 88.9003 45.474 88.971 45.474C89.3244 45.8981 89.6071 46.3928 89.8898 46.8876C90.1019 47.241 90.6673 47.3824 91.0207 47.1703C91.3741 46.9583 91.5155 46.4635 91.3035 46.0394C90.738 44.9792 89.9605 43.9897 89.0417 43.1415C88.7589 42.8588 88.1935 42.7881 87.9108 43.1415C87.6281 43.4949 87.5574 43.9897 87.9108 44.2724Z" fill="#362D2A"/>
<path d="M88.2643 37.487C88.9711 38.4765 89.6779 39.5367 90.4554 40.5262C90.5968 40.6676 90.7381 40.809 90.9502 40.8797C91.1622 40.9503 91.3743 40.8797 91.5863 40.809C91.9397 40.5969 92.1518 40.1022 91.869 39.6781C91.1622 38.6885 90.4554 37.6283 89.6779 36.6388C89.5366 36.4974 89.3952 36.3561 89.1832 36.2854C88.9711 36.2147 88.7591 36.2854 88.547 36.356C88.1936 36.5681 87.9816 37.1336 88.2643 37.487Z" fill="#362D2A"/>
<path d="M88.1936 31.974C88.2642 32.0447 88.3349 32.186 88.4763 32.2567L88.547 32.3274C88.6883 32.4687 88.4763 32.186 88.547 32.3274C88.6176 32.3981 88.6177 32.398 88.6883 32.4687C88.8297 32.6808 88.9711 32.8928 89.1124 33.1049C89.3952 33.5289 89.6779 34.0237 89.8899 34.5185C89.9606 34.6598 90.1727 34.8719 90.3847 34.8719C90.5967 34.9426 90.8088 34.8719 91.0208 34.8012C91.1622 34.6599 91.3742 34.5185 91.3742 34.3064C91.4449 34.0944 91.3742 33.8823 91.3035 33.6703C90.8088 32.6101 90.1726 31.6205 89.3951 30.7017C89.1124 30.3483 88.547 30.419 88.2643 30.7017C87.9109 31.1258 87.9108 31.6206 88.1936 31.974Z" fill="#362D2A"/>
<path d="M87.4867 24.835C88.1935 25.8952 88.9003 26.8848 89.6072 27.945C89.8192 28.2984 90.314 28.5104 90.7381 28.2277C91.0915 28.0157 91.3035 27.5209 91.0208 27.0968C90.314 26.0366 89.6072 25.0471 88.9003 23.9868C88.6883 23.6334 88.1935 23.4214 87.7695 23.7041C87.4161 23.9162 87.204 24.4109 87.4867 24.835Z" fill="#362D2A"/>
</svg>
