<svg width="82" height="27" viewBox="0 0 82 27" fill="none" xmlns="http://www.w3.org/2000/svg">
<path d="M23.4929 21.6486V9.89884C23.4924 9.88456 23.4949 9.87033 23.5001 9.85703C23.5054 9.84374 23.5133 9.83167 23.5234 9.82156C23.5335 9.81146 23.5456 9.80354 23.5589 9.79829C23.5722 9.79305 23.5864 9.79059 23.6007 9.79108H25.8568C25.8854 9.79108 25.9128 9.80243 25.933 9.82264C25.9532 9.84285 25.9645 9.87026 25.9645 9.89884V14.1329H25.9993C26.3027 13.7712 26.6854 13.4843 27.1177 13.2943C27.5499 13.1044 28.0201 13.0167 28.4918 13.0379C30.2682 13.0379 30.8383 14.199 30.8383 15.739V21.6486C30.8383 21.6772 30.8269 21.7046 30.8067 21.7248C30.7865 21.745 30.7591 21.7564 30.7305 21.7564H28.4744C28.4458 21.7564 28.4184 21.745 28.3982 21.7248C28.378 21.7046 28.3666 21.6772 28.3666 21.6486V15.958C28.3666 15.2905 27.6714 15.0854 27.2264 15.0854C26.7815 15.0854 25.9645 15.3774 25.9645 16.2117V21.6486C25.9645 21.6772 25.9532 21.7046 25.933 21.7248C25.9128 21.745 25.8854 21.7564 25.8568 21.7564H23.6007C23.5721 21.7564 23.5447 21.745 23.5245 21.7248C23.5043 21.7046 23.4929 21.6772 23.4929 21.6486V21.6486Z" fill="#161616"/>
<path d="M41.5069 19.33V15.2802H40.464C40.4354 15.2802 40.408 15.2688 40.3878 15.2486C40.3676 15.2284 40.3563 15.201 40.3563 15.1724V13.7193C40.3565 13.6971 40.3637 13.6754 40.3767 13.6573C40.3898 13.6393 40.4082 13.6257 40.4293 13.6185L41.8198 13.2118L42.5602 10.8931C42.5675 10.878 42.5782 10.8648 42.5915 10.8545C42.6047 10.8443 42.6202 10.8373 42.6367 10.834H43.8534C43.8677 10.8336 43.8819 10.836 43.8952 10.8413C43.9085 10.8465 43.9206 10.8544 43.9307 10.8645C43.9408 10.8746 43.9487 10.8867 43.9539 10.9C43.9592 10.9133 43.9616 10.9275 43.9611 10.9418V13.2292H45.7862C45.8148 13.2292 45.8422 13.2405 45.8624 13.2608C45.8826 13.281 45.894 13.3084 45.894 13.337V15.1933C45.894 15.2073 45.8912 15.2211 45.8857 15.234C45.8802 15.2469 45.8722 15.2585 45.8622 15.2683C45.8521 15.278 45.8402 15.2856 45.8272 15.2906C45.8141 15.2957 45.8002 15.298 45.7862 15.2976H43.9611V19.0728C43.9611 19.4656 44.1836 19.7055 44.7294 19.7055H45.7723C45.8009 19.7055 45.8283 19.7168 45.8485 19.737C45.8687 19.7572 45.88 19.7847 45.88 19.8132C45.88 19.841 45.88 21.1203 45.88 21.4436C45.8796 21.4654 45.8728 21.4865 45.8604 21.5044C45.848 21.5224 45.8307 21.5363 45.8105 21.5444C45.2654 21.7954 44.6725 21.9259 44.0724 21.9268C42.2543 21.9268 41.5069 20.8492 41.5069 19.33V19.33Z" fill="#161616"/>
<path d="M76.8362 19.3303V15.2804H75.7933C75.7647 15.2804 75.7373 15.2691 75.7171 15.2489C75.6969 15.2286 75.6855 15.2012 75.6855 15.1727V13.7196C75.6858 13.6973 75.6929 13.6756 75.706 13.6576C75.7191 13.6395 75.7374 13.626 75.7585 13.6188L77.1491 13.212L77.8895 10.8934C77.8967 10.8723 77.9102 10.8539 77.9283 10.8408C77.9464 10.8278 77.968 10.8206 77.9903 10.8204H79.207C79.2213 10.8199 79.2355 10.8223 79.2488 10.8276C79.2621 10.8328 79.2742 10.8408 79.2843 10.8509C79.2944 10.861 79.3023 10.873 79.3075 10.8863C79.3128 10.8996 79.3153 10.9139 79.3148 10.9281V13.2155H81.1398C81.1684 13.2155 81.1958 13.2269 81.216 13.2471C81.2362 13.2673 81.2476 13.2947 81.2476 13.3233V15.1796C81.2476 15.1936 81.2448 15.2075 81.2393 15.2203C81.2339 15.2332 81.2259 15.2449 81.2158 15.2546C81.2058 15.2643 81.1938 15.2719 81.1808 15.277C81.1677 15.282 81.1538 15.2844 81.1398 15.2839H79.3148V19.073C79.3148 19.4658 79.5372 19.7057 80.083 19.7057H81.1259C81.1545 19.7057 81.1819 19.7171 81.2021 19.7373C81.2223 19.7575 81.2337 19.7849 81.2337 19.8135C81.2337 19.8413 81.2337 21.1205 81.2337 21.4438C81.2332 21.4656 81.2264 21.4868 81.214 21.5047C81.2017 21.5226 81.1843 21.5365 81.1641 21.5446C80.619 21.7957 80.0261 21.9261 79.426 21.927C77.5836 21.927 76.8362 20.8494 76.8362 19.3303V19.3303Z" fill="#161616"/>
<path d="M47.3922 21.6488V13.3057C47.3922 13.2772 47.4036 13.2498 47.4238 13.2295C47.444 13.2093 47.4714 13.198 47.5 13.198H49.5371C49.5594 13.1982 49.581 13.2054 49.5991 13.2185C49.6171 13.2315 49.6307 13.2499 49.6379 13.271L49.8743 14.1192H49.909C50.2096 13.7577 50.5898 13.4708 51.0198 13.2808C51.4498 13.0908 51.918 13.003 52.3876 13.0242C53.6008 13.0242 54.1848 13.5699 54.5116 14.4147H54.5811C54.8648 13.9664 55.2624 13.6015 55.7333 13.3572C56.2042 13.1129 56.7315 12.998 57.2613 13.0242C59.0377 13.0242 59.6078 14.1852 59.6078 15.7252V21.6349C59.6078 21.6635 59.5964 21.6909 59.5762 21.7111C59.556 21.7313 59.5286 21.7426 59.5 21.7426H57.237C57.2084 21.7426 57.181 21.7313 57.1608 21.7111C57.1406 21.6909 57.1292 21.6635 57.1292 21.6349V15.9964C57.1292 15.3289 56.5 15.0717 56.0551 15.0717C55.5406 15.0717 54.7758 15.3985 54.741 16.1493V21.6488C54.7415 21.6631 54.7391 21.6773 54.7338 21.6906C54.7286 21.7039 54.7207 21.716 54.7106 21.7261C54.7004 21.7362 54.6884 21.7441 54.6751 21.7493C54.6618 21.7546 54.6476 21.757 54.6333 21.7565H52.3633C52.3353 21.7556 52.3088 21.7439 52.2893 21.7238C52.2698 21.7037 52.259 21.6768 52.259 21.6488V15.9964C52.259 15.3289 51.5915 15.0717 51.1049 15.0717C50.7859 15.0697 50.4787 15.1919 50.2483 15.4126C50.0179 15.6332 49.8825 15.9349 49.8708 16.2536V21.6488C49.8708 21.6768 49.8599 21.7037 49.8405 21.7238C49.821 21.7439 49.7945 21.7556 49.7665 21.7565H47.5034C47.489 21.757 47.4746 21.7546 47.4611 21.7494C47.4477 21.7442 47.4354 21.7363 47.425 21.7262C47.4146 21.7162 47.4064 21.7041 47.4007 21.6908C47.3951 21.6775 47.3922 21.6632 47.3922 21.6488V21.6488Z" fill="#161616"/>
<path d="M61.0991 15.089V13.5386C61.1001 13.5141 61.1091 13.4905 61.1248 13.4717C61.1406 13.4528 61.1621 13.4397 61.186 13.4343C62.2718 13.1985 63.3777 13.0669 64.4885 13.0415C66.6751 13.0415 67.9648 13.5699 67.9648 15.9303V21.6522C67.9648 21.6808 67.9534 21.7082 67.9332 21.7284C67.913 21.7486 67.8856 21.76 67.857 21.76H65.6982C65.6749 21.7598 65.6523 21.7519 65.634 21.7374C65.6157 21.7229 65.6029 21.7027 65.5974 21.68L65.3645 20.8353H65.4618C64.8465 21.6904 64.0296 21.9303 63.0285 21.9303C61.4224 21.9303 60.5673 20.6823 60.5673 19.2119C60.5673 16.9905 62.1907 16.5456 63.4039 16.5456H65.4897V15.9824C65.4897 15.2872 64.9682 15.1307 62.9867 15.1307C62.149 15.1307 61.2486 15.1968 61.2104 15.1968C61.1815 15.1968 61.1537 15.1856 61.1329 15.1654C61.1122 15.1453 61.1 15.1179 61.0991 15.089ZM65.4862 18.0647H64.1304C63.4108 18.0647 62.945 18.3393 62.945 19.1076C62.945 19.9349 63.5395 20.1227 64.1096 20.1227C64.2948 20.1327 64.4801 20.1036 64.6533 20.0373C64.8266 19.9709 64.9839 19.8689 65.1151 19.7377C65.2463 19.6065 65.3484 19.4492 65.4147 19.2759C65.481 19.1027 65.5101 18.9174 65.5001 18.7321V18.0369L65.4862 18.0647Z" fill="#161616"/>
<path d="M69.4039 21.6491V13.3061C69.4039 13.2781 69.4148 13.2512 69.4343 13.2311C69.4537 13.211 69.4802 13.1992 69.5082 13.1983H71.5245C71.5493 13.198 71.5735 13.2066 71.5927 13.2225C71.6118 13.2384 71.6246 13.2607 71.6287 13.2852L71.8686 14.5819H71.9034C72.1556 14.1035 72.536 13.7048 73.002 13.4303C73.468 13.1559 74.0012 13.0166 74.5418 13.028C74.556 13.028 74.57 13.0308 74.5831 13.0362C74.5962 13.0416 74.608 13.0496 74.6181 13.0596C74.6281 13.0696 74.636 13.0814 74.6414 13.0945C74.6468 13.1076 74.6496 13.1216 74.6496 13.1358V15.4579C74.6496 15.4865 74.6383 15.5139 74.6181 15.5341C74.5978 15.5543 74.5704 15.5657 74.5418 15.5657H73.9648C72.4109 15.5657 71.879 16.1879 71.879 16.9562V21.6352C71.879 21.6632 71.8682 21.6901 71.8487 21.7102C71.8292 21.7303 71.8027 21.7421 71.7747 21.743H69.5186C69.4911 21.745 69.4639 21.7364 69.4426 21.7189C69.4213 21.7015 69.4074 21.6765 69.4039 21.6491V21.6491Z" fill="#161616"/>
<path d="M31.8881 17.4842C31.8881 14.7657 32.9484 13.0415 35.9554 13.0415C38.9623 13.0415 40.04 14.7796 40.04 17.4842C40.04 20.1887 38.9797 21.9268 35.9554 21.9268C32.931 21.9268 31.8881 20.22 31.8881 17.4842ZM34.5579 17.4842C34.5579 18.9546 34.7734 19.855 35.9484 19.855C37.1234 19.855 37.3632 18.9546 37.3632 17.4842C37.3632 16.0137 37.1442 15.1273 35.9484 15.1273C34.7526 15.1273 34.5579 16.0137 34.5579 17.4842Z" fill="#161616"/>
<path d="M18.8521 16.6363C18.9703 14.3107 18.1569 10.5077 16.2241 7.3964C16.1719 7.31645 16.085 7.34774 16.1024 7.43117C16.231 7.90394 16.2623 8.76258 15.5114 8.71043C14.1765 8.62005 15.5566 5.76256 12.6261 3.78109C12.6152 3.77078 12.601 3.76474 12.586 3.76405C12.571 3.76337 12.5563 3.76809 12.5445 3.77736C12.5327 3.78663 12.5246 3.79982 12.5217 3.81455C12.5188 3.82927 12.5213 3.84454 12.5288 3.85757C12.7304 4.23996 12.8486 5.43232 12.3863 5.83904C12.0143 6.16581 11.3434 6.0789 10.6725 5.00474C10.2263 4.26378 9.99601 3.41288 10.0077 2.54803C10.0193 1.68318 10.2725 0.838797 10.7385 0.110154C10.7941 0.0197713 10.7176 -0.0149914 10.6551 0.0058662C6.62261 1.33728 5.81612 6.09281 4.95748 7.82399C4.81495 8.11599 4.68981 8.26547 4.44299 8.25157C3.7095 8.2029 4.23789 6.6351 4.49166 6.08933C4.4972 6.07608 4.49802 6.06134 4.49398 6.04756C4.48993 6.03379 4.48128 6.02182 4.46946 6.01367C4.45764 6.00552 4.44338 6.00168 4.42906 6.0028C4.41475 6.00391 4.40126 6.00992 4.39085 6.0198C2.03721 8.60636 0.531754 11.8514 0.0768024 15.3188C0.0768024 15.2389 0.0420398 15.6039 0.0211822 15.8715C0.0211822 15.9758 0.0142297 16.0813 0.000324594 16.1879C0.000324594 16.313 0.000324594 16.4382 0.000324594 16.5668C-0.0204195 19.0695 0.953867 21.4779 2.70885 23.2622C4.46384 25.0465 6.85576 26.0606 9.35843 26.0813C11.8611 26.1021 14.2695 25.1278 16.0538 23.3728C17.8381 21.6178 18.8522 19.2259 18.873 16.7232C18.8556 16.6919 18.8521 16.6641 18.8521 16.6363V16.6363ZM9.38276 21.0199C8.51658 21.015 7.67132 20.7533 6.954 20.2677C6.23668 19.7822 5.67956 19.0947 5.35319 18.2924C5.02683 17.49 4.94589 16.6089 5.12062 15.7605C5.29535 14.9121 5.7179 14.1346 6.33476 13.5265C6.95163 12.9184 7.73506 12.5071 8.58586 12.3445C9.43666 12.1819 10.3166 12.2755 11.1142 12.6133C11.9118 12.9511 12.5912 13.518 13.0664 14.2422C13.5416 14.9664 13.7913 15.8153 13.7837 16.6815C13.7736 17.8398 13.3047 18.9469 12.4798 19.7602C11.6548 20.5734 10.5411 21.0264 9.38276 21.0199V21.0199Z" fill="#161616"/>
</svg>
