<svg width="56" height="57" viewBox="0 0 56 57" fill="none" xmlns="http://www.w3.org/2000/svg">
<rect x="52.2066" y="2.89258" width="3.66793" height="53.7982" fill="#161616"/>
<rect x="55.8745" y="53.8203" width="2.87084" height="54.4485" transform="rotate(90 55.8745 53.8203)" fill="#161616"/>
<path d="M33.0962 27.7459C33.0962 31.0641 30.4065 33.7538 27.0883 33.7538C23.7702 33.7538 21.0805 31.0663 21.0805 27.7459C21.0805 24.4277 23.7702 21.738 27.0883 21.738C30.4065 21.738 33.0962 24.4277 33.0962 27.7459ZM41.76 20.4653C41.8456 22.3643 41.8636 22.9342 41.8636 27.7459C41.8636 32.5576 41.8456 33.1275 41.76 35.0288C41.5347 39.872 39.2618 42.1945 34.3735 42.4153C32.4722 42.5009 31.9023 42.5212 27.0883 42.5212C22.2766 42.5212 21.7045 42.5032 19.8077 42.4176C14.9104 42.1945 12.642 39.8675 12.4212 35.031C12.3334 33.1275 12.3131 32.5576 12.3131 27.7459C12.3131 22.9342 12.3334 22.3643 12.419 20.4653C12.642 15.6175 14.9172 13.2995 19.8055 13.0788C21.7067 12.9909 22.2766 12.9729 27.0883 12.9729C31.9001 12.9729 32.4722 12.9909 34.3712 13.0765C39.255 13.2995 41.5347 15.6175 41.76 20.4653ZM36.3423 27.7459C36.3423 22.6346 32.1974 18.4919 27.0883 18.4919C21.977 18.4919 17.8344 22.6346 17.8344 27.7459C17.8344 32.8572 21.9793 36.9999 27.0883 36.9999C32.1997 36.9999 36.3423 32.8572 36.3423 27.7459ZM38.8698 18.127C38.8698 16.9331 37.9012 15.9644 36.7073 15.9644C35.5133 15.9644 34.5447 16.9331 34.5447 18.127C34.5447 19.3209 35.5133 20.2896 36.7073 20.2896C37.9034 20.2896 38.8698 19.3209 38.8698 18.127ZM54.1204 0.713867V54.778H0.0563049V0.713867H54.1204ZM45.1097 27.7459C45.1097 22.8531 45.0894 22.2381 45.0016 20.3166C44.7065 13.7794 41.0707 10.1345 34.5199 9.83493C32.5961 9.74482 31.9834 9.72455 27.0883 9.72455C22.1933 9.72455 21.5828 9.74482 19.659 9.83268C13.1128 10.1323 9.47697 13.7636 9.17511 20.3144C9.08726 22.2381 9.06699 22.8531 9.06699 27.7459C9.06699 32.641 9.08726 33.2537 9.17511 35.1752C9.47697 41.7215 13.1083 45.3595 19.659 45.6591C21.5828 45.747 22.1933 45.7673 27.0883 45.7673C31.9834 45.7673 32.5961 45.747 34.5199 45.6591C41.0572 45.3595 44.7065 41.7282 45.0016 35.1752C45.0894 33.2537 45.1097 32.641 45.1097 27.7459Z" fill="#720570"/>
<path d="M33.0962 27.7459C33.0962 31.0641 30.4065 33.7538 27.0883 33.7538C23.7702 33.7538 21.0805 31.0663 21.0805 27.7459C21.0805 24.4277 23.7702 21.738 27.0883 21.738C30.4065 21.738 33.0962 24.4277 33.0962 27.7459ZM41.76 20.4653C41.8456 22.3643 41.8636 22.9342 41.8636 27.7459C41.8636 32.5576 41.8456 33.1275 41.76 35.0288C41.5347 39.872 39.2618 42.1945 34.3735 42.4153C32.4722 42.5009 31.9023 42.5212 27.0883 42.5212C22.2766 42.5212 21.7045 42.5032 19.8077 42.4176C14.9104 42.1945 12.642 39.8675 12.4212 35.031C12.3334 33.1275 12.3131 32.5576 12.3131 27.7459C12.3131 22.9342 12.3334 22.3643 12.419 20.4653C12.642 15.6175 14.9172 13.2995 19.8055 13.0788C21.7067 12.9909 22.2766 12.9729 27.0883 12.9729C31.9001 12.9729 32.4722 12.9909 34.3712 13.0765C39.255 13.2995 41.5347 15.6175 41.76 20.4653ZM36.3423 27.7459C36.3423 22.6346 32.1974 18.4919 27.0883 18.4919C21.977 18.4919 17.8344 22.6346 17.8344 27.7459C17.8344 32.8572 21.9793 36.9999 27.0883 36.9999C32.1997 36.9999 36.3423 32.8572 36.3423 27.7459ZM38.8698 18.127C38.8698 16.9331 37.9012 15.9644 36.7073 15.9644C35.5133 15.9644 34.5447 16.9331 34.5447 18.127C34.5447 19.3209 35.5133 20.2896 36.7073 20.2896C37.9034 20.2896 38.8698 19.3209 38.8698 18.127ZM54.1204 0.713867V54.778H0.0563049V0.713867H54.1204ZM45.1097 27.7459C45.1097 22.8531 45.0894 22.2381 45.0016 20.3166C44.7065 13.7794 41.0707 10.1345 34.5199 9.83493C32.5961 9.74482 31.9834 9.72455 27.0883 9.72455C22.1933 9.72455 21.5828 9.74482 19.659 9.83268C13.1128 10.1323 9.47697 13.7636 9.17511 20.3144C9.08726 22.2381 9.06699 22.8531 9.06699 27.7459C9.06699 32.641 9.08726 33.2537 9.17511 35.1752C9.47697 41.7215 13.1083 45.3595 19.659 45.6591C21.5828 45.747 22.1933 45.7673 27.0883 45.7673C31.9834 45.7673 32.5961 45.747 34.5199 45.6591C41.0572 45.3595 44.7065 41.7282 45.0016 35.1752C45.0894 33.2537 45.1097 32.641 45.1097 27.7459Z" fill="url(#paint0_linear_33_1005)"/>
<defs>
<linearGradient id="paint0_linear_33_1005" x1="85.4915" y1="0.713869" x2="-20.4467" y2="54.778" gradientUnits="userSpaceOnUse">
<stop stop-color="#EEB5EA"/>
<stop offset="1" stop-color="#A0009E"/>
</linearGradient>
</defs>
</svg>
