<svg width="28" height="11" viewBox="0 0 28 11" fill="none" xmlns="http://www.w3.org/2000/svg">
<path d="M26.4267 0.316406L1.861 1.83353C1.16078 1.83353 0.752328 2.18363 0.752328 2.9422L0.460574 7.66862L0.577276 7.49357V7.66862L0.460574 7.78532L0.343872 9.7109C0.343872 10.1194 0.518925 10.4111 0.752328 10.6445C0.985732 10.8779 1.33584 10.9946 1.68594 10.9363L7.52103 10.2361L26.1933 8.71894C26.8935 8.71894 27.2436 8.31048 27.302 7.66862L27.5937 2.88385H27.5354C27.477 2.82549 27.3603 2.82549 27.302 2.82549V2.24199L27.5937 2.00858H27.6521V1.60013C27.7104 0.899915 27.1269 0.316406 26.4267 0.316406ZM17.6157 3.409H17.6741L18.0242 3.64241H17.9658L17.9075 3.70076H17.6741C17.6157 3.58406 17.5574 3.5257 17.5574 3.46735C17.6157 3.46735 17.6157 3.46735 17.6157 3.409ZM18.0242 4.16757C18.0242 4.22592 18.0242 4.28427 17.9075 4.34262H17.499V4.16757C17.5574 4.10922 17.5574 4.05086 17.5574 3.93416H18.0242V4.16757ZM24.3261 8.60223H23.6842V8.42718H24.3261V8.60223Z" fill="#A0009E"/>
</svg>
