<svg width="42" height="33" viewBox="0 0 42 33" fill="none" xmlns="http://www.w3.org/2000/svg">
<path d="M41.3784 12.7713C41.3784 19.8259 35.6618 25.5425 28.6072 25.5425C21.5525 25.5425 15.8359 19.8259 15.8359 12.7713C15.8359 5.71662 21.5565 0 28.6112 0C35.6658 0 41.3784 5.71662 41.3784 12.7713ZM14.4177 12.7713C14.4177 8.4167 16.3927 4.51481 19.4894 1.91088C17.5385 0.701058 15.239 0 12.7713 0C5.71662 0 0 5.71662 0 12.7713C0 19.8259 5.71662 25.5425 12.7713 25.5425C15.235 25.5425 17.5385 24.8415 19.4894 23.6316C16.3927 21.0277 14.4177 17.1258 14.4177 12.7713ZM7.51934 31.9642V29.837C7.51934 29.0358 7.01057 28.495 6.18533 28.491C5.75268 28.483 5.304 28.6192 4.99553 29.0959C4.76318 28.7193 4.39062 28.491 3.87384 28.491C3.5133 28.491 3.15676 28.5991 2.88034 28.9957V28.5791H2.14323V31.9682H2.88836V30.0894C2.88836 29.5005 3.21285 29.188 3.71761 29.188C4.20635 29.188 4.45472 29.5085 4.45472 30.0814V31.9682H5.19984V30.0894C5.19984 29.5005 5.54036 29.188 6.02909 29.188C6.53386 29.188 6.77422 29.5085 6.77422 30.0814V31.9682H7.51934V31.9642ZM18.544 28.5711H17.3382V27.5415H16.593V28.5711H15.904V29.2441H16.593V30.7904C16.593 31.5796 16.8975 32.0443 17.7708 32.0443C18.0913 32.0443 18.4598 31.9442 18.6922 31.7799L18.4799 31.147L17.8269 31.3393C17.4583 31.3393 17.3382 31.1109 17.3382 30.7704V29.2401H18.544V28.5711ZM24.8335 28.487C24.4088 28.487 24.1324 28.6873 23.9401 28.9837V28.5711H23.211V31.9602H23.9481V30.0573C23.9481 29.4965 24.1885 29.184 24.6732 29.184L25.1339 29.2681L25.3623 28.5711L24.8335 28.487ZM15.3231 28.8435C14.9666 28.6112 14.4778 28.487 13.941 28.487C13.0837 28.487 12.5309 28.8996 12.5309 29.5726C12.5309 30.1254 12.9435 30.466 13.7007 30.5741L14.0492 30.6222C14.4538 30.6783 14.6461 30.7864 14.6461 30.9787C14.6461 31.2431 14.3777 31.3914 13.8729 31.3914C13.3642 31.3914 12.9916 31.2271 12.7432 31.0348L12.3907 31.6077C12.7953 31.9041 13.3041 32.0483 13.8609 32.0483C14.8384 32.0483 15.4072 31.5876 15.4072 30.9427C15.4072 30.3458 14.9586 30.0333 14.2215 29.9291L13.8729 29.8811C13.5524 29.837 13.3001 29.7729 13.3001 29.5486C13.3001 29.3002 13.5404 29.152 13.945 29.152C14.3777 29.152 14.7943 29.3162 15.0026 29.4444L15.3231 28.8435ZM35.0849 28.487C34.6603 28.487 34.3839 28.6873 34.1916 28.9837V28.5711H33.4625V31.9602H34.1996V30.0573C34.1996 29.4965 34.44 29.184 34.9247 29.184L35.3854 29.2681L35.6137 28.5711L35.0849 28.487ZM25.5786 30.2697C25.5786 31.2992 26.2957 32.0483 27.3893 32.0483C27.8981 32.0483 28.2386 31.9362 28.6112 31.6437L28.2546 31.0468C27.9782 31.2471 27.6858 31.3513 27.3693 31.3513C26.7804 31.3433 26.3477 30.9186 26.3477 30.2657C26.3477 29.6127 26.7804 29.188 27.3693 29.18C27.6898 29.18 27.9782 29.2882 28.2546 29.4845L28.6112 28.8876C28.2426 28.5951 27.9021 28.483 27.3893 28.483C26.2957 28.487 25.5786 29.2401 25.5786 30.2697ZM32.489 30.2697V28.5751H31.7519V28.9877C31.5195 28.6833 31.163 28.491 30.6823 28.491C29.7329 28.491 28.9877 29.2361 28.9877 30.2697C28.9877 31.3072 29.7329 32.0483 30.6823 32.0483C31.163 32.0483 31.5195 31.8561 31.7519 31.5516V31.9642H32.489V30.2697ZM29.7449 30.2697C29.7449 29.6728 30.1335 29.184 30.7744 29.184C31.3833 29.184 31.796 29.6527 31.796 30.2697C31.796 30.8866 31.3833 31.3553 30.7744 31.3553C30.1335 31.3513 29.7449 30.8626 29.7449 30.2697ZM20.8434 28.487C19.8499 28.487 19.1569 29.2121 19.1569 30.2657C19.1569 31.3433 19.882 32.0443 20.8955 32.0443C21.4043 32.0443 21.873 31.9161 22.2856 31.5676L21.9251 31.0228C21.6406 31.2511 21.2801 31.3793 20.9396 31.3793C20.4629 31.3793 20.0302 31.159 19.9261 30.5501H22.4459L22.4619 30.2657C22.4459 29.2121 21.7929 28.487 20.8434 28.487ZM20.8274 29.148C21.3041 29.148 21.6086 29.4444 21.6847 29.9692H19.9261C20.0062 29.4805 20.3026 29.148 20.8274 29.148ZM39.3353 30.2697V27.213H38.5982V28.9877C38.3659 28.6833 38.0093 28.491 37.5286 28.491C36.5792 28.491 35.8341 29.2361 35.8341 30.2697C35.8341 31.3072 36.5792 32.0483 37.5286 32.0483C38.0093 32.0483 38.3659 31.8561 38.5982 31.5516V31.9642H39.3353V30.2697ZM36.5912 30.2697C36.5912 29.6728 36.9798 29.184 37.6208 29.184C38.2297 29.184 38.6423 29.6527 38.6423 30.2697C38.6423 30.8866 38.2297 31.3553 37.6208 31.3553C36.9798 31.3513 36.5912 30.8626 36.5912 30.2697ZM11.6776 30.2697V28.5751H10.9365V28.9877C10.7041 28.6833 10.3476 28.491 9.86688 28.491C8.91745 28.491 8.17233 29.2361 8.17233 30.2697C8.17233 31.3032 8.91745 32.0483 9.86688 32.0483C10.3476 32.0483 10.7041 31.8561 10.9365 31.5516V31.9642H11.6776V30.2697ZM8.92947 30.2697C8.92947 29.6728 9.31806 29.184 9.95902 29.184C10.5679 29.184 10.9806 29.6527 10.9806 30.2697C10.9806 30.8866 10.5679 31.3553 9.95902 31.3553C9.32206 31.3513 8.92947 30.8626 8.92947 30.2697Z" fill="black"/>
</svg>
