<svg width="14" height="14" viewBox="0 0 14 14" fill="none" xmlns="http://www.w3.org/2000/svg">
<path d="M13.2407 5.11172L13.0845 5.39278V5.70507H13.2094L13.0845 7.54749C13.0533 7.85977 12.8659 8.01593 12.5224 8.04716L8.18172 8.26575L7.9319 12.3254C7.90067 12.7001 7.71331 12.8875 7.3698 12.9187L5.05893 13.1061C4.68419 13.1373 4.37191 12.825 4.37191 12.4503L4.49683 8.48434L0.655787 8.67172C0.468419 8.70295 0.312279 8.67171 0.187368 8.5468C0.0936837 8.42189 0 8.29697 0 8.07837L0.0624555 7.17278L0.124912 7.11031V7.01665L0.0624555 7.11031L0.187368 5.2991C0.218596 4.95559 0.405963 4.76822 0.749471 4.76822L4.62174 4.67454L4.74665 0.95841C4.71542 0.614903 4.93402 0.365075 5.33998 0.365075L8.02558 0.146484C8.24418 0.146484 8.40032 0.240163 8.52523 0.365075C8.65014 0.489987 8.7126 0.677361 8.68137 0.864728L8.43155 4.58084L12.6473 4.48716C12.9908 4.48716 13.2719 4.76821 13.2407 5.11172ZM6.99506 1.9577C6.96384 1.98893 6.96384 1.98894 6.96384 2.02017C6.96384 2.0514 6.93261 2.05138 6.93261 2.05138H6.99506V1.9577ZM6.30805 3.17558C6.30805 3.17558 6.27682 3.14437 6.24559 3.14437C6.18314 3.14437 6.18313 3.11314 6.18313 3.11314L6.12068 3.23805C6.18314 3.23805 6.30805 3.20681 6.30805 3.17558ZM7.24489 3.33173V3.23805H7.18243V3.33173H7.24489ZM6.74524 5.14296L6.62033 5.17419L6.77647 5.36154L6.74524 5.14296ZM9.74312 5.17419H9.36839C9.43084 5.33033 9.58698 5.26787 9.74312 5.17419ZM10.6175 5.2991V5.42401H10.68V5.2991H10.6175V5.17419H10.3677V5.2991H10.6175ZM6.77647 5.70507L6.68278 6.11102L6.8077 6.0798L6.77647 5.70507ZM7.99436 6.2047V6.36084H8.24418V6.2047H7.99436ZM8.36909 6.89172V7.04786H8.61892V6.89172H8.36909ZM4.27823 7.39136C4.27823 7.3289 4.247 7.29768 4.18454 7.23522C4.09086 7.23522 4.05964 7.29767 4.05964 7.39136H4.27823ZM5.77717 7.54749C5.71472 7.48504 5.62103 7.45383 5.52735 7.48505C5.52735 7.48505 5.52735 7.54749 5.74594 7.54749H5.77717ZM6.52664 9.82715V9.95206H6.77647V9.82715H6.52664ZM6.02699 10.7328L5.93331 10.6078H5.87086L5.96454 10.7328H6.02699Z" fill="#A0009E"/>
</svg>
