<svg width="26" height="26" viewBox="0 0 26 26" fill="none" xmlns="http://www.w3.org/2000/svg">
<path d="M25.0847 10.2719L24.7929 10.7971V11.3806H25.0263L24.7929 14.8233C24.7346 15.4068 24.3844 15.6986 23.7426 15.7569L15.6318 16.1654L15.165 23.751C15.1067 24.4512 14.7565 24.8013 14.1147 24.8596L9.79672 25.2098C9.09651 25.2681 8.513 24.6846 8.513 23.9844L8.74641 16.5738L1.56924 16.924C1.21914 16.9823 0.927381 16.9239 0.693977 16.6905C0.518924 16.4571 0.343872 16.2237 0.343872 15.8152L0.460573 14.1231L0.577276 14.0064V13.8314L0.460573 14.0064L0.693977 10.622C0.752328 9.98018 1.10243 9.63007 1.74429 9.63007L8.9798 9.45502L9.21321 2.51126C9.15486 1.8694 9.56331 1.40259 10.3219 1.40259L15.3401 0.994141C15.7485 0.994141 16.0403 1.16918 16.2737 1.40259C16.5071 1.63599 16.6238 1.98611 16.5654 2.33621L16.0986 9.27994L23.976 9.10489C24.6178 9.10489 25.143 9.63005 25.0847 10.2719ZM13.4145 4.37848C13.3561 4.43683 13.3561 4.43686 13.3561 4.49521C13.3561 4.55356 13.2978 4.55353 13.2978 4.55353H13.4145V4.37848ZM12.1308 6.65414C12.1308 6.65414 12.0724 6.59583 12.0141 6.59583C11.8974 6.59583 11.8974 6.53748 11.8974 6.53748L11.7807 6.77087C11.8974 6.77087 12.1308 6.71249 12.1308 6.65414ZM13.8813 6.94592V6.77087H13.7646V6.94592H13.8813ZM12.9477 10.3303L12.7143 10.3886L13.006 10.7387L12.9477 10.3303ZM18.5494 10.3886H17.8491C17.9658 10.6804 18.2576 10.5637 18.5494 10.3886ZM20.1832 10.622V10.8554H20.2999V10.622H20.1832V10.3886H19.7164V10.622H20.1832ZM13.006 11.3806L12.831 12.1392L13.0644 12.0808L13.006 11.3806ZM15.2817 12.3142V12.606H15.7485V12.3142H15.2817ZM15.9819 13.5979V13.8897H16.4487V13.5979H15.9819ZM8.33795 14.5315C8.33795 14.4148 8.27959 14.3565 8.16289 14.2398C7.98784 14.2398 7.92949 14.3565 7.92949 14.5315H8.33795ZM11.1388 14.8233C11.0221 14.7066 10.847 14.6483 10.672 14.7066C10.672 14.7066 10.672 14.8233 11.0804 14.8233H11.1388ZM12.5392 19.0829V19.3163H13.006V19.0829H12.5392ZM11.6056 20.7751L11.4305 20.5417H11.3138L11.4889 20.7751H11.6056Z" fill="#A0009E"/>
</svg>
