<svg width="110" height="104" viewBox="0 0 110 104" fill="none" xmlns="http://www.w3.org/2000/svg">
<path d="M67.6141 5.14112C66.931 3.77494 66.0961 2.33285 64.8817 1.80156C63.8191 1.34616 62.7565 1.64976 61.7699 1.95336C48.3357 6.43141 35.2051 11.972 22.6059 18.4235L21.9987 18.7271C18.6591 21.8389 21.0879 29.8083 22.9854 35.1972C30.1958 55.5382 37.558 75.8791 45.2238 96.1442C45.5274 96.9032 45.7551 97.5863 46.2864 98.1935C46.9695 99.0284 47.9562 99.2561 48.867 99.4078C51.5235 99.7114 54.0281 99.0284 56.4569 98.2694C68.3731 94.7021 79.9856 90.3759 91.2946 85.2147C93.0403 84.4557 94.8619 83.469 95.4691 81.4198C95.9245 79.75 95.4691 77.6248 95.0137 75.7273C88.6381 51.2878 79.3784 27.4555 67.6141 5.14112Z" fill="white"/>
<path d="M21.2397 17.8164C19.0386 19.9416 18.9627 23.2052 19.3422 26.0894C19.7976 29.3531 20.7843 32.5408 21.9228 35.6527C25.1106 44.6847 28.3742 53.7167 31.6379 62.7487C34.9016 71.7807 38.2411 80.8127 41.5807 89.7688C42.4156 92.0457 43.2505 94.2468 44.0853 96.5238C44.4648 97.5864 44.9202 98.649 45.831 99.3321C46.59 99.9393 47.5767 100.243 48.4875 100.395C50.6886 100.698 52.8896 100.319 55.0148 99.7116C57.2159 99.1044 59.417 98.4213 61.6181 97.6623C70.7259 94.7781 79.682 91.3627 88.4104 87.5677C89.473 87.1123 90.5356 86.6569 91.5982 86.1256C92.4331 85.7461 93.268 85.2907 94.027 84.7594C95.6968 83.6209 96.6076 81.7994 96.6076 79.826C96.6076 77.7008 96.0004 75.6515 95.4691 73.6023C94.8619 71.3253 94.2547 68.9724 93.5716 66.6954C90.991 57.6634 87.955 48.7832 84.6155 39.9789C81.2759 31.1746 77.481 22.598 73.3824 14.0973C72.3198 11.9722 71.3331 9.84698 70.1946 7.79771C69.6634 6.73512 69.0562 5.67253 68.5249 4.60995C68.0695 3.77506 67.6141 2.86426 67.0069 2.10527C66.3238 1.27038 65.413 0.587287 64.3504 0.35959C63.3637 0.131893 62.377 0.359591 61.4662 0.663188C59.1893 1.34628 56.9882 2.18117 54.7871 3.01606C45.831 6.27972 36.9508 9.99878 28.3742 14.0973C26.2491 15.084 24.1998 16.1466 22.0746 17.2092C21.5433 17.5128 21.1638 18.12 21.4674 18.7272C21.6951 19.2585 22.4541 19.638 22.9854 19.3344C31.3343 15.084 39.835 11.2891 48.4875 7.87361C52.8137 6.20382 57.14 4.60994 61.4662 3.16786C61.6939 3.09196 61.9975 3.01606 62.2252 2.94016C62.3011 2.94016 62.4529 2.86426 62.5288 2.86426C62.5288 2.86426 62.8324 2.78837 62.6806 2.78837C63.0601 2.71247 63.5155 2.63656 63.8191 2.63656C64.1986 2.71246 64.3504 2.78836 64.654 3.01606C64.9576 3.24376 65.1094 3.47146 65.413 3.85095C65.9443 4.60995 66.3238 5.36894 66.7792 6.27973C67.3105 7.26641 67.8418 8.329 68.3731 9.31569C72.5475 17.5128 76.3425 25.7858 79.8338 34.2865C83.3252 42.7872 86.4371 51.4397 89.1694 60.1681C90.5356 64.4944 91.8259 68.8965 92.9644 73.2987C93.4957 75.1961 94.1029 77.2454 94.2547 79.2188C94.4065 80.8886 93.7993 82.103 92.4331 83.0138C92.3572 83.0897 92.2054 83.1655 92.1295 83.2414C92.1295 83.2414 91.9018 83.3932 92.0536 83.2414C91.9018 83.3173 91.6741 83.4691 91.5223 83.545C91.1428 83.7727 90.6874 83.9245 90.3079 84.0763C89.2453 84.5317 88.1827 85.063 87.1202 85.5184C84.995 86.4292 82.8698 87.34 80.6687 88.2508C76.3425 89.9965 72.0162 91.6663 67.6141 93.1842C63.2878 94.7022 58.9616 96.1443 54.6353 97.3587C52.7378 97.89 50.7645 98.2695 48.867 98.0418C48.108 97.9659 47.5008 97.8141 47.0454 97.2828C46.3623 96.5238 46.1346 95.4612 45.7551 94.5504C42.4915 85.822 39.2278 77.0177 36.04 68.2893C32.8523 59.485 29.6645 50.7566 26.5526 41.9523C25.2624 38.2333 23.8203 34.5142 22.6818 30.7951C22.6059 30.4157 22.4541 30.0362 22.3782 29.6567C22.3023 29.2772 22.3782 29.7326 22.3782 29.5808C22.3782 29.5049 22.3023 29.3531 22.3023 29.2772C22.2264 29.0495 22.2264 28.8218 22.1505 28.5941C21.9987 27.8351 21.8469 27.0761 21.6951 26.3171C21.5433 25.5581 21.4674 24.7991 21.4674 24.0401C21.4674 23.8883 21.4674 23.6606 21.4674 23.5088C21.4674 23.1293 21.4674 23.6606 21.4674 23.4329C21.4674 23.357 21.4674 23.2811 21.4674 23.2052C21.4674 22.9016 21.5433 22.5221 21.5433 22.2185C21.6192 21.9149 21.6192 21.6114 21.6951 21.3078C21.6192 21.5355 21.771 21.156 21.771 21.0801C21.8469 20.9283 21.8469 20.8524 21.9228 20.7006C21.9987 20.5488 22.0746 20.4729 22.0746 20.3211C22.2264 20.0934 21.9987 20.4729 22.0746 20.3211C22.1505 20.2452 22.1505 20.1693 22.2264 20.1693C22.3023 20.0175 22.3782 19.9416 22.4541 19.8657C22.4541 19.7898 22.53 19.7898 22.53 19.7139C22.6818 19.4862 22.3782 19.8657 22.53 19.7139C22.9854 19.2585 23.1372 18.6513 22.7577 18.12C22.53 17.5128 21.6951 17.361 21.2397 17.8164Z" fill="#362D2A"/>
<path d="M71.6523 12.6006H76.2781" stroke="#362D2A" stroke-width="2"/>
<path d="M65.8684 14.0976C65.0335 12.5796 63.971 10.9857 62.5289 10.3785C61.3145 9.92312 60.1001 10.2267 58.9616 10.6062C48.4875 13.8699 38.393 18.1961 28.7538 23.4332C27.2358 24.2681 25.0347 25.786 25.9455 28.063L26.0214 28.2148C32.4728 47.4932 39.6073 66.6198 47.4249 85.4428C48.1839 87.2643 49.1706 89.2377 50.7645 89.769C51.5994 89.9967 52.3584 89.8449 53.1174 89.6172C63.971 86.6571 74.5209 82.8622 84.6914 78.2323C85.8299 77.701 87.0443 77.0938 87.6515 75.8795C88.5623 73.982 87.7274 71.4773 86.8925 69.2003C82.035 56.1457 77.2533 43.0151 72.3958 29.9605C70.6501 24.5716 68.6008 19.1069 65.8684 14.0976Z" fill="#CC64C8"/>
<path d="M25.0347 28.67C27.4635 36.0322 30.044 43.3185 32.7005 50.6048C35.357 57.8911 38.0894 65.1016 40.8976 72.312C42.3397 75.9551 43.7818 79.5224 45.2239 83.1656C45.8311 84.7594 46.4383 86.3533 47.2731 87.8713C48.0321 89.3134 49.0947 90.6037 50.7645 91.0591C51.6753 91.2868 52.5102 91.0591 53.421 90.8314C54.3318 90.6037 55.2426 90.3001 56.1533 90.0724C57.9749 89.5411 59.8724 89.0098 61.694 88.4026C65.3371 87.2641 68.9044 85.9738 72.4717 84.6835C76.1148 83.3173 79.6821 81.8753 83.1734 80.3573C84.0083 79.9778 84.8432 79.6742 85.6781 79.2947C86.4371 78.9152 87.1202 78.5357 87.7274 78.0044C88.9418 76.79 89.3213 75.1961 89.1695 73.5264C89.0177 72.0084 88.4864 70.4904 88.031 69.0483C87.3479 67.2267 86.6648 65.4051 85.9817 63.5836C84.6155 59.9404 83.3252 56.2973 81.9591 52.6541C79.3026 45.3678 76.5702 38.0815 73.9138 30.871C72.6235 27.3038 71.2573 23.6606 69.7393 20.1693C68.9803 18.4236 68.1454 16.6779 67.2346 14.9322C66.3997 13.4142 65.6407 11.8963 64.3505 10.6819C63.1361 9.46749 61.4663 9.08799 59.7965 9.39158C58.8857 9.54338 58.0508 9.84698 57.2159 10.1506C56.3052 10.4542 55.3185 10.7578 54.4077 11.0614C50.7645 12.2758 47.1972 13.6419 43.63 15.1599C40.1386 16.602 36.6473 18.1959 33.2318 19.9416C31.4861 20.7765 29.7404 21.6872 28.0707 22.598C27.0081 23.2052 25.9455 23.8883 25.1865 24.7991C24.3516 25.9376 24.1239 27.3038 24.6552 28.67C24.8829 29.2013 25.6419 29.5808 26.1732 29.2772C26.7804 28.9736 27.0081 28.3664 26.7804 27.7592C26.7804 27.6833 26.7045 27.6074 26.7045 27.4556C26.7045 27.4556 26.7804 27.6833 26.7045 27.5315C26.7045 27.3797 26.6286 27.2279 26.6286 27.0761C26.6286 27.0002 26.7045 26.9243 26.6286 27.152C26.6286 27.0761 26.6286 27.0761 26.6286 27.0002C26.6286 26.9243 26.6286 26.8484 26.7045 26.7725C26.7045 26.9243 26.6286 26.9243 26.7045 26.7725C26.7804 26.6966 26.7804 26.5448 26.8563 26.4689C26.8563 26.393 27.0081 26.2412 26.8563 26.4689C26.8563 26.393 26.9322 26.393 26.9322 26.3171C27.0081 26.2412 27.084 26.0894 27.1599 26.0135C27.1599 25.9376 27.2358 25.9376 27.2358 25.8617C27.3876 25.634 27.084 26.0135 27.2358 25.8617C27.6153 25.4822 28.0707 25.1786 28.5261 24.875C28.602 24.875 28.602 24.7991 28.6779 24.7991C28.9056 24.6473 28.5261 24.875 28.6779 24.7991C28.7538 24.7232 28.9056 24.7232 28.9815 24.6473C29.4369 24.4196 29.8923 24.1919 30.2717 23.9642C33.5354 22.2185 36.9509 20.5488 40.2904 19.0308C43.7059 17.5128 47.1973 16.0707 50.6886 14.7804C52.4343 14.0973 54.18 13.4901 55.9257 12.8829C56.7605 12.5793 57.6713 12.2758 58.5062 12.0481C58.8857 11.8963 59.2652 11.8204 59.7206 11.6686C59.4929 11.7445 59.8724 11.5927 59.9483 11.5927C60.176 11.5168 60.4037 11.5168 60.6314 11.5168C60.7073 11.5168 60.7832 11.5168 60.8591 11.5168C61.2386 11.5168 60.7073 11.5168 60.935 11.5168C61.0868 11.5168 61.2386 11.5168 61.4663 11.5927C61.8458 11.6686 61.3904 11.5168 61.5422 11.5927C61.6181 11.5927 61.694 11.6686 61.7699 11.6686C61.8458 11.6686 61.9217 11.7445 61.9217 11.7445C62.1494 11.8204 61.8458 11.6686 61.9976 11.8204C62.1494 11.8963 62.3012 12.0481 62.453 12.124C62.5289 12.1999 62.5289 12.1999 62.6048 12.2758C62.8325 12.5035 62.453 12.124 62.6807 12.3517C62.9084 12.6552 63.1361 12.8829 63.3638 13.1865C63.5915 13.4901 63.7433 13.7937 63.971 14.0214C64.0469 14.0973 64.1228 14.2491 64.1228 14.325C64.1228 14.2491 64.0469 14.1732 64.1228 14.325C64.2746 14.5527 64.3505 14.7045 64.4264 14.9322C64.8818 15.7671 65.2612 16.602 65.7166 17.4369C67.3105 20.7765 68.6767 24.2678 69.967 27.6833C72.6235 34.666 75.1281 41.7246 77.7087 48.7832C80.2893 55.8419 82.9458 62.9005 85.5263 69.9591C85.754 70.6422 85.9817 71.3253 86.2094 72.0084C86.1335 71.7807 86.2094 72.0084 86.2094 72.0843C86.2094 72.1602 86.2853 72.2361 86.2853 72.3879C86.2853 72.5397 86.3612 72.6915 86.3612 72.8433C86.4371 73.2228 86.4371 73.6023 86.513 73.9818C86.513 74.0576 86.513 74.1336 86.513 74.2094C86.513 73.9818 86.513 74.2094 86.513 74.2854C86.513 74.4371 86.513 74.5889 86.4371 74.7407C86.4371 74.8925 86.3612 75.0443 86.3612 75.1961C86.3612 75.1202 86.4371 74.9684 86.3612 75.1961C86.3612 75.272 86.2853 75.3479 86.2853 75.4997C86.2853 75.5756 86.2094 75.6515 86.2094 75.7274C86.1335 75.8792 86.3612 75.5756 86.1335 75.8033C86.0576 75.9551 85.9058 76.1069 85.754 76.2587C85.9058 76.1069 85.6022 76.4105 85.5263 76.4105C85.3745 76.5623 85.1468 76.7141 84.995 76.79C84.995 76.79 84.7673 76.8659 84.995 76.79C84.9191 76.8659 84.8432 76.8659 84.7673 76.9418C84.6155 77.0177 84.4637 77.0936 84.3119 77.1695C83.9324 77.3213 83.5529 77.549 83.0975 77.7008C82.2627 78.0803 81.3519 78.4598 80.4411 78.8393C78.6954 79.5983 77.0256 80.2814 75.2799 80.9645C68.3731 83.6968 61.3145 86.1256 54.18 88.1749C53.7246 88.3267 53.3451 88.4026 52.8897 88.5544C52.662 88.6303 52.5102 88.7062 52.2825 88.7062C51.903 88.7821 52.4343 88.7062 52.2066 88.7062C52.0548 88.7062 51.9789 88.7821 51.8271 88.7821C51.6753 88.7821 51.5235 88.858 51.2958 88.858C51.2199 88.858 50.9922 88.858 51.2199 88.858C51.144 88.858 51.0681 88.858 50.9922 88.858C50.9922 88.858 50.6886 88.7821 50.7645 88.858C50.9163 88.858 50.6127 88.7821 50.6127 88.7821C50.5368 88.7821 50.5368 88.7062 50.4609 88.7062C50.2332 88.6303 50.6127 88.7821 50.385 88.7062C50.2332 88.6303 50.1573 88.5544 50.0055 88.4026C49.9296 88.3267 49.9296 88.3267 49.8537 88.2508C50.0814 88.4026 49.7778 88.1749 49.7778 88.1749C49.5501 87.9472 49.3224 87.6436 49.1706 87.34C49.0947 87.2641 49.0947 87.1882 49.0188 87.1882C48.867 86.8846 49.0947 87.34 49.0188 87.1123C48.9429 86.9605 48.867 86.8087 48.7911 86.6569C48.6393 86.3533 48.4875 85.9738 48.3357 85.6702C46.8178 82.2548 45.5275 78.7634 44.1613 75.3479C41.353 68.3652 38.6965 61.3825 36.0401 54.3239C33.4595 47.2653 30.9548 40.2066 28.5261 33.148C27.9189 31.4023 27.3876 29.6567 26.7804 27.9869C26.5527 27.3797 25.7937 27.0761 25.2624 27.3797C25.1106 27.3797 24.8829 27.9869 25.0347 28.67Z" fill="#362D2A"/>
<path d="M70.3464 86.6568C70.2705 86.6568 70.1187 86.7327 70.0428 86.7327C69.9669 86.7327 69.9669 86.8086 69.891 86.8086C69.8151 86.8086 69.8151 86.8845 69.7392 86.8845L69.5874 87.0363C69.5874 87.0363 69.5115 87.1122 69.4356 87.1881C69.4356 87.1881 69.4356 87.1881 69.4356 87.264C69.3597 87.3399 69.2838 87.4158 69.2838 87.5676C69.2838 87.5676 69.2838 87.5676 69.2838 87.6435C69.2838 87.7194 69.2079 87.8712 69.2079 87.9471C69.2079 88.023 69.2079 88.0989 69.2079 88.1748C69.2079 88.2507 69.2079 88.3266 69.2079 88.4025C69.2079 88.5543 69.2838 88.6302 69.2838 88.782C69.2838 88.782 69.2838 88.8579 69.3597 88.8579C69.4356 88.9338 69.5115 89.0856 69.5874 89.1615C69.6633 89.2374 69.7392 89.3133 69.8151 89.3892C69.8151 89.3892 69.8151 89.3892 69.891 89.3892C70.1946 89.6169 70.4982 89.6927 70.8777 89.6927C70.9536 89.6927 70.9536 89.6928 71.1054 89.6169C71.1813 89.6169 71.2572 89.6168 71.2572 89.5409C71.3331 89.5409 71.409 89.4651 71.409 89.4651C71.409 89.4651 71.4849 89.3892 71.5608 89.3892C71.5608 89.3892 71.5608 89.3892 71.6367 89.3892C71.7126 89.3133 71.8644 89.2374 71.8644 89.0856C71.9403 89.0097 72.0162 88.8579 72.0162 88.7061C72.0162 88.6302 72.0921 88.4784 72.0921 88.4025V88.3266C72.0921 88.2507 72.0921 88.0989 72.0921 87.9471V87.8712C72.0921 87.7194 72.0162 87.6435 72.0162 87.4917V87.4158C71.9403 87.3399 71.9403 87.1881 71.8644 87.1122C71.8644 87.1122 71.8644 87.0363 71.7885 87.0363C71.7126 86.9604 71.6367 86.8845 71.5608 86.8086C71.409 86.7327 71.3331 86.6568 71.1813 86.6568C71.1054 86.5809 70.9536 86.5809 70.8777 86.5809C70.7259 86.5809 70.5741 86.5809 70.4223 86.6568C69.9669 86.8086 69.6633 87.264 69.6633 87.6435C69.5874 88.023 69.7392 88.4025 69.9669 88.7061C70.0428 88.782 70.1187 88.8579 70.1187 88.9338C70.1946 89.0097 70.2705 89.0856 70.3464 89.0856C70.5741 89.2374 70.65 89.2374 70.8018 89.3132C70.8777 89.3132 70.9536 89.3133 70.9536 89.3892C71.1813 89.3892 71.409 89.3891 71.5608 89.3132C72.0162 89.1615 72.3198 88.7061 72.3198 88.2507C72.3957 87.8712 72.2439 87.5676 72.0162 87.264C71.9403 87.1881 71.8644 87.0363 71.7126 86.9604C71.409 86.7327 71.0295 86.6568 70.65 86.7327C70.4223 86.8086 70.3464 86.8086 70.1187 86.9604C69.891 87.1122 69.891 87.1122 69.6633 87.3399C69.5115 87.5676 69.3597 87.8712 69.3597 88.0989C69.3597 88.2507 69.3597 88.3266 69.3597 88.4784V88.5543C69.4356 88.8579 69.5115 89.0097 69.6633 89.2374C69.8151 89.4651 70.1187 89.6927 70.3464 89.7686C70.5741 89.8445 70.9536 89.9205 71.1813 89.8446C71.4849 89.7687 71.5608 89.7686 71.8644 89.5409C72.0162 89.4651 72.0921 89.3133 72.168 89.2374C72.2439 89.1615 72.3198 89.0097 72.3957 88.8579C72.3957 88.782 72.4716 88.7061 72.4716 88.6302C72.4716 88.5543 72.5475 88.4784 72.5475 88.4025C72.5475 88.0989 72.5475 87.7194 72.3957 87.4158C72.2439 87.1122 72.0921 86.8845 71.7885 86.5809C71.6367 86.4291 71.4849 86.3532 71.3331 86.2773C71.1813 86.2014 71.0295 86.1255 70.8777 86.1255H70.8018C70.65 86.1255 70.5741 86.1255 70.4223 86.1255C70.2705 86.1255 70.0428 86.2014 69.891 86.2773C69.5874 86.4291 69.2838 86.6568 69.0561 86.9604C68.9802 87.1122 68.8284 87.264 68.8284 87.4917C68.7525 87.6435 68.6766 87.8712 68.6766 88.023C68.6007 88.4025 68.8284 88.8579 69.132 89.0856C69.4356 89.3133 69.891 89.4651 70.2705 89.3892C70.5741 89.3133 70.7259 89.2374 70.9536 89.0856C71.1054 89.0097 71.1813 88.8579 71.2572 88.782C71.3331 88.7061 71.409 88.5543 71.4849 88.4025C71.5608 88.3266 71.5608 88.1748 71.5608 88.0989C71.5608 88.023 71.5608 87.8712 71.5608 87.7953C71.5608 87.7194 71.4849 87.5676 71.4849 87.4917C71.4849 87.4158 71.3331 87.264 71.3331 87.1881C71.2572 87.1122 71.1813 87.0363 71.1054 86.9604C70.9536 86.8086 70.65 86.7327 70.4223 86.7327C70.1187 86.7327 69.8151 86.8086 69.5874 86.9604C69.4356 87.0363 69.3597 87.1881 69.2838 87.3399C69.2079 87.4917 69.132 87.5676 69.132 87.7194C69.132 88.023 69.132 88.3266 69.3597 88.5543C69.5874 88.782 69.8151 88.9338 70.1187 89.0097C70.1187 89.0097 70.1187 89.0097 70.1946 89.0097C70.1187 89.0097 69.9669 88.9338 69.891 88.9338C69.891 88.9338 69.891 88.9338 69.9669 88.9338C69.891 88.8579 69.8151 88.8579 69.7392 88.782C69.6633 88.7061 69.5874 88.6302 69.5115 88.5543C69.4356 88.4784 69.4356 88.4025 69.3597 88.2507C69.3597 88.1748 69.2838 88.023 69.2838 87.9471C69.2838 87.8712 69.2838 87.7194 69.2838 87.6435C69.2838 87.6435 69.2838 87.6435 69.2838 87.7194C69.2838 87.6435 69.3597 87.4917 69.3597 87.4158V87.4917C69.4356 87.4158 69.4356 87.3399 69.5115 87.264L69.4356 87.3399C69.5115 87.264 69.5874 87.1881 69.6633 87.1122L69.5874 87.1881C69.6633 87.1122 69.7392 87.1122 69.891 87.0363C69.891 87.0363 69.8151 87.0363 69.8151 87.1122C69.891 87.1122 70.0428 87.0363 70.1187 87.0363H70.0428C70.1187 87.0363 70.2705 87.0363 70.3464 87.0363H70.2705C70.3464 87.0363 70.4982 87.1122 70.5741 87.1122H70.4982C70.5741 87.1881 70.65 87.1881 70.7259 87.264C70.7259 87.264 70.7259 87.264 70.65 87.264C70.8018 87.6435 70.9536 88.023 71.1054 88.3266C71.1054 88.2507 71.1054 88.2507 71.1054 88.1748C71.1054 88.2507 71.0295 88.4025 71.0295 88.4784C71.0295 88.3266 71.1054 88.2507 71.1813 88.0989C71.1054 88.1748 71.1054 88.2507 71.0295 88.3266C71.1054 88.2507 71.1054 88.1748 71.1813 88.0989C71.1054 88.1748 71.0295 88.2507 70.9536 88.3266C71.0295 88.2507 71.0295 88.2507 71.1054 88.1748C71.0295 88.2507 70.9536 88.2507 70.8018 88.3266C70.8777 88.3266 70.8777 88.2507 70.9536 88.2507C70.8777 88.2507 70.7259 88.3266 70.65 88.3266C70.7259 88.3266 70.7259 88.3266 70.8018 88.3266C70.7259 88.3266 70.5741 88.3266 70.4982 88.3266C70.5741 88.3266 70.5741 88.3266 70.65 88.3266C70.5741 88.3266 70.4223 88.2507 70.3464 88.2507C70.4223 88.2507 70.4982 88.3266 70.5741 88.3266C70.4982 88.2507 70.4223 88.2507 70.3464 88.1748C70.4223 88.2507 70.4982 88.2507 70.5741 88.3266C70.4982 88.2507 70.4223 88.1748 70.3464 88.0989C70.4223 88.1748 70.4982 88.2507 70.4982 88.3266C70.4223 88.2507 70.4223 88.1748 70.3464 88.023C70.4223 88.0989 70.4223 88.1748 70.4223 88.2507C70.4223 88.1748 70.3464 88.023 70.3464 87.9471C70.3464 88.023 70.3464 88.0989 70.3464 88.0989C70.3464 88.023 70.3464 87.8712 70.3464 87.7953C70.3464 87.8712 70.3464 87.8712 70.3464 87.9471C70.3464 87.8712 70.4223 87.7194 70.4223 87.6435C70.4223 87.6435 70.4223 87.7194 70.3464 87.7194C70.4223 87.6435 70.4223 87.5676 70.4982 87.4917L70.4223 87.5676C70.4982 87.4917 70.5741 87.4158 70.65 87.3399L70.5741 87.4158C70.65 87.3399 70.7259 87.3399 70.8777 87.264C70.8777 87.264 70.8018 87.264 70.8018 87.3399C70.8777 87.3399 71.0295 87.264 71.1054 87.264H71.0295C71.1054 87.264 71.2572 87.264 71.3331 87.264C71.2572 87.264 71.2572 87.264 71.2572 87.264C71.3331 87.264 71.4849 87.3399 71.5608 87.3399C71.5608 87.3399 71.4849 87.3399 71.4849 87.264C71.5608 87.3399 71.6367 87.3399 71.7126 87.4158L71.6367 87.3399C71.7126 87.4158 71.7885 87.4917 71.8644 87.5676L71.7885 87.4917C71.8644 87.5676 71.8644 87.6435 71.9403 87.7953C71.9403 87.7953 71.9403 87.7194 71.8644 87.7194C71.8644 87.7953 71.9403 87.9471 71.9403 88.023V87.9471C71.9403 88.023 71.9403 88.1748 71.9403 88.2507V88.1748C71.9403 88.2507 71.8644 88.4025 71.8644 88.4784C71.8644 88.4784 71.8644 88.4025 71.9403 88.4025C71.8644 88.4784 71.8644 88.5543 71.7885 88.6302L71.8644 88.5543C71.7885 88.6302 71.7126 88.7061 71.6367 88.782L71.7126 88.7061C71.6367 88.782 71.5608 88.782 71.409 88.8579C71.409 88.8579 71.4849 88.8579 71.4849 88.782C71.409 88.782 71.2572 88.8579 71.1813 88.8579H71.2572C71.1813 88.8579 71.0295 88.8579 70.9536 88.8579H71.0295C70.9536 88.8579 70.8018 88.782 70.7259 88.782C70.7259 88.782 70.7259 88.782 70.8018 88.782C70.7259 88.7061 70.65 88.7061 70.5741 88.6302C70.5741 88.6302 70.65 88.6302 70.65 88.7061C70.5741 88.6302 70.4982 88.5543 70.4223 88.4784C70.4223 88.4784 70.4223 88.5543 70.4982 88.5543C70.4223 88.4784 70.4223 88.4025 70.3464 88.2507C70.3464 88.2507 70.3464 88.2507 70.3464 88.3266C70.3464 88.0989 70.2705 87.9471 70.2705 87.7194V87.7953C70.2705 87.7194 70.3464 87.5676 70.3464 87.4917C70.4223 87.4158 70.4223 87.3399 70.4982 87.264C70.5741 87.1881 70.65 87.1122 70.7259 87.0363C70.8018 86.9604 70.8777 86.9604 71.0295 86.8845C71.1054 86.8845 71.2572 86.8086 71.3331 86.8086C71.409 86.8086 71.5608 86.8086 71.6367 86.8086C71.6367 86.8086 71.6367 86.8086 71.5608 86.8086C71.6367 86.8086 71.7885 86.8845 71.8644 86.8845H71.7885C71.8644 86.9604 71.9403 86.9604 72.0162 87.0363C71.9403 87.0363 71.9403 86.9604 71.9403 86.9604C72.0162 87.0363 72.0921 87.1122 72.168 87.1881C72.168 87.1881 72.0921 87.1122 72.0921 87.0363C72.168 87.1122 72.168 87.1881 72.2439 87.3399C72.2439 87.3399 72.2439 87.264 72.168 87.264C72.168 87.3399 72.2439 87.4917 72.2439 87.5676C72.2439 87.5676 72.2439 87.5676 72.2439 87.4917C72.2439 87.5676 72.2439 87.7194 72.2439 87.7953C72.2439 87.8712 72.168 88.023 72.168 88.0989C72.0921 88.1748 72.0921 88.2507 72.0162 88.3266C71.9403 88.4025 71.8644 88.4784 71.7885 88.5543C71.7126 88.6302 71.6367 88.6302 71.4849 88.7061C71.0295 88.5543 70.5741 88.4784 70.1187 88.3266L70.1946 88.4025C70.1187 88.3266 70.1187 88.2507 70.0428 88.0989C70.0428 88.0989 70.0428 88.1748 70.1187 88.1748C70.1187 88.0989 70.0428 87.9471 70.0428 87.8712C70.0428 87.9471 70.0428 87.9471 70.0428 88.023C70.0428 87.9471 70.0428 87.7953 70.0428 87.7194C70.0428 87.7953 70.0428 87.7953 70.0428 87.8712C70.0428 87.7953 70.1187 87.6435 70.1187 87.5676C70.1187 87.6435 70.1187 87.6435 70.0428 87.6435C70.1187 87.5676 70.1187 87.4917 70.1946 87.4158C70.1946 87.4158 70.1946 87.4917 70.1187 87.4917C70.1946 87.4158 70.2705 87.3399 70.3464 87.264C70.3464 87.264 70.3464 87.264 70.2705 87.3399C70.3464 87.264 70.4223 87.264 70.5741 87.1881C70.5741 87.1881 70.5741 87.1881 70.4982 87.1881C70.5741 87.1881 70.7259 87.1122 70.8018 87.1122C70.8018 87.1122 70.8018 87.1122 70.7259 87.1122C70.8018 87.1122 70.9536 87.1122 71.0295 87.1122H70.9536C71.0295 87.1122 71.1813 87.1881 71.2572 87.1881C71.2572 87.1881 71.2572 87.1881 71.1813 87.1881C71.2572 87.264 71.3331 87.264 71.409 87.3399C71.409 87.3399 71.3331 87.3399 71.3331 87.264C71.409 87.3399 71.4849 87.4158 71.5608 87.4917L71.4849 87.4158C71.5608 87.4917 71.5608 87.5676 71.6367 87.7194C71.6367 87.6435 71.5608 87.6435 71.5608 87.5676C71.5608 87.6435 71.6367 87.7953 71.6367 87.8712C71.6367 87.7953 71.6367 87.7953 71.6367 87.7194C71.6367 87.7953 71.6367 87.9471 71.6367 88.023C71.6367 87.9471 71.6367 87.9471 71.6367 87.8712C71.6367 87.9471 71.5608 88.0989 71.5608 88.1748V88.0989C71.4849 88.1748 71.4849 88.2507 71.409 88.3266C71.409 88.3266 71.409 88.3266 71.409 88.2507C71.3331 88.3266 71.2572 88.4025 71.1813 88.4784C71.1813 88.4784 71.1813 88.4784 71.2572 88.4784C71.1813 88.5543 71.1054 88.5543 70.9536 88.6302C70.9536 88.6302 70.9536 88.6302 71.0295 88.6302C70.9536 88.6302 70.8018 88.7061 70.7259 88.7061C70.8777 88.7061 71.0295 88.6302 71.1813 88.5543C71.3331 88.4784 71.409 88.4025 71.5608 88.2507C71.6367 88.0989 71.7126 88.023 71.7126 87.8712C71.7885 87.7194 71.7885 87.5676 71.7885 87.4158C71.7126 87.1122 71.5608 86.8086 71.3331 86.6568C71.2572 86.5809 71.1813 86.5809 71.1054 86.505C70.7259 86.6568 70.4982 86.5809 70.3464 86.6568Z" fill="#362D2A"/>
<path d="M93.7234 89.5413C93.9511 89.3895 93.6475 89.5413 93.7993 89.4654C93.8752 89.3895 94.027 89.3136 94.1029 89.3136C94.4065 89.1618 94.6342 89.0859 94.9378 88.9341C95.4691 88.7064 96.0004 88.4028 96.5317 88.0992C97.6702 87.2643 98.8087 86.2776 99.5677 85.0632C101.313 82.2549 100.706 78.9913 99.9472 75.9553C98.1256 69.1244 96.0763 62.3694 93.9511 55.6143C91.826 48.7834 89.4731 41.9525 86.8925 35.2734C84.3119 28.5942 81.5037 22.0669 78.3918 15.6155C77.5569 14.0216 76.7979 12.4277 75.963 10.8338C75.28 9.46766 74.521 8.17737 73.6102 6.88709C72.0922 4.68601 70.0429 2.56083 67.5382 1.49824C67.0069 1.27055 66.3998 1.11875 65.7926 1.04285C64.2746 0.815153 63.971 3.16803 65.489 3.31982C66.0962 3.39572 66.3239 3.47162 66.8551 3.77522C67.3864 4.00292 67.69 4.23062 68.2213 4.61011C69.2839 5.3691 70.1188 6.20399 70.8778 7.19068C72.7753 9.54355 73.9897 12.1241 75.4318 14.8565C78.5436 21.0043 81.3519 27.3799 83.8566 33.8313C86.4371 40.2827 88.7141 46.8859 90.8393 53.5651C92.9645 60.1683 94.9378 66.8474 96.8353 73.4506C97.2907 74.9686 97.7461 76.4107 98.0497 77.9287C98.3533 79.2949 98.581 80.6611 98.3533 82.0272C98.1256 83.2416 97.4425 84.3042 96.6076 85.0632C96.1522 85.5186 95.6209 85.8981 95.0896 86.2776C95.0137 86.3535 94.8619 86.4294 95.0137 86.2776C94.8619 86.3535 94.786 86.4294 94.6342 86.5053C94.3306 86.6571 94.1029 86.733 93.7993 86.8848C93.2681 87.1125 92.7368 87.3402 92.2814 87.7197C91.7501 88.0992 91.7501 88.8582 92.0537 89.3136C92.5091 89.8448 93.1921 89.8448 93.7234 89.5413Z" fill="#362D2A"/>
<path d="M73.3344 17.7874L78.2406 16.666M76.138 23.5347L79.7826 22.2731" stroke="#362D2A" stroke-width="2"/>
<path d="M77.9603 28.0203L82.1657 27.0391" stroke="#362D2A" stroke-width="2"/>
<path d="M80.6236 32.3657H85.2495" stroke="#362D2A" stroke-width="2"/>
<path d="M75.1567 20.4505L78.3807 19.4692" stroke="#362D2A" stroke-width="2"/>
<path d="M93.2396 66.1482L96.0432 65.3071" stroke="#362D2A" stroke-width="2"/>
<path d="M93.9404 70.0732H95.9029M94.6414 73.9982L97.5851 73.1571M95.9029 77.783H99.2672M95.9029 81.708L98.4262 82.6892" stroke="#362D2A" stroke-width="2"/>
<path d="M47.3491 100.243C48.943 100.85 50.461 101.534 52.0549 102.141C52.7379 102.444 53.4969 102.748 54.2559 102.976C55.0908 103.203 55.9257 103.203 56.7606 102.976C60.0243 102.217 63.2879 101.306 66.5516 100.319C72.8512 98.3457 79.075 95.9929 85.1469 93.4123C88.5623 91.9702 91.9019 90.3763 95.2415 88.7824C95.7728 88.5547 96.1522 87.8717 95.8487 87.2645C95.621 86.7332 94.9379 86.3537 94.3307 86.6573C88.4105 89.5414 82.4145 92.1979 76.3426 94.5508C73.3066 95.6893 70.2706 96.7519 67.1588 97.7385C65.5649 98.2698 63.971 98.7252 62.3771 99.1806C61.6181 99.4083 60.8592 99.636 60.1002 99.7878C60.3279 99.7119 60.0243 99.7878 59.9484 99.7878C59.8725 99.7878 59.7207 99.8637 59.6448 99.8637C59.493 99.9396 59.2653 99.9396 59.1135 100.016C58.6581 100.091 58.2786 100.243 57.8232 100.319C56.9883 100.547 56.1534 100.775 55.3185 100.85C55.0149 100.85 55.5462 100.926 55.2426 100.85C55.0908 100.85 55.0149 100.85 54.8631 100.775C54.6354 100.775 54.8631 100.775 54.8631 100.775C54.7113 100.775 54.6354 100.699 54.4836 100.699C54.1041 100.547 53.6487 100.395 53.2692 100.243C51.5236 99.5601 49.7779 98.877 48.0322 98.118C47.5009 97.8903 46.7419 98.118 46.5142 98.7252C46.5142 99.2565 46.7419 99.9396 47.3491 100.243Z" fill="#362D2A"/>
<path d="M33.9908 28.8217C23.0613 31.4022 12.5113 36.3357 4.84552 44.4569C3.55523 45.8231 2.64444 48.1 2.26494 49.9216C1.88544 51.5914 2.18904 53.413 2.87214 55.0069C4.23832 58.0428 7.04659 60.3198 10.2343 61.4583C13.3462 62.5968 16.8376 62.7486 20.1012 62.2932C24.9588 61.686 29.5127 59.8644 33.839 57.6633C36.9509 58.4982 39.9868 59.409 43.0987 60.2439C42.871 57.8151 42.4156 55.3864 41.5807 53.0335C43.2505 51.8191 44.8444 50.377 46.0588 48.7072C48.5634 45.3677 49.2465 40.9655 48.108 36.9429C46.9695 32.313 41.1253 27.0001 33.9908 28.8217Z" fill="white"/>
<path d="M33.839 27.6076C28.5261 28.8978 23.3649 30.6435 18.5074 33.0723C13.6498 35.5011 9.17177 38.537 5.30091 42.332C4.76962 42.8633 4.23832 43.3946 3.78293 43.9259C3.32753 44.4572 2.94804 44.9885 2.64444 45.5957C1.96135 46.7341 1.58186 48.0244 1.20236 49.3147C0.519269 51.9712 1.20236 54.7036 2.64444 56.9805C5.45271 61.3827 10.8416 63.432 15.8509 63.5838C21.5433 63.7356 27.1599 61.9899 32.321 59.5611C32.9282 59.2575 33.6113 58.9539 34.2185 58.6503C33.9149 58.6503 33.6113 58.6503 33.3077 58.6503C36.4196 59.4852 39.4555 60.396 42.5674 61.2309C42.9469 61.3827 43.4023 61.3827 43.7059 61.0791C44.0095 60.8514 44.1613 60.396 44.1613 60.0165C43.9336 57.4359 43.4023 54.9312 42.5674 52.5025C42.4156 52.9579 42.3397 53.4133 42.1879 53.8687C44.7685 51.9712 47.1213 49.6183 48.4116 46.6582C49.5501 44.0777 49.9296 41.1935 49.5501 38.3852C49.3983 37.2468 49.0947 36.1083 48.6393 35.0457C48.2598 34.1349 47.6526 33.2241 47.0454 32.3892C45.6793 30.6435 43.8577 29.2014 41.8084 28.2907C39.4555 27.2281 36.5714 27.0004 33.839 27.6076C33.2318 27.7594 32.7005 28.2148 32.8523 28.8979C32.9282 29.4291 33.5354 30.0363 34.1426 29.8845C34.7498 29.7327 35.357 29.6568 35.9642 29.5809C36.2678 29.5809 36.4955 29.505 36.7991 29.505C36.875 29.505 36.9509 29.505 37.0268 29.505C36.7232 29.5809 36.875 29.505 36.9509 29.505C37.1027 29.505 37.2544 29.505 37.4062 29.505C37.9375 29.505 38.4688 29.5809 39.0001 29.7327C39.1519 29.7327 39.3037 29.8086 39.3796 29.8086C39.4555 29.8086 39.6832 29.9604 39.3796 29.8086C39.4555 29.8086 39.4555 29.8086 39.5314 29.8845C39.835 29.9604 40.0627 30.0363 40.3663 30.1881C40.8217 30.3399 41.2771 30.5676 41.7325 30.7953C41.8084 30.7953 41.8843 30.8712 41.8843 30.8712C41.8843 30.8712 42.112 31.023 41.9602 30.8712C41.8084 30.7953 41.9602 30.8712 42.0361 30.8712C42.112 30.8712 42.112 30.9471 42.1879 30.9471C42.4156 31.0989 42.6433 31.2507 42.871 31.4025C43.2505 31.7061 43.7059 32.0097 44.0854 32.3133C44.1613 32.3892 44.2372 32.4651 44.3131 32.541C44.389 32.6169 44.5408 32.7687 44.3131 32.541C44.389 32.6169 44.389 32.6169 44.4649 32.6928C44.6167 32.8446 44.8444 33.0723 44.9962 33.2241C45.2998 33.6036 45.6034 33.9831 45.8311 34.3626C45.9829 34.5144 46.0588 34.7421 46.2106 34.8939C46.2106 34.9698 46.2864 34.9698 46.2864 35.0457C46.0587 34.7421 46.2106 34.8939 46.2106 34.9698C46.2864 35.0457 46.2864 35.1975 46.3623 35.2734C46.59 35.6529 46.7418 36.1083 46.8936 36.4878C46.9695 36.6396 47.0454 36.8673 47.0454 37.0191C47.0454 37.095 47.1213 37.3226 47.0454 36.9432C47.0454 37.0191 47.0454 37.0191 47.1213 37.095C47.1972 37.2468 47.1972 37.4744 47.2731 37.7021C47.4249 38.3093 47.5008 38.9924 47.5008 39.5996C47.5008 39.9032 47.5008 40.2068 47.5008 40.5104C47.5008 40.5863 47.5008 40.814 47.5008 40.5104C47.5008 40.5863 47.5008 40.6622 47.5008 40.7381C47.5008 40.9658 47.5008 41.1176 47.5008 41.3453C47.4249 41.9525 47.349 42.6356 47.2731 43.2428C47.2731 43.3946 47.1972 43.5464 47.1972 43.6223C47.1972 43.6982 47.1213 43.7741 47.1213 43.85C47.0454 44.1536 47.1972 43.6223 47.1213 43.85C47.0454 44.1536 46.8936 44.4572 46.8177 44.7608C46.666 45.0644 46.59 45.4439 46.4383 45.7475C46.3624 45.8993 46.2864 46.127 46.2106 46.2787C46.2106 46.3546 46.1346 46.4305 46.1346 46.4305C46.1346 46.5064 45.9828 46.81 46.1346 46.5064C45.9828 46.81 45.7551 47.1136 45.5275 47.4172C45.2998 47.7208 45.0721 48.1003 44.7685 48.4039C44.4649 48.7075 44.2372 49.087 43.9336 49.3906C43.8577 49.4665 43.7818 49.5424 43.7059 49.6183C43.9336 49.3906 43.63 49.6942 43.5541 49.7701C43.4023 49.9219 43.2505 50.0737 43.0987 50.1496C42.4156 50.7568 41.7325 51.2881 41.0494 51.8194C40.594 52.123 40.5181 52.7302 40.6699 53.1856C40.8976 53.7169 41.0494 54.3241 41.2012 54.8554C41.2012 54.9313 41.2771 55.0072 41.2771 55.0831C41.353 55.2349 41.2012 54.9313 41.2771 55.0831C41.2771 55.2349 41.353 55.3867 41.353 55.4625C41.4289 55.7661 41.5048 56.0697 41.5807 56.3733C41.8084 57.5877 42.0361 58.7262 42.112 59.9406C42.6433 59.5611 43.1746 59.1057 43.7059 58.7262C40.594 57.8913 37.5581 56.9805 34.4462 56.1456C33.9908 55.9938 33.6872 56.0697 33.3077 56.2974C33.1559 56.3733 32.9282 56.4492 32.7764 56.5251C32.3969 56.6769 32.0933 56.8287 31.7138 57.0564C31.0307 57.36 30.2717 57.7395 29.5886 57.9672C28.1466 58.5744 26.7045 59.1057 25.1865 59.5611C24.807 59.637 24.5034 59.7888 24.1239 59.8647C24.048 59.8647 23.8203 59.9406 24.048 59.8647C23.9721 59.8647 23.8203 59.9406 23.7444 59.9406C23.5167 60.0165 23.3649 60.0165 23.1372 60.0924C22.3782 60.2442 21.6192 60.396 20.8602 60.5478C19.494 60.7755 18.052 60.9273 16.6858 60.9273C16.4581 60.9273 16.6858 60.9273 16.6858 60.9273C16.6099 60.9273 16.534 60.9273 16.3822 60.9273C16.2304 60.9273 16.0786 60.9273 15.9268 60.9273C15.5473 60.9273 15.1678 60.8514 14.7883 60.8514C14.1052 60.7755 13.4221 60.6996 12.739 60.5478C12.4354 60.4719 12.1318 60.396 11.8282 60.3201C12.1318 60.396 11.8282 60.3201 11.7523 60.3201C11.6764 60.3201 11.6005 60.2442 11.5246 60.2442C11.297 60.1683 11.1452 60.0924 10.9175 60.0924C10.3103 59.8647 9.70306 59.637 9.09587 59.3334C8.94407 59.2575 8.86817 59.1816 8.71637 59.1057C8.64047 59.1057 8.56458 59.0298 8.48868 59.0298C8.33688 58.9539 8.71638 59.1816 8.48868 59.0298C8.18509 58.878 7.88149 58.6503 7.65379 58.4985C7.12249 58.119 6.5912 57.7395 6.1358 57.2841C6.05991 57.2082 6.05991 57.2082 5.98401 57.1323C6.21171 57.36 5.98401 57.1323 5.98401 57.0564C5.90811 56.9805 5.7563 56.8287 5.68041 56.7528C5.45271 56.5251 5.22502 56.2215 5.07322 55.9938C4.92142 55.7661 4.69372 55.4625 4.54192 55.2348C4.46602 55.159 4.46602 55.083 4.39012 55.0072C4.39012 55.0072 4.54192 55.2349 4.39012 55.0831C4.31422 54.9313 4.23832 54.7795 4.16242 54.6277C4.01062 54.3241 3.85883 54.0205 3.78293 53.7169C3.70703 53.5651 3.70703 53.4133 3.63113 53.2615C3.63113 53.1856 3.55524 53.1097 3.55524 52.9579C3.47934 52.7302 3.63114 53.1097 3.55524 52.882C3.47934 52.5784 3.40343 52.1989 3.40343 51.8953C3.40343 51.7435 3.40344 51.5917 3.32754 51.4399C3.32754 51.364 3.32754 51.2881 3.32754 51.1363C3.32754 50.8327 3.32754 51.364 3.32754 51.0604C3.32754 50.7568 3.40344 50.3773 3.47934 50.0737C3.47934 49.9219 3.55524 49.7701 3.55524 49.6183C3.55524 49.5424 3.63114 49.3147 3.55524 49.5424C3.55524 49.4665 3.63113 49.3906 3.63113 49.3147C3.85883 48.6316 4.08653 48.0244 4.31423 47.4172C4.46603 47.1136 4.61782 46.81 4.76962 46.5064C4.76962 46.4305 4.84552 46.4306 4.84552 46.3547C4.99732 46.0511 4.69372 46.5823 4.84552 46.2787C4.92142 46.127 5.07321 45.9752 5.14911 45.8234C5.52861 45.2921 5.984 44.7608 6.4394 44.3054C6.4394 44.3054 6.6671 44.0777 6.5153 44.2295C6.5912 44.1536 6.5912 44.1536 6.6671 44.0777C6.81889 43.9259 6.9707 43.7741 7.1225 43.6982C7.35019 43.4705 7.65379 43.1669 7.88149 42.9392C8.41278 42.4838 8.94407 41.9525 9.47536 41.4971C10.538 40.5863 11.7523 39.6755 12.8908 38.9165C13.498 38.537 14.1052 38.0816 14.7124 37.7021C15.016 37.5503 15.2437 37.3227 15.5473 37.1709C15.6991 37.095 15.8509 36.9432 16.0786 36.8673C16.1545 36.8673 16.1545 36.7914 16.2304 36.7914C16.3063 36.7914 16.6099 36.5637 16.3822 36.7155C21.3156 33.8313 26.7804 31.7061 32.321 30.264C32.3969 30.264 32.7005 30.1881 32.3969 30.264C32.4728 30.264 32.6246 30.1881 32.7005 30.1881C32.8523 30.1122 33.0041 30.1122 33.1559 30.0363C33.5354 29.9604 33.839 29.8845 34.2185 29.8086C34.8257 29.6568 35.357 29.2014 35.2052 28.5184C35.0534 28.063 34.5221 27.4558 33.839 27.6076Z" fill="#362D2A"/>
<path d="M67.5382 43.8498C77.1015 38.0056 88.031 33.907 99.2641 34.2865C101.162 34.3624 103.363 35.3491 104.957 36.3358C106.399 37.2466 107.461 38.7646 108.068 40.3585C109.207 43.4703 108.827 47.0376 107.461 50.0736C106.019 53.1095 103.742 55.6142 101.086 57.6635C97.2148 60.6235 92.7367 62.5969 88.1069 64.1149C86.513 66.9232 84.9191 69.7314 83.4012 72.4638C81.8073 70.5663 80.4411 68.5171 79.3785 66.316C77.3292 66.6196 75.204 66.6955 73.1548 66.3919C69.0562 65.7847 65.489 63.1282 63.3638 59.561C60.8591 55.4624 61.1627 47.7207 67.5382 43.8498Z" fill="white"/>
<path d="M68.2213 44.7609C68.5249 44.6091 68.8285 44.3814 69.1321 44.2296C69.2839 44.1537 69.4357 44.0778 69.5875 44.0019C69.6634 43.926 69.7393 43.926 69.8152 43.8501C69.5875 44.0019 69.8152 43.8501 69.8911 43.7742C70.4983 43.3947 71.1814 43.0911 71.7886 42.7116C73.0789 42.0285 74.3691 41.3454 75.6594 40.7382C78.3159 39.5238 80.9724 38.4612 83.7806 37.6263C84.0842 37.5504 84.4637 37.3986 84.7673 37.3227C84.9191 37.2468 85.1468 37.2468 85.2986 37.1709C85.3745 37.1709 85.4504 37.1709 85.4504 37.095C85.5263 37.095 85.9058 36.9432 85.6022 37.0191C86.2853 36.7914 86.9684 36.6396 87.7274 36.4879C89.0936 36.1843 90.5357 35.9566 91.9778 35.7289C93.4198 35.5771 94.8619 35.4253 96.304 35.3494C96.6076 35.3494 96.9871 35.3494 97.2907 35.3494C97.4425 35.3494 97.6702 35.3494 97.822 35.3494C97.8979 35.3494 97.9738 35.3494 98.0497 35.3494C97.7461 35.3494 98.2015 35.3494 98.2774 35.3494C98.9605 35.3494 99.6436 35.3494 100.251 35.5012C100.403 35.5012 100.554 35.5771 100.706 35.5771C101.01 35.653 100.554 35.5012 100.706 35.5771C100.782 35.5771 100.858 35.653 100.934 35.653C101.313 35.7289 101.617 35.8807 101.921 36.0325C102.528 36.2601 103.135 36.5637 103.742 36.9432C103.818 36.9432 103.894 37.0191 103.97 37.0191C103.742 36.8673 103.97 37.0191 104.046 37.0191C104.198 37.095 104.273 37.1709 104.425 37.2468C104.729 37.4745 104.957 37.7022 105.26 37.9299C105.412 38.0817 105.108 37.7022 105.26 37.9299C105.336 38.0058 105.412 38.0817 105.412 38.1576C105.488 38.3094 105.64 38.3853 105.715 38.5371C105.943 38.8407 106.095 39.0684 106.323 39.372C106.474 39.5997 106.171 39.1443 106.323 39.4479C106.399 39.5238 106.399 39.5997 106.474 39.6756C106.55 39.8274 106.626 39.9792 106.702 40.131C106.854 40.4346 106.93 40.7382 107.082 41.0418C107.158 41.1936 107.158 41.3454 107.233 41.5731C107.233 41.649 107.309 41.8008 107.233 41.4972C107.233 41.5731 107.309 41.649 107.309 41.7249C107.385 42.0285 107.461 42.3321 107.461 42.7116C107.537 43.0152 107.537 43.3188 107.537 43.6983C107.537 43.8501 107.537 44.0019 107.537 44.1537C107.537 44.2296 107.537 44.5332 107.537 44.2296C107.537 44.3055 107.537 44.3814 107.537 44.4573C107.537 45.1404 107.461 45.7475 107.309 46.4306C107.233 46.7342 107.158 47.0378 107.082 47.4173C107.006 47.645 107.082 47.4173 107.082 47.4173C107.082 47.4932 107.006 47.5691 107.006 47.645C106.93 47.7968 106.93 47.9486 106.854 48.1763C106.626 48.7835 106.399 49.3907 106.095 49.9979C106.019 50.1497 105.943 50.3015 105.867 50.3774C105.791 50.4533 105.791 50.5292 105.715 50.6051C105.715 50.6051 105.564 50.9087 105.715 50.681C105.564 50.9846 105.336 51.2882 105.184 51.5159C104.805 52.1231 104.425 52.6544 103.97 53.1857C103.742 53.4134 103.514 53.717 103.287 53.9447C103.135 54.0965 103.059 54.1723 102.907 54.3241C102.831 54.4 102.831 54.4 102.755 54.4759C102.68 54.5518 102.68 54.5518 102.831 54.4C102.755 54.4759 102.755 54.4759 102.68 54.5518C102.224 55.0072 101.693 55.4626 101.162 55.918C100.023 56.9047 98.8087 57.7396 97.5184 58.4986C97.3666 58.5745 97.2148 58.6504 97.063 58.8022C96.9871 58.8781 96.9112 58.8781 96.7594 58.954C96.9871 58.8022 96.7594 58.954 96.7594 58.954C96.3799 59.1817 96.0004 59.3335 95.6209 59.5612C94.9378 59.9407 94.2547 60.2443 93.5716 60.6238C92.1295 61.3069 90.6875 61.8382 89.2454 62.3694C88.9418 62.5212 88.5623 62.5971 88.2587 62.7489C88.1069 62.8248 87.9551 62.9008 87.7274 62.9008C87.6515 62.9008 87.4997 62.9766 87.4238 62.9766C87.0443 63.1284 86.8925 63.3561 86.7407 63.7356C86.3612 64.4187 85.9817 65.1018 85.6022 65.7849C84.8432 67.1511 84.0083 68.5173 83.2493 69.9594C82.8699 70.6425 82.4904 71.3256 82.035 72.0845C82.7181 72.0086 83.3252 71.9327 84.0083 71.7809C83.2493 70.8702 82.4903 69.8835 81.8073 68.8968C81.6555 68.6691 81.5037 68.3655 81.3519 68.1378C81.276 67.986 81.2001 67.9101 81.1242 67.7583C81.0483 67.6824 81.0483 67.6824 81.1242 67.7583C81.0483 67.6824 81.0483 67.6065 80.9724 67.5306C80.6688 66.9993 80.3652 66.468 80.1375 65.9367C79.9098 65.4813 79.4544 65.1777 78.9231 65.2536C78.1641 65.4054 77.3292 65.4813 76.5702 65.4813C76.1907 65.4813 75.8112 65.4813 75.5076 65.4813C75.204 65.4813 75.7353 65.4813 75.4317 65.4813C75.3558 65.4813 75.2799 65.4813 75.204 65.4813C74.9763 65.4813 74.7486 65.4813 74.5968 65.4813C73.9137 65.4054 73.1548 65.3295 72.4717 65.2536C72.3199 65.2536 72.1681 65.1777 72.0163 65.1777C71.9404 65.1777 71.8645 65.1777 71.7886 65.1018C72.0163 65.1777 71.8645 65.1018 71.7886 65.1018C71.485 65.0259 71.1055 64.8741 70.8019 64.7982C70.1947 64.5705 69.6634 64.2669 69.0562 63.9633C68.8285 63.8115 69.2839 64.1151 69.0562 63.9633C68.9803 63.9633 68.9044 63.8874 68.9044 63.8874C68.7526 63.8115 68.6767 63.7356 68.5249 63.6597C68.2213 63.5079 67.9936 63.2802 67.69 63.0525C67.4623 62.9007 67.2346 62.673 67.0069 62.4454C66.8551 62.3695 66.7792 62.2177 66.6274 62.1418C66.5515 62.0659 66.4756 61.99 66.4756 61.99C66.3238 61.8382 66.6274 62.1418 66.3997 61.9141C65.9443 61.4587 65.4889 60.9274 65.1094 60.3961C64.9576 60.1684 64.73 59.8648 64.5782 59.6371C64.5023 59.4853 64.4264 59.3335 64.2746 59.1817C64.2746 59.1058 64.1987 59.1058 64.1987 59.0299C64.0469 58.8022 64.3505 59.2576 64.1987 59.0299C63.971 58.6504 63.8192 58.2709 63.6674 57.8914C63.5915 57.6637 63.5156 57.436 63.4397 57.2842C63.4397 57.2083 63.3638 57.1324 63.3638 56.9806C63.3638 56.9047 63.3638 56.9047 63.2879 56.8288C63.4397 57.2083 63.2879 56.9047 63.2879 56.8288C63.212 56.3734 63.0602 55.918 63.0602 55.4626C62.9843 55.0072 62.9843 54.5518 62.9843 54.0205C62.9843 53.9446 62.9843 53.8687 62.9843 53.8687C62.9843 54.2482 62.9843 54.0206 62.9843 53.9447C62.9843 53.8688 62.9843 53.7169 62.9843 53.641C62.9843 53.3375 62.9843 53.1098 63.0602 52.8062C63.1361 52.2749 63.212 51.8195 63.2879 51.3641C63.2879 51.2882 63.3638 51.1364 63.3638 51.0605C63.4397 50.8328 63.2879 51.2882 63.3638 51.0605C63.3638 50.9846 63.3638 50.9087 63.4397 50.8328C63.5156 50.6051 63.5915 50.3015 63.6674 50.0738C63.7433 49.7702 63.8951 49.5425 63.971 49.2389C64.1228 49.0112 64.2746 48.7076 64.3505 48.4799C64.1987 48.7835 64.2746 48.5558 64.3505 48.4799C64.4264 48.404 64.4264 48.3281 64.5023 48.2522C64.5782 48.1004 64.6541 48.0245 64.73 47.8727C64.8818 47.645 65.1094 47.3414 65.2612 47.1137C65.4889 46.886 65.6407 46.6583 65.8684 46.4306C66.0202 46.2029 65.6407 46.5824 65.8684 46.4306C65.9443 46.3547 66.0202 46.2788 66.0961 46.2029C66.172 46.127 66.3238 45.9752 66.3997 45.8993C67.0828 45.5198 67.6141 45.1403 68.2213 44.7609C68.7526 44.4573 68.8285 43.5465 68.449 43.167C67.9936 42.6357 67.3864 42.6357 66.8551 42.9393C64.73 44.2296 62.9843 46.2029 61.9217 48.4799C61.0109 50.5292 60.6314 52.8062 60.7832 55.0831C60.8591 56.1457 61.0868 57.1324 61.3904 58.1191C61.694 59.1817 62.2253 60.0925 62.8325 61.0033C64.3505 63.3561 66.6274 65.2536 69.1321 66.468C72.3199 67.9101 76.0389 67.986 79.4544 67.4547C79.0749 67.227 78.6195 66.9993 78.24 66.7716C79.3785 69.0486 80.7447 71.2496 82.4145 73.223C82.6422 73.5266 83.0216 73.6784 83.477 73.6784C83.9324 73.6025 84.1601 73.3748 84.3878 72.9953C85.9817 70.1871 87.5756 67.3788 89.0936 64.6464C88.8659 64.8741 88.6382 65.1018 88.4864 65.2536C93.8752 63.5079 99.2641 61.0033 103.514 57.2083C105.488 55.3867 107.233 53.2616 108.448 50.8328C109.586 48.5558 110.118 45.9752 109.966 43.4706C109.814 40.8141 108.751 38.0817 106.778 36.2602C105.867 35.4253 104.653 34.8181 103.514 34.2868C102.3 33.7555 101.01 33.3001 99.7194 33.2242C96.9871 33.0724 94.2547 33.2242 91.5983 33.6037C88.8659 33.9832 86.2094 34.5904 83.5529 35.3494C78.3159 36.8673 73.3825 39.2202 68.6767 41.9526C68.1454 42.2562 67.5382 42.6357 67.0069 42.9393C66.4756 43.2429 66.3997 44.1537 66.7792 44.5332C67.0069 45.1403 67.69 45.1403 68.2213 44.7609Z" fill="#362D2A"/>
<path d="M15.3196 51.8954C15.3955 51.8954 15.4714 51.8195 15.5473 51.8195C15.6991 51.7436 15.8509 51.6677 15.9268 51.5918C16.0786 51.5159 16.1545 51.3641 16.1545 51.2123C16.2304 51.0605 16.2304 50.9087 16.2304 50.7569C16.2304 50.6051 16.2304 50.4533 16.1545 50.3015C16.0786 50.2256 16.0786 50.1497 16.0027 49.9979C15.8509 49.8461 15.6991 49.6943 15.5473 49.6184C15.4714 49.6184 15.3196 49.5425 15.2437 49.5425C15.016 49.5425 14.8642 49.5425 14.6365 49.6184C14.5606 49.6184 14.4847 49.6943 14.4088 49.6943C14.257 49.7702 14.1052 49.8461 14.0293 49.922C13.8775 49.9979 13.8016 50.1497 13.8016 50.3015C13.7257 50.4533 13.7257 50.6051 13.7257 50.7569C13.7257 50.9087 13.7257 51.0605 13.8016 51.2123C13.8775 51.2882 13.8775 51.3641 13.9534 51.5159C14.1052 51.6677 14.257 51.8195 14.4088 51.8954C14.4847 51.8954 14.6365 51.9713 14.7124 51.9713C14.8642 52.0471 15.0919 51.9713 15.3196 51.8954Z" fill="#362D2A"/>
<path d="M25.4901 46.2028C25.4901 46.1269 25.4142 46.051 25.4142 45.9751C25.3383 45.8233 25.2624 45.6715 25.1865 45.5956C25.1106 45.4438 24.9588 45.3679 24.807 45.3679C24.6552 45.292 24.5034 45.292 24.3516 45.292C24.1998 45.292 24.048 45.292 23.8962 45.3679C23.8203 45.4438 23.7444 45.4438 23.5926 45.5197C23.4408 45.6715 23.289 45.8233 23.2131 45.9751C23.2131 46.051 23.1372 46.2028 23.1372 46.2787C23.1372 46.5064 23.1372 46.6582 23.2131 46.8859C23.2131 46.9618 23.2891 47.0377 23.2891 47.1136C23.365 47.2654 23.4408 47.4172 23.5167 47.4931C23.5926 47.6449 23.7444 47.7208 23.8962 47.7208C24.048 47.7967 24.1998 47.7967 24.3516 47.7967C24.5034 47.7967 24.6552 47.7967 24.807 47.7208C24.8829 47.6449 24.9588 47.6449 25.1106 47.569C25.2624 47.4172 25.4142 47.2654 25.4901 47.1136C25.4901 47.0377 25.566 46.8859 25.566 46.81C25.566 46.5823 25.566 46.3546 25.4901 46.2028Z" fill="#362D2A"/>
<path d="M34.522 43.1666C35.0533 42.9389 35.4328 42.2559 35.1292 41.6487C34.8256 41.0415 34.2184 40.7379 33.6112 41.0415C33.08 41.2692 32.7005 41.9523 33.0041 42.5594C33.2317 43.1666 33.9148 43.4702 34.522 43.1666Z" fill="#362D2A"/>
<path d="M77.6328 54.7036C78.24 56.0698 79.5303 57.0565 80.8965 57.5119C82.4144 57.9673 83.9324 57.9673 85.4504 57.7396C88.4105 57.2842 91.5223 56.1457 92.9644 53.2615C93.6475 51.8954 93.7993 50.2256 93.1921 48.7835C92.9644 48.2522 92.2813 47.8727 91.6741 48.1763C91.1428 48.404 90.7633 49.0871 91.0669 49.6943C91.1428 49.8461 91.1428 49.922 91.2187 50.0738C91.2946 50.3015 91.1428 49.8461 91.2187 50.0738C91.2187 50.1497 91.2187 50.2256 91.2946 50.3015C91.2946 50.4533 91.2946 50.5292 91.3705 50.681C91.3705 50.7569 91.3705 50.8328 91.3705 50.9087C91.3705 51.1364 91.3705 50.681 91.3705 50.9087C91.3705 51.1364 91.2946 51.3641 91.2946 51.6677C91.2946 51.7436 91.2187 51.8954 91.2946 51.6677C91.2946 51.7436 91.2946 51.7436 91.2187 51.8195C91.1428 51.9713 91.1428 52.1231 91.0669 52.2749C90.991 52.3508 90.991 52.5026 90.9151 52.5785C90.9151 52.6544 90.8392 52.7303 90.8392 52.7303C90.991 52.5026 90.9151 52.6544 90.8392 52.6544C90.6874 52.8821 90.5356 53.1098 90.3079 53.3375C90.232 53.4134 90.232 53.4133 90.1561 53.4892C90.0043 53.641 90.2321 53.4893 90.2321 53.4134C90.1562 53.4893 90.0043 53.641 89.9284 53.7169C89.7008 53.9446 89.3972 54.0964 89.1695 54.3241C88.8659 54.4759 89.3972 54.2482 89.0936 54.4C89.0177 54.4 88.9418 54.4759 88.9418 54.4759C88.79 54.5518 88.6382 54.6277 88.4864 54.7036C88.1828 54.8554 87.8792 54.9313 87.5756 55.0831C87.4238 55.159 87.272 55.159 87.1202 55.2349C87.0443 55.2349 86.9684 55.3108 86.8925 55.3108C87.1202 55.2349 86.8925 55.3108 86.8925 55.3108C86.5889 55.3867 86.2094 55.4626 85.9058 55.5385C85.2986 55.6903 84.6914 55.7662 84.0083 55.7662C83.8565 55.7662 83.7047 55.7662 83.5529 55.7662C83.2493 55.7662 83.7806 55.7662 83.477 55.7662C83.4011 55.7662 83.3252 55.7662 83.2493 55.7662C82.9457 55.7662 82.6421 55.6903 82.3385 55.6903C82.2626 55.6903 82.1867 55.6144 82.0349 55.6144C81.8072 55.5385 82.2626 55.6903 81.959 55.6144C81.8072 55.5385 81.6554 55.5385 81.5795 55.4626C81.4277 55.3867 81.276 55.3108 81.1242 55.2349C80.9724 55.159 81.1242 55.2349 81.1242 55.2349C81.0483 55.2349 80.9724 55.159 80.8965 55.0831C80.7447 55.0072 80.5929 54.8554 80.517 54.7795C80.4411 54.7795 80.4411 54.7036 80.3652 54.7036C80.2134 54.5518 80.517 54.8554 80.2893 54.6277C80.2134 54.4759 80.0616 54.4 79.9857 54.2482C79.9857 54.2482 79.9098 54.1723 79.9098 54.0964C79.9857 54.2482 79.9857 54.2482 79.9098 54.1723C79.9098 54.0964 79.8339 54.0964 79.8339 54.0205C79.6062 53.4892 78.9231 53.1098 78.3159 53.4134C77.7087 53.4134 77.3292 54.0964 77.6328 54.7036Z" fill="#362D2A"/>
<path d="M78.0123 48.5555C78.0882 48.5555 78.1641 48.4796 78.24 48.4796C78.3918 48.4037 78.5436 48.3278 78.6195 48.2519C78.7713 48.176 78.8472 48.0242 78.8472 47.8724C78.9231 47.7206 78.9231 47.5688 78.9231 47.417C78.9231 47.2652 78.9231 47.1134 78.8472 46.9616C78.7713 46.8857 78.7713 46.8098 78.6954 46.658C78.5436 46.5062 78.3918 46.3544 78.24 46.2785C78.1641 46.2785 78.0123 46.2026 77.9364 46.2026C77.7087 46.2026 77.5569 46.2026 77.3292 46.2785C77.2533 46.2785 77.1774 46.3544 77.1015 46.3544C76.9497 46.4303 76.7979 46.5062 76.722 46.5821C76.5702 46.658 76.4943 46.8098 76.4943 46.9616C76.4184 47.1134 76.4184 47.2652 76.4184 47.417C76.4184 47.5688 76.4184 47.7206 76.4943 47.8724C76.5702 47.9483 76.5702 48.0242 76.6461 48.176C76.7979 48.3278 76.9497 48.4796 77.1015 48.5555C77.1774 48.5555 77.3292 48.6314 77.4051 48.6314C77.6328 48.6314 77.7846 48.6314 78.0123 48.5555Z" fill="#362D2A"/>
<path d="M88.0309 44.8366C88.5622 44.6089 88.9417 43.9258 88.6381 43.3186C88.3345 42.7114 87.7273 42.4078 87.1201 42.7114C86.5888 42.9391 86.2094 43.6222 86.5129 44.2294C86.7406 44.8366 87.4237 45.1402 88.0309 44.8366Z" fill="#362D2A"/>
<path d="M18.5073 73.9056C20.7843 74.1333 23.0613 73.9815 25.3382 73.602C25.9454 73.5261 26.4767 72.9189 26.3249 72.3117C26.249 71.7045 25.6418 71.1732 25.0346 71.325C23.9721 71.5527 22.9095 71.6286 21.8469 71.7045C21.5433 71.7045 21.3156 71.7045 21.012 71.7045C20.8602 71.7045 20.7084 71.7045 20.6325 71.7045C20.4807 71.7045 20.4807 71.7045 20.6325 71.7045C20.5566 71.7045 20.4807 71.7045 20.4048 71.7045C19.8735 71.7045 19.3422 71.6286 18.8109 71.6286C18.2037 71.5527 17.5965 72.0081 17.5206 72.6153C17.4447 73.2225 17.8242 73.9056 18.5073 73.9056Z" fill="#362D2A"/>
<path d="M23.0614 82.8618C24.6552 81.4198 26.0973 79.8259 27.1599 77.9284C27.3117 77.6248 27.4635 77.3971 27.3876 77.0935C27.3876 76.7899 27.1599 76.4863 26.9322 76.3345C26.4768 76.0309 25.6419 76.0309 25.3383 76.5622C24.807 77.3971 24.2757 78.232 23.5926 78.991C23.289 79.3705 22.9095 79.75 22.606 80.1295C22.5301 80.2054 22.5301 80.2054 22.606 80.1295C22.5301 80.2054 22.5301 80.2054 22.4542 80.2813C22.3783 80.3572 22.3024 80.4331 22.1506 80.5849C21.9988 80.7367 21.7711 80.9644 21.6193 81.1162C21.1639 81.4957 21.0121 82.2547 21.3916 82.71C21.847 83.0895 22.606 83.2413 23.0614 82.8618Z" fill="#362D2A"/>
<path d="M28.3743 86.8845C29.6646 84.987 30.5754 82.8618 31.2585 80.6607C31.3344 80.3571 31.4103 80.0536 31.2585 79.75C31.1826 79.5223 30.879 79.2187 30.6513 79.1428C30.12 78.9151 29.2851 79.1428 29.1333 79.75C28.8297 80.8125 28.4502 81.7992 27.9948 82.7859C27.7671 83.2413 27.5394 83.7726 27.3117 84.228C27.2358 84.3798 27.1599 84.4557 27.084 84.6075C27.1599 84.4557 27.1599 84.4557 27.084 84.6075C27.084 84.6834 27.0081 84.7593 27.0081 84.7593C26.8563 84.987 26.7045 85.2147 26.5527 85.4424C26.2491 85.9737 26.2491 86.6568 26.7804 87.0363C27.2358 87.4158 28.0707 87.4158 28.3743 86.8845Z" fill="#362D2A"/>
<path d="M84.9949 14.3248C86.2093 12.3514 87.5755 10.6057 89.0935 8.93592C89.473 8.48053 89.3212 7.64564 88.8658 7.34204C88.3345 6.96255 87.6514 7.11434 87.2719 7.56974C85.7539 9.23952 84.3118 11.0611 83.1734 12.9586C82.8698 13.4899 82.8698 14.173 83.4011 14.5525C83.8565 14.8561 84.6154 14.8561 84.9949 14.3248Z" fill="#362D2A"/>
<path d="M86.5889 18.727C88.6382 18.2716 90.6875 17.8162 92.6608 17.3608C93.268 17.209 93.7993 16.7536 93.6475 16.0705C93.5716 15.4633 92.9644 14.932 92.3573 15.0838C90.308 15.5392 88.2587 15.9946 86.2853 16.45C85.6781 16.6018 85.1468 17.0572 85.2986 17.7403C85.3745 18.2716 85.9058 18.8788 86.5889 18.727Z" fill="#362D2A"/>
<path d="M87.6514 23.5846C90.4597 23.8882 93.2679 24.1918 96.0003 24.4954C96.6075 24.5713 97.2147 24.1159 97.2906 23.5087C97.3665 22.9015 96.9111 22.2943 96.3039 22.2184C93.4956 21.9148 90.6874 21.6112 87.955 21.3076C87.3478 21.2317 86.7406 21.6871 86.6647 22.2943C86.5888 22.9015 86.9683 23.5087 87.6514 23.5846Z" fill="#362D2A"/>
</svg>
