<svg width="57" height="57" viewBox="0 0 57 57" fill="none" xmlns="http://www.w3.org/2000/svg">
<rect x="52.6472" y="2.89258" width="3.53662" height="53.7982" fill="#161616"/>
<rect x="56.1838" y="53.8203" width="2.87084" height="52.4992" transform="rotate(90 56.1838 53.8203)" fill="#161616"/>
<path fill-rule="evenodd" clip-rule="evenodd" d="M53.8714 54.2995H0.285767V0.713867H53.8714V54.2995ZM36.5811 42.8054C37.0611 43.147 37.6774 43.2318 38.2289 43.022C38.7781 42.8143 39.1845 42.3432 39.3073 41.7716C40.6 35.6941 43.7393 20.3061 44.9159 14.7779C45.003 14.3603 44.8556 13.9272 44.5296 13.6481C44.2014 13.3712 43.746 13.2909 43.3418 13.4405C37.1013 15.7491 17.8797 22.9608 10.0227 25.8701C9.52482 26.0532 9.20108 26.5332 9.21671 27.0601C9.23457 27.5848 9.58957 28.0425 10.0986 28.1966C13.6219 29.2482 18.2481 30.7151 18.2481 30.7151C18.2481 30.7151 20.4072 37.2436 21.5347 40.5615C21.6754 40.979 22.0036 41.3072 22.4323 41.4189C22.8632 41.5305 23.3187 41.4144 23.6402 41.1107C25.4509 39.4027 28.2485 36.7614 28.2485 36.7614C28.2485 36.7614 33.5647 40.6597 36.5811 42.8054ZM20.1928 29.8912L22.6913 38.1345L23.2472 32.9144C23.2472 32.9144 32.9016 24.2067 38.4075 19.2411C38.5682 19.096 38.5906 18.8526 38.4566 18.6807C38.3226 18.5088 38.0793 18.4686 37.8962 18.5847C31.5173 22.6594 20.1928 29.8912 20.1928 29.8912Z" fill="url(#paint0_linear_33_1003)"/>
<defs>
<linearGradient id="paint0_linear_33_1003" x1="84.9649" y1="0.713869" x2="-20.0358" y2="54.2995" gradientUnits="userSpaceOnUse">
<stop stop-color="#EEB5EA"/>
<stop offset="1" stop-color="#A0009E"/>
</linearGradient>
</defs>
</svg>
