<svg width="59" height="18" viewBox="0 0 59 18" fill="none" xmlns="http://www.w3.org/2000/svg">
<path d="M23.5031 0.302584H28.2241L25.2712 17.63H20.5502L23.5031 0.302584ZM37.7464 7.25836C36.0949 6.45633 35.0851 5.92043 35.096 5.11111C35.096 4.38928 35.9527 3.62006 37.8011 3.62006C39.3468 3.59455 40.4623 3.93359 41.3373 4.28356L41.7602 4.48407L42.4018 0.729116C41.4649 0.37914 39.9993 0 38.1693 0C33.5029 0 30.2146 2.3514 30.1891 5.71627C30.1636 8.20621 32.5368 9.59518 34.3268 10.4227C36.1642 11.2721 36.7839 11.8117 36.773 12.5736C36.7621 13.7329 35.3038 14.2652 33.9477 14.2652C32.0593 14.2652 31.0531 14.0027 29.5037 13.3574L28.8949 13.0804L28.2314 16.9593C29.336 17.4441 31.3739 17.8634 33.492 17.8852C38.4573 17.8852 41.68 15.563 41.7164 11.9648C41.7274 9.99255 40.4696 8.49421 37.7464 7.25836ZM58.3293 17.6337H53.9474L53.3713 15.038L47.3233 15.0307L46.3281 17.6337H41.3701L48.3842 1.75717C48.88 0.630687 49.7258 0.320812 50.8559 0.320812H54.5051L58.3293 17.6337ZM52.6021 11.4872L51.5085 6.48549L51.1876 4.99081L50.5606 6.6459L48.6795 11.4872H52.6021ZM16.5874 0.313522L11.9648 12.1289L11.4727 9.72642L9.81756 1.76446C9.52956 0.670788 8.70201 0.342686 7.67395 0.302584H0.0583286L0 0.663497C1.85196 1.1119 3.50705 1.75717 4.96164 2.56285L9.16135 17.6118L14.1594 17.6045L21.5928 0.313522H16.5874Z" fill="black"/>
</svg>
