<svg width="18" height="18" viewBox="0 0 18 18" fill="none" xmlns="http://www.w3.org/2000/svg">
<path d="M15.7729 13.9267V2.24353H16.2277V15.8075H2.41982L2.41983 15.4267H14.2729H15.7729V13.9267Z" stroke="#040404" stroke-width="3"/>
<rect x="1.6579" y="1.5" width="13.9486" height="13.4374" stroke="#B025AE" stroke-width="3"/>
<path d="M1.99204 10.4124L5.92554 13.9185C6.18633 14.1503 6.51231 14.2644 6.83467 14.2644C7.20412 14.2644 7.57356 14.1159 7.8434 13.8225L14.5025 6.54224C14.7397 6.28146 14.8592 5.95185 14.8592 5.62587C14.8592 4.87974 14.2544 4.26581 13.4956 4.26581C13.1243 4.26581 12.7567 4.41431 12.485 4.70769L6.73687 10.9937L3.81029 8.38585C3.5495 8.15404 3.22533 8.03813 2.90116 8.03813C2.14416 8.03813 1.53748 8.65025 1.53748 9.40001C1.53748 9.77308 1.6896 10.1443 1.99204 10.4124Z" fill="#040404"/>
</svg>
