<svg width="58" height="57" viewBox="0 0 58 57" fill="none" xmlns="http://www.w3.org/2000/svg">
<rect x="53.3765" y="2.65332" width="3.66793" height="53.7982" fill="#161616"/>
<rect x="57.0444" y="53.5811" width="2.87084" height="54.4485" transform="rotate(90 57.0444 53.5811)" fill="#161616"/>
<path d="M27.6216 12.8727C19.4332 12.8727 12.7743 19.4727 12.7698 27.5842C12.7675 30.8954 13.7474 33.3759 15.3919 35.9704L13.8916 41.4004L19.5098 39.9402C22.026 41.4205 24.4296 42.3091 27.6081 42.3091C35.7898 42.3091 42.4555 35.7091 42.4577 27.5954C42.4645 19.466 35.8304 12.875 27.6216 12.8727ZM36.353 33.9118C35.9813 34.9455 34.1972 35.8878 33.3412 36.015C32.573 36.1289 31.5998 36.1758 30.5298 35.8409C29.8811 35.6377 29.0498 35.3653 27.9866 34.9098C23.5105 32.9941 20.5865 28.5264 20.3635 28.2317C20.1405 27.937 18.5411 25.8337 18.5411 23.6568C18.5411 21.4799 19.6945 20.4104 20.1022 19.9661C20.5122 19.5196 20.9943 19.4079 21.2916 19.4079L22.1476 19.4236C22.4225 19.437 22.7896 19.3209 23.1523 20.1827C23.524 21.0691 24.4161 23.246 24.5287 23.467C24.6391 23.6881 24.7157 23.9471 24.5647 24.2418C24.4161 24.5365 24.3417 24.7218 24.1187 24.9786L23.4497 25.7534C23.2267 25.9744 22.9946 26.2133 23.2537 26.6554C23.515 27.0975 24.4093 28.5465 25.7361 29.7187C27.4414 31.2258 28.8786 31.6924 29.3246 31.9135C29.7707 32.1345 30.032 32.0988 30.291 31.8019C30.5523 31.5071 31.4061 30.5113 31.7035 30.067C32.0008 29.6227 32.2982 29.6986 32.7082 29.846C33.1181 29.9933 35.3122 31.0628 35.7583 31.2861C36.2043 31.5071 36.5016 31.6188 36.6143 31.8019C36.7247 31.9916 36.7247 32.878 36.353 33.9118ZM0.508484 0.952148V54.5378H54.5726V0.952148H0.508484H0.508484ZM27.6149 45.2987C24.6256 45.2987 21.6813 44.5552 19.0727 43.1441L9.60477 45.6068L12.139 36.4348C10.5757 33.751 9.75344 30.7056 9.7557 27.5842C9.7602 17.8227 17.7707 9.88309 27.6149 9.88309C32.3928 9.88532 36.8778 11.7296 40.2501 15.0742C43.6223 18.4188 45.4785 22.8687 45.4763 27.5976C45.4718 37.3591 37.459 45.2987 27.6149 45.2987Z" fill="#720570"/>
<path d="M27.6216 12.8727C19.4332 12.8727 12.7743 19.4727 12.7698 27.5842C12.7675 30.8954 13.7474 33.3759 15.3919 35.9704L13.8916 41.4004L19.5098 39.9402C22.026 41.4205 24.4296 42.3091 27.6081 42.3091C35.7898 42.3091 42.4555 35.7091 42.4577 27.5954C42.4645 19.466 35.8304 12.875 27.6216 12.8727ZM36.353 33.9118C35.9813 34.9455 34.1972 35.8878 33.3412 36.015C32.573 36.1289 31.5998 36.1758 30.5298 35.8409C29.8811 35.6377 29.0498 35.3653 27.9866 34.9098C23.5105 32.9941 20.5865 28.5264 20.3635 28.2317C20.1405 27.937 18.5411 25.8337 18.5411 23.6568C18.5411 21.4799 19.6945 20.4104 20.1022 19.9661C20.5122 19.5196 20.9943 19.4079 21.2916 19.4079L22.1476 19.4236C22.4225 19.437 22.7896 19.3209 23.1523 20.1827C23.524 21.0691 24.4161 23.246 24.5287 23.467C24.6391 23.6881 24.7157 23.9471 24.5647 24.2418C24.4161 24.5365 24.3417 24.7218 24.1187 24.9786L23.4497 25.7534C23.2267 25.9744 22.9946 26.2133 23.2537 26.6554C23.515 27.0975 24.4093 28.5465 25.7361 29.7187C27.4414 31.2258 28.8786 31.6924 29.3246 31.9135C29.7707 32.1345 30.032 32.0988 30.291 31.8019C30.5523 31.5071 31.4061 30.5113 31.7035 30.067C32.0008 29.6227 32.2982 29.6986 32.7082 29.846C33.1181 29.9933 35.3122 31.0628 35.7583 31.2861C36.2043 31.5071 36.5016 31.6188 36.6143 31.8019C36.7247 31.9916 36.7247 32.878 36.353 33.9118ZM0.508484 0.952148V54.5378H54.5726V0.952148H0.508484H0.508484ZM27.6149 45.2987C24.6256 45.2987 21.6813 44.5552 19.0727 43.1441L9.60477 45.6068L12.139 36.4348C10.5757 33.751 9.75344 30.7056 9.7557 27.5842C9.7602 17.8227 17.7707 9.88309 27.6149 9.88309C32.3928 9.88532 36.8778 11.7296 40.2501 15.0742C43.6223 18.4188 45.4785 22.8687 45.4763 27.5976C45.4718 37.3591 37.459 45.2987 27.6149 45.2987Z" fill="url(#paint0_linear_33_1006)"/>
<defs>
<linearGradient id="paint0_linear_33_1006" x1="85.9437" y1="0.95215" x2="-19.6033" y2="55.2975" gradientUnits="userSpaceOnUse">
<stop stop-color="#EEB5EA"/>
<stop offset="1" stop-color="#A0009E"/>
</linearGradient>
</defs>
</svg>
